<svg xmlns="http://www.w3.org/2000/svg" width="180mm" height="90mm" viewBox="0 0 180 90"><path d="M71.076 89.058c0-.508-.262-1.141-.582-1.407-.605-.502-.79-2.956-.283-3.754.531-.834 5.548-2.459 7.61-2.464 1.844-.005 2.15-.15 4.128-1.947 1.174-1.068 2.513-2.042 2.975-2.164.493-.13.943-.65 1.09-1.257.938-3.892.945-3.903 2.548-4.384 1.326-.397 1.541-.616 1.541-1.565 0-1.098-.012-1.103-2.497-1.103-2.339 0-2.552-.076-3.337-1.18-.522-.732-.737-1.43-.569-1.844.149-.366.325-1.317.392-2.114.29-3.467.462-3.74 2.446-3.897 1.268-.101.92-.166-1.15-.215-2.233-.052-3.023-.214-3.191-.652-.181-.471-1.078-.583-4.685-.583h-4.46l-1.968-3.009c-1.082-1.655-2.072-3.49-2.2-4.077-.13-.587-.467-1.068-.75-1.068-.284 0-.958-.201-1.499-.448-1.354-.616-1.613-2.403-.844-5.81.344-1.522.625-2.922.625-3.109 0-.187-.852-.34-1.894-.34-1.21 0-2.068-.211-2.377-.583-.544-.656-2.545-.789-2.912-.194-.312.505-3.183.505-3.495 0-.132-.214-1.344-.389-2.693-.389-1.708 0-2.601-.177-2.937-.582-.544-.656-2.545-.789-2.913-.194-.132.214-1.106.388-2.164.388-1.754 0-1.992-.111-2.694-1.261-.639-1.048-.77-1.96-.77-5.377-.002-3.493.105-4.21.708-4.756.838-.759 4.327-.887 5.029-.185.35.35.666.352 1.34.004.484-.249 2.265-.499 3.956-.555 2.04-.067 3.13-.264 3.236-.586.12-.36-.592-.486-2.736-.486-2.102 0-3.03-.16-3.38-.582-.55-.663-1.778-.774-2.136-.194-.132.214-1.274.388-2.537.388-2.151 0-2.335-.073-2.89-1.145-.82-1.586-.82-8.161 0-9.747.533-1.03.783-1.145 2.477-1.145 1.2 0 2.059.211 2.367.582.616.742 1.326.742 1.942 0 .354-.427 1.294-.582 3.52-.582 1.669 0 3.143-.175 3.275-.389.32-.517 1.897-.49 3.746.063 1.356.407 1.595.368 2.4-.388.828-.778 1.292-.84 6.33-.84h5.435l1.116-1.165 1.116-1.165H105.559l.38-1.089c.314-.9.801-1.217 2.803-1.823 2.35-.712 2.44-.712 2.945-.018.287.392.584.9.66 1.128.238.715 3.485-.498 4.624-1.727.823-.887 1.382-1.128 2.616-1.128 1.414 0 1.624-.13 2.113-1.3.541-1.295.731-1.404 6.325-3.625.247-.099.565.183.705.625.19.599.582.805 1.527.805 1.152 0 1.317.15 1.748 1.591.263.875.421 1.632.353 1.682-.068.05-.495.34-.948.644l-.824.552 1.097 2.857c.705 1.837 1.02 3.243.88 3.94-.144.72.203 2.133 1.035 4.219 1.242 3.112 1.353 4.697.53 7.522-.257.878-2.783.957-3.113.097-.489-1.275-.917-.46-.917 1.748 0 1.79.133 2.33.571 2.33.314 0 2.039.867 3.833 1.927 3.088 1.823 3.287 2.023 3.713 3.716.437 1.732.402 1.877-1.108 4.611-1.253 2.272-1.855 2.958-3.08 3.51l-1.52.685-3.728-2.224c-2.598-1.55-3.729-2.446-3.729-2.954 0-.548-.283-.729-1.142-.729-.628 0-1.234.15-1.347.333-.113.183-.643 2.397-1.178 4.921-.534 2.524-1.156 4.704-1.382 4.843-.226.14-2.502.563-5.058.94l-4.648.686v3.245c0 1.784-.19 4.127-.42 5.205l-.421 1.96h-2.469c-2.673 0-3.82.653-1.495.85 1.317.112 1.463.252 1.953 1.869.292.96.452 2.073.356 2.471-.095.399.014 1.024.243 1.39.315.505.25.918-.264 1.703-.627.957-.884 1.037-3.352 1.037h-2.674v1.369c0 1.223.13 1.394 1.217 1.612.722.144 1.293.535 1.404.96.12.46.541.719 1.166.719.67 0 1.973.897 4.129 2.842 3.234 2.918 5.518 4.145 7.721 4.15.69.002 1.779.35 2.42.774 1.04.69 1.83.771 7.456.774 7.891.003 8.27.14 8.27 2.992 0 1.333-.286 2.648-.789 3.635L133.957 90l-7.63-.105-7.632-.106-.803-1.632c-.44-.898-1.053-1.64-1.36-1.65-.306-.01-.961-.399-1.455-.863l-.9-.844-.878.826-.88.826-3.604-2.117c-1.982-1.165-3.683-2.118-3.78-2.118-.097 0-.176.282-.176.627 0 .345-.743 1.306-1.65 2.136l-1.65 1.508h-8.35v1.165c0 .884-.177 1.165-.735 1.165-.404 0-.835.263-.958.583-.191.497-1.705.582-10.332.582H71.076zM60.98 26.25c0-.685-.097-.743-.578-.344-.584.485-.46 1.168.213 1.168.2 0 .365-.37.365-.824zm63.78-16.518a.843.843 0 0 1-.486-.723c0-1.162-.97-1.048-3.495.409-.911.525-.805.558 1.747.535 1.495-.014 2.5-.114 2.233-.22z"/></svg>