<svg xmlns="http://www.w3.org/2000/svg" width="180mm" height="90mm" viewBox="0 0 180 90"><path d="M66.702 89.649c-.227-.19-.413-.484-.413-.654 0-.17-.153-.35-.34-.398-.187-.05-.47-.361-.628-.693-.159-.333-1.25-4.165-2.427-8.516l-2.138-7.911.128-6.395.129-6.394 1.185-1.332c.903-1.015 1.301-1.333 1.674-1.337.532-.005 2.054-1.19 3.236-2.52.478-.54.843-.783 1.177-.787.357-.004 1.046-.528 2.626-1.993 2.421-2.246 2.356-2.221 5.768-2.224 1.61-.001 1.681.016 2.192.55.29.302.595.55.678.55.082 0 .149-.463.149-1.029v-1.029l-3.169-3.425c-1.742-1.884-3.292-3.583-3.444-3.775-.23-.292-.298-1.652-.41-8.266-.075-4.354-.128-11.925-.118-16.825l.018-8.909 1.274-2.422c1.162-2.208 1.335-2.444 1.954-2.664 1.047-.37 4.682-.281 7.68.188 2.403.376 3.195.386 3.195.037 0-.076.64-.245 1.423-.376 1.79-.299 2.25-.467 2.25-.82 0-.242.533-.28 3.948-.28h3.948l4.823 1.012c2.653.556 5.211 1.1 5.685 1.21.828.19.897.258 1.722 1.697.851 1.484.864 1.531 1.206 4.439.19 1.616.508 4.013.706 5.327.198 1.313.544 4.371.769 6.796.225 2.425.486 4.46.58 4.525.152.104.577 5.169.715 8.517.03.707.112 1.33.185 1.384.072.055.229 1.267.349 2.694l.217 2.596-.579.73c-.318.402-.578.776-.578.831 0 .056.558.056 1.24.001 1.51-.12 2.913.372 3.064 1.077.25 1.165.662 5.326.77 7.788l.123 2.775-1.052 3.287c-1.042 3.254-1.063 3.298-2.088 4.343l-1.035 1.057h-1.786c-.982 0-1.824.062-1.872.138-.11.177.325 5.489.631 7.713.234 1.698.234 1.698 1.094 2.423l.86.726.132 2.315.132 2.316-.841.984-.842.985v2.024c0 1.965-.022 2.076-.757 3.782-.637 1.48-.823 1.758-1.173 1.758-.317 0-.595.298-1.177 1.261l-.762 1.262-1.71.125c-1.495.11-1.834.077-2.703-.265-.546-.215-1.257-.591-1.578-.836-.322-.244-.659-.445-.75-.445-.09 0-.672.207-1.294.46-.897.364-1.443.458-2.649.453-1.379-.006-1.548-.045-1.832-.436-.174-.24-1.21-4.175-2.342-8.89l-2.029-8.46v-6.805l-.907.108c-.498.059-1.056.043-1.24-.036-.183-.079-.885-.124-1.56-.1l-1.226.043-.497-.75-.497-.751H83.036l-.796-1.56c-1.06-2.075-1.312-2.112-.812-.12.143.57.315 1.74.383 2.598.067.859.324 2.801.57 4.317.439 2.695.794 8.003.803 11.981l.004 1.879-1.132 2.116-1.13 2.117h-.798c-.783 0-.798.01-.798.618 0 .579-.093.672-1.465 1.47-1.236.717-1.616.85-2.428.85-.911 0-1.013-.05-1.912-.937-.746-.736-1.032-.91-1.337-.814-.295.093-.389.273-.389.746 0 .54-.105.684-.796 1.09-.686.402-1.012.466-2.342.46-1.237-.004-1.628-.075-1.959-.35zm18.326-54.881l1.25-.683.502-1.64c.552-1.798.555-1.769-.377-3.891-.387-.881-.478-.958-1.808-1.516l-1.4-.588-1.349.668-1.349.667-.608 1.73-.608 1.73.67 1.506.672 1.507 1.237.579c.68.319 1.39.587 1.577.597.188.01.904-.29 1.59-.666zm-.046-12.061l2.339-1.173.906-2.64.907-2.642-.998-2.552-.999-2.552-2.19-.982c-1.205-.54-2.268-.982-2.362-.982-.094 0-1.193.558-2.443 1.24l-2.27 1.24-.892 2.664-.891 2.663.988 2.388c.543 1.313 1.063 2.464 1.156 2.557.092.093 1.1.558 2.24 1.035 1.14.476 2.094.875 2.12.887.027.012 1.102-.506 2.389-1.151z"/></svg>