<svg xmlns="http://www.w3.org/2000/svg" width="180mm" height="90mm" viewBox="0 0 180 90"><path d="M19.266 87.924c-4.666-2.235-4.931-2.476-7.166-6.51l-2.321-4.19 1.346-5.753c.74-3.165 2.363-7.798 3.607-10.297 1.516-3.045 2.887-7.319 4.158-12.964 1.044-4.632 2.171-8.752 2.506-9.155.413-.498.363-1.198-.155-2.178-.663-1.255-1.201-1.444-4.094-1.444h-3.332l-.162-14.385-.163-14.385h3.583c3.336 0 3.71.145 5.443 2.12 2.332 2.655 4.974 2.92 6.028.605.603-1.321 1.076-1.514 3.72-1.514 2.74 0 3.067.147 3.417 1.54.453 1.809 1.671 1.668 1.95-.225.171-1.165.569-1.315 3.497-1.315 3.028 0 3.364.14 4.018 1.666l.714 1.665.224-2.12c.128-1.223.892-2.824 1.807-3.785l1.584-1.666h40.732l1.343-1.817C92.703.257 93.287 0 95.672 0c2.21 0 3.194.363 4.802 1.776 2.508 2.202 6.616 2.958 10.002 1.84 1.822-.6 3.96-.642 9.382-.18 3.862.329 7.203.88 7.424 1.223.236.366 7.819 1.05 18.27 1.651 20.982 1.206 19.988.822 19.988 7.703 0 3.91-.101 4.226-1.515 4.763-1.354.515-1.514.918-1.514 3.811 0 5.762 1.138 10.067 3.622 13.702 2.154 3.152 2.377 3.904 3.28 11.018.857 6.765.866 7.97.08 10.583-.79 2.622-.784 3.106.05 4.375.661 1.009.824 2.168.554 3.954-.82 5.444-.952 5.75-2.774 6.385-.978.34-2.095 1.316-2.482 2.166-.84 1.842.036 1.715-10.807 1.56-6.66-.095-9.02-.337-9.763-1-.856-.763-3.15-.682-18.135.644l-17.155 1.518-3.366 3.279c-3.357 3.268-3.392 3.284-11.569 5.263l-8.202 1.986-8.178-1.931-8.178-1.932-6.626-6.646-6.625-6.646h-11.1l-1.88-2.14-1.88-2.142.006 5.927c.006 5.525-.148 6.28-2.272 11.167l-2.277 5.24-2.726.339c-9.364 1.163-9.689 1.134-14.84-1.333zm10.6-17.059c.276-6.355.455-7.207 2.043-9.723 1.899-3.008 7.398-7.236 9.413-7.236 1.031 0 1.263-.376 1.263-2.05 0-2.96 1.89-4.007 7.231-4.007 4.105 0 4.277-.057 5.185-1.817l.94-1.817h-10.58c-6.892 0-10.719-.227-10.981-.651-.257-.416-.925-.16-1.853.711-1.166 1.095-1.45 1.974-1.45 4.482 0 3.564-1.807 9.212-5.33 16.657-1.34 2.832-2.595 6.28-2.79 7.664-.33 2.339-.217 2.606 1.61 3.79 1.082.702 2.649 1.204 3.482 1.119 1.498-.155 1.517-.23 1.817-7.122zm100.392-7.344c7.862-.666 8.63-.835 8.63-1.897 0-.64.957-2.283 2.125-3.648 1.169-1.365 2-2.907 1.848-3.427-.153-.52-.462-2.99-.69-5.489-.309-3.414-.88-5.403-2.3-8.007l-1.89-3.465-3.53-.404c-2.881-.33-3.859-.751-5.314-2.29l-1.783-1.884.918 2.638c.505 1.452.774 2.872.598 3.157-.176.284-2.49 3.05-5.141 6.144-4.396 5.129-4.822 5.855-4.825 8.22-.002 1.562-.606 3.784-1.517 5.582-.833 1.644-1.514 3.714-1.514 4.6 0 1.57.076 1.604 2.877 1.257 1.582-.196 6.76-.685 11.508-1.087zm-.454-37.363c0-1.776-.42-2.712-1.817-4.05-1.176-1.127-1.817-2.343-1.817-3.445 0-1.49-.23-1.704-1.818-1.704-1.105 0-1.817.315-1.817.803 0 .441-.681 1.443-1.514 2.226-.889.835-1.514 2.096-1.514 3.055 0 1.474.454 1.81 4.694 3.468 2.582 1.01 4.898 1.863 5.148 1.896.25.036.455-.98.455-2.25z"/></svg>