<svg xmlns="http://www.w3.org/2000/svg" width="180mm" height="90mm" viewBox="0 0 180 90"><path d="M123.938 83.342c-1.692-.254-2.512-1.781-2.457-4.575.019-1.094-1.802-5.925-4.852-12.858-3.393-7.714-4.885-11.74-4.885-13.18 0-1.827-.207-2.16-1.746-2.82-.96-.411-1.927-.847-2.149-.968-.221-.122-.403.616-.403 1.638 0 1.023-.302 2.1-.671 2.393-.37.293-2.968.5-5.776.459-4.337-.063-5.284.082-6.307.965-1.005.867-1.425.936-2.552.423-1.073-.489-1.348-1.005-1.348-2.532 0-1.056.366-2.626.813-3.49.737-1.426.727-1.67-.106-2.644-.895-1.044-.959-.98-2.416 2.436-1.414 3.315-1.449 3.582-.627 4.836.84 1.283.74 1.606-3.058 9.83l-3.928 8.502-3.624 2.494c-1.994 1.372-3.793 2.495-4 2.495-.205 0-4.817-2.091-10.248-4.647l-9.875-4.647v-3.67c0-2.133.365-4.582.873-5.85.48-1.201.722-2.334.537-2.519-.184-.184-.335.091-.335.613 0 .521-.751 1.65-1.669 2.507-1.479 1.381-2.056 1.558-5.085 1.558-2.917 0-3.504-.164-4.018-1.125l-.602-1.125-1.198 1.125c-1.442 1.355-2.85 1.435-4.175.236-.914-.827-1.05-.827-1.964 0-1.326 1.2-2.734 1.12-4.182-.241l-1.203-1.131-.707 1.13c-.846 1.356-3.92 1.583-4.402.326-.17-.444-.77-.806-1.335-.806-.564 0-1.326.363-1.694.806-.54.649-2.203.805-8.578.805-9.687 0-9.688 0-9.688-6.02 0-2.95-.22-4.238-.806-4.724-.443-.368-.806-1.244-.806-1.946 0-.703-.242-1.278-.537-1.278-.296 0-.537-1.303-.537-2.897 0-2.08-.228-2.984-.806-3.207C.12 39.757 0 37.78 0 26.8c0-12.304.048-12.91 1.016-12.91.684 0 1.297-.702 1.876-2.148.473-1.182 1.225-2.15 1.67-2.15.452 0 .81-.474.81-1.074 0-.93.358-1.074 2.65-1.074 2.178 0 2.71.191 2.991 1.074.324 1.02.813 1.075 9.733 1.075h9.39l.685 1.626c.68 1.62.687 1.622 1.669.537 1.434-1.585 7.493-1.595 8.34-.013.68 1.27 2.281 1.404 3.223.269.472-.57 1.723-.806 4.256-.806 3.709 0 4.877.54 4.877 2.256 0 .898.744.967 10.41.967 8.598 0 10.527-.14 11.08-.806.533-.643 2.141-.806 7.99-.81l7.32-.005 2.074-3.219c1.82-2.823 2.28-3.216 3.76-3.2.928.012 2.257.492 2.953 1.072 1.018.848 1.226 1.462 1.066 3.139l-.198 2.085 8.603.26 8.604.26 20.255 5.544c19.753 5.406 20.272 5.583 20.902 7.103.783 1.89 6.106 4.701 8.159 4.309.923-.177 3.183.768 7.55 3.155 7.055 3.859 7.159 4.039 5.184 9.049-.59 1.499-1.074 3.917-1.074 5.374 0 3.634-1.32 6.252-3.358 6.66-.878.175-3.01 1.544-4.738 3.04l-3.14 2.721-.158 3.82-.157 3.82-10.389 4.708c-7.026 3.184-11.025 4.707-12.356 4.705-2.614-.005-10.516 2.944-10.73 4.004-.091.453-1.282 1.204-2.647 1.669-2.456.837-3.288.898-6.213.458zm12.751-7.659c5.81-1.963 6.348-2.354 5.58-4.04-.407-.894-.407-1.739 0-2.906.54-1.55.305-2.053-4.028-8.638-2.53-3.845-4.924-6.992-5.317-6.992-.41 0-.86-.863-1.053-2.014-.51-3.05-.614-3.2-1.206-1.746-.805 1.977-3.605 4.433-4.765 4.181-.547-.119-.916-.557-.82-.973.498-2.174.731-5.964.438-7.13l-.332-1.324-3.76 1.414-3.759 1.414-.007 3.218c-.006 2.78.596 4.734 4.425 14.365l4.433 11.148 2.3.006c1.545.004 2.401.27 2.609.811.17.444.36.806.42.806.063 0 2.24-.72 4.842-1.6zm25.039-22.168c2.42-2.618 3.74-5.522 3.74-8.23 0-.493-.847-2.05-1.881-3.46-1.034-1.408-1.88-3.034-1.88-3.612 0-.615-.612-1.344-1.478-1.76-1.704-.819-10.341-1.229-10.341-.49 0 .271-.967 1.367-2.15 2.435-1.753 1.584-2.148 2.299-2.148 3.885 0 1.759.573 2.519 6.035 7.996 3.32 3.328 6.365 6.052 6.768 6.052.403 0 1.904-1.267 3.335-2.816zM63.299 42.363c.622 0 1.39-.484 1.706-1.075.53-.99.409-1.074-1.568-1.074-1.549 0-2.503.359-3.438 1.294l-1.293 1.294 1.135.533c.836.392 1.292.335 1.731-.22.328-.414 1.105-.752 1.727-.752z"/></svg>