<svg xmlns="http://www.w3.org/2000/svg" viewBox="0 0 180 90"><path d="M71.1 86.118c-1.985-.435-2.605-.827-6.836-4.325-3.398-2.81-4.99-3.901-5.903-4.05-1.646-.265-3.184-1.71-3.184-2.989 0-1.248-.981-2.15-2.34-2.15-1.372 0-2.582-1.276-2.582-2.724 0-.978-.123-1.11-1.128-1.208-1.06-.104-1.218-.314-2.67-3.567l-1.545-3.456.817-.869c.815-.868.815-.87.184-2.52-.348-.908-.96-3.501-1.359-5.762-.683-3.86-.692-4.184-.15-5.326.67-1.413.72-2.122.212-3.07-.494-.924 1.436-3.824 2.58-3.877.763-.035 4.054-3.305 3.69-3.668-.098-.098-1.664.394-3.48 1.094-3.08 1.186-3.49 1.259-6.054 1.071-2.078-.152-2.94-.077-3.527.307-.61.4-1.543.462-4.368.29-1.976-.12-3.589-.314-3.584-.43.005-.115.146-.803.314-1.529.281-1.209.244-1.318-.448-1.314-.55.003-1.081.572-1.966 2.11l-1.212 2.105h-7.528l-1.075-1.906c-.942-1.667-1.152-2.569-1.685-7.218-.578-5.05-.578-5.534.007-9.784.521-3.78.782-4.729 1.688-6.141l1.071-1.67h7.3l1.064 2.11 1.065 2.109h6.609l1.085 1.475c.597.812 1.085 1.665 1.085 1.896 0 .748.992.848 8.475.848h7.363l.316-.833c.39-1.025 1.828-1.37 3.578-.86 1.063.31 1.346.604 1.692 1.761.277.925.3 1.53.068 1.81-.239.286-.158.672.254 1.218.58.768.651.778 1.897.257 2.144-.895 4.13-.64 4.13.53 0 .355.159.743.352.863.544.336.415 1.984-.21 2.674-.687.76-.388 1.367.551 1.122.46-.12 1.53-1.787 3.194-4.977 1.377-2.638 2.718-4.948 2.98-5.134.383-.27.24-.63-.71-1.789-1.109-1.353-1.165-1.544-.84-2.828.294-1.154.635-1.53 2.098-2.31 1.66-.885 1.813-.906 3.055-.415.753.298 1.727 1.104 2.297 1.901.826 1.155 1.1 1.326 1.647 1.033 1.059-.566 10.202-.424 11.25.176.484.276 1.335.508 1.891.515.568.007 2.05.667 3.377 1.506 2.021 1.278 2.555 1.843 3.686 3.903.846 1.542 1.738 2.654 2.478 3.09.636.376 1.251 1.063 1.368 1.528.192.764.31.811 1.236.489.784-.274 1.272-.228 2.09.195 1.556.805 2.115.692 3.415-.686 1.07-1.133 1.287-1.218 2.585-1.01 1.187.189 1.457.119 1.661-.433.134-.363.393-.76.574-.881.204-.137.191-.472-.032-.87-.234-.418-.244-.87-.029-1.273.284-.53.834-.624 3.641-.624 1.82 0 3.378-.119 3.465-.264.087-.145-.932-2.61-2.264-5.478-1.333-2.868-2.415-5.479-2.406-5.8.01-.323.286-1.136.615-1.806.486-.99.923-1.311 2.314-1.703 1.514-.427 1.864-.417 2.99.092 1.131.51 1.477 1.015 3.032 4.427l1.755 3.852 1.758-2.003c.967-1.101 1.758-2.257 1.758-2.567 0-.31.449-1.099.998-1.753.924-1.1 1.077-1.16 2.037-.798 1.707.645 4.325-.042 3.085-.809-.56-.346 2.124-2.968 3.04-2.968.414 0 1.268-.18 1.896-.398 1.052-.367 1.224-.316 2.198.658.906.906 1 1.163.656 1.804-.331.62-.302.748.168.748.5 0 11.055 9.532 11.347 10.247.063.153 1.064 1.25 2.226 2.436 1.77 1.809 2.077 2.302 1.892 3.037-.132.528-.013 1.194.3 1.67.489.748.434.875-.97 2.254-1.325 1.3-1.617 1.435-2.657 1.227-1.163-.233-1.168-.228-1.002.961.092.658.285 1.47.43 1.803.273.628-.171 1.13-3.318 3.751l-1.433 1.195.748.797c.917.976.68 2.007-.774 3.365l-1.007.941 1.678.23c.924.128 2.102.071 2.618-.125 1.527-.58 3.84.254 4.537 1.637.313.62.769 1.37 1.013 1.664.31.372.392 1.351.271 3.226-.172 2.685-.17 2.694 1.183 4.478 1.312 1.73 1.356 1.88 1.358 4.607 0 2.383-.127 3.008-.828 4.043-.68 1.004-.876 1.888-1.089 4.908-.287 4.083-1.028 6.092-2.494 6.76-.734.334-.994.277-1.68-.367l-.81-.762-2.614.918c-1.48.52-4.211 1.093-6.302 1.322l-3.689.403-.693 2.533-.694 2.532-2.048.92c-1.426.64-3.14 1.03-5.637 1.286-2.188.224-3.82.57-4.18.885-.452.396-1.114.465-2.812.296-1.222-.123-4.911-.344-8.198-.492-6.698-.301-12.105-1.336-13.415-2.567-1.152-1.083-1.89-.705-2.678 1.37l-.7 1.846h-2.213c-2.025 0-2.282-.087-3.03-1.028-.449-.565-1.976-1.606-3.394-2.314-1.417-.707-2.887-1.595-3.265-1.974-.682-.682-.694-.674-1.547 1.19-.825 1.802-1.027 1.972-5.089 4.272-2.852 1.614-5.345 2.723-7.653 3.403-3.872 1.141-3.413 1.107-6.309.472zm65.864-10.7c1.518 0 1.533-.013 1.533-1.231 0-1.225-.007-1.23-1.59-1.23-1.335 0-1.64.129-1.898.805-.364.957-1 1.526-1.961 1.755-.387.092-.01.107.84.034a43.136 43.136 0 0 1 3.076-.134zM22.287 32.321c-.945-4.014-1.529-4.394-1.836-1.196-.146 1.518.003 2.122 1.018 4.129l1.188 2.35.113-1.376c.063-.757-.155-2.515-.483-3.907zm23.737 1.457c1.057-.456 1.98-1.004 2.051-1.217.19-.568-10.342-.537-10.694.032-.143.23-.053.487.2.57.251.085.714.437 1.028.783.896.988 4.948.896 7.415-.168zm35.161-2.996c.39-.766.71-1.584.71-1.818 0-.235.266-.72.59-1.077.452-.5.493-.748.176-1.065-.228-.228-.414-1.252-.414-2.277 0-1.025-.158-1.863-.352-1.863-.193 0-.351-.317-.351-.703 0-1.027-.867-.88-3.34.567-1.788 1.046-2.448 1.712-3.723 3.759-1.913 3.07-1.908 3.056-1.231 3.056.304 0 .751.317.993.704.254.406.82.703 1.342.703.496 0 1.21.225 1.585.5.401.294 1.081.42 1.65.307.595-.118.966-.04.966.203 0 .846.722.331 1.4-.996zm67.992-3.95c-.115-.187.232-.801.772-1.365.938-.979 1.019-1 1.838-.463.802.526.904.515 1.584-.165.705-.705.707-.747.084-1.436-.418-.462-.907-.644-1.4-.52-.883.222-1.673-.461-4.242-3.666-1.757-2.193-1.758-2.193-3.264-1.977-1.354.193-1.606.11-2.484-.83-.878-.94-.97-1.277-.924-3.363.054-2.38-.31-2.909-1.236-1.793-.352.424-.32.703.165 1.444.591.902.581.939-.57 2.128-.89.916-1.37 1.16-1.982 1.006-.638-.16-1.197.175-2.64 1.582l-1.83 1.784 1.903-1.096c1.702-.979 2.094-1.07 3.692-.852 1.645.225 2.027.478 4.792 3.186 1.896 1.857 3.178 3.429 3.476 4.263 1.028 2.881 1.012 2.856 1.758 2.661.395-.103.624-.341.508-.528zM22.275 22.155c.437-1.83.502-2.82.256-3.867-.182-.773-.346-1.13-.366-.79-.02.338-.176.614-.349.614-1.065 0-2.015 6.412-1.004 6.783.662.242.825-.063 1.463-2.74z"/></svg>