<svg xmlns="http://www.w3.org/2000/svg" viewBox="0 0 180 90"><path d="M84.476825 85.207527c-3.139756-1.385178-3.273593-1.569124-4.404161-6.053261-.641304-2.54357-1.449587-5.342448-1.796186-6.219719-.346635-.877283-.630161-2.361549-.630161-3.298377 0-1.678702-.08771-1.703229-6.075926-1.698724-4.895392.0043-6.480682.272618-8.159097 1.384207-1.82113 1.206084-3.270682 1.380209-11.523432 1.384207-8.561676.0043-9.557229-.124583-10.697087-1.384207-.779652-.861515-2.138702-1.388771-3.579576-1.388771-1.601738 0-2.32275-.323379-2.32275-1.041597 0-.771534-.81012-1.041593-3.12476-1.041593-2.314635 0-3.124759.27002-3.124759 1.041593 0 .810734-.928277 1.041597-4.188137 1.041597-3.082223 0-4.293686-.274979-4.587836-1.041597-.225161-.586797-1.25892-1.041593-2.367593-1.041593-2.472906 0-2.929233-.738208-2.353463-3.807319.333335-1.776881.81801-2.442201 1.779081-2.442201.726509 0 2.019754-.390589 2.873883-.86798.854126-.477388 1.668275-.931232 1.809223-1.008527.140953-.07736-.241412-.63818-.849639-1.246419-1.915948-1.91596-2.728146-6.64337-2.804556-16.324006-.06182-7.829276.1441-9.865045 1.246619-12.325449 1.291777-2.882749 1.394611-2.947173 4.704327-2.947173 3.040606 0 3.462207.193681 4.15818 1.909578 1.589953 3.920151 2.288523 15.757761 1.332387 22.577893-.494481 3.52713-1.209583 6.794829-1.589115 7.261564-.47383.582708-.357613 1.181093.370875 1.909578.860819.860819 3.10052 1.060941 11.873608 1.060941h10.812659v-6.249515c0-5.723243-.113485-6.249523-1.3478-6.249523-.741292 0-1.540926-.312519-1.776967-.69438-.575228-.930748-5.902314-.892921-5.902314.04191 0 .426228-1.096593.645566-2.603965.52081l-2.603969-.21552V34.949298l3.124756.15197c1.718619.08366 4.783626-.01967 6.811131-.228663 3.507337-.362139 3.675949-.470655 3.471954-2.235105-.198364-1.715346-.487989-1.870275-3.859961-2.064393l-3.645559-.209895V25.575033h8.332694v-3.415171c0-1.878322.185772-3.899249.412818-4.490936.356001-.927702-.719119-1.102767-7.811891-1.271969l-8.224713-.196238-.224178-2.345073c-.123284-1.289786.06406-2.633285.416312-2.985559.355804-.355804 9.803199-.702368 21.254853-.779687 15.98349-.1078586 20.738945-.3408112 21.168982-1.0366507 1.375027-2.2248505 9.810566-1.998981 9.810566.2627012 0 .7415765 1.597964.8746345 7.811891.650402l7.811897-.2819041.21249-2.2972429c.28191-3.0482513 1.75473-4.0332314 6.03088-4.0332314 3.72461 0 5.21409.8331242 5.21409 2.9164482 0 1.1629016.98937 1.2499046 14.21391 1.2499046 12.5112 0 14.48673.1529538 16.49178 1.2771428 2.51455 1.4098553 12.76167 2.5140813 13.42161 1.4462893.70877-1.1468626 4.39316-.7113633 5.09627.602395.98387 1.838401-.54036 16.833015-1.86779 18.373902-1.27593 1.481126-1.82172 1.514628-3.14341.192894-.90005-.900051-1.1236-.900051-1.87058 0-.46662.562218-1.35695 1.022422-1.97853 1.022678-.99886.000413-1.13871 1.436404-1.20372 12.35881-.0681 11.403056.0236 12.36556 1.16839 12.451898.68304.05131 2.04416.619205 3.02468 1.26167 1.61918 1.06093 1.7828 1.593203 1.7828 5.799303 0 6.649749-.75981 7.01375-14.64005 7.01375-6.53215 0-11.4957-.321491-12.92107-.836926-2.10146-.759878-2.41319-.695973-3.38703.694403-.69574.993299-1.79587 1.531309-3.13126 1.531309-1.50152 0-2.26503.452865-2.8211 1.673308-1.2527 2.749368-6.13091 4.217862-13.6099 4.096987-3.52912-.0571-6.5942.183607-6.81129.534956-.56063.907119-3.353917.791713-4.324291-.178688-.626843-.626847-1.063782-.227483-1.874859 1.713665-.581625 1.392053-1.057518 2.852949-1.057518 3.246426 0 .773832-6.150786 4.86401-7.291093 4.848483-.381892-.0043-2.151564-.652334-3.932546-1.438061zM90.76998 75.11453c.993051-2.134498 2.363693-3.899205 3.392651-4.368026 1.662097-.757284 1.677648-.823581.416973-1.778034-3.379539-2.558661-6.082793-.727776-7.640021 5.174506-1.584814 6.006757 1.163499 6.703852 3.830397.971554zM72.091178 58.211397c0-2.499805-.173613-2.777558-1.735973-2.777558-1.388787 0-1.735981-.347186-1.735981-1.735988 0-2.094067-.746833-2.228963-1.922028-.347186-.477017.763836-1.33337 1.388787-1.903006 1.388787-.764576 0-1.035702.818009-1.035702 3.124759v3.124764h8.33269zm29.243932.520795c1.19276-2.264925 1.93295-2.5815 6.06343-2.593325l3.71257-.0094-.33345-3.298372c-.18353-1.814264-.98764-7.360704-1.78709-12.325604-.79943-4.964911-1.46069-9.26145-1.46947-9.547883-.008-.28643-.42648-.520787-.92826-.520787-.68562 0-.8374 1.035568-.61082 4.167946.29839 4.125882-.75081 8.331089-2.07874 8.331089-.36068 0-1.25029-.318225-1.97691-.707051-1.08271-.579442-1.19959-1.026754-.64761-2.478548.37048-.974332.46813-2.609152.2171-3.632911-.54779-2.234177-3.039114-5.588525-4.190459-5.642104-1.274313-.05926-1.823223 5.539455-1.44455 14.733829.256878 6.236668.105341 8.807414-.598369 10.156068-.518225.993153-.944158 2.508804-.946515 3.368104-.0043 1.387614.342503 1.562388 3.096061 1.562388 2.508431 0 3.257392-.298274 3.923082-1.562388zm35.16084-3.830492c1.04695-1.056735 1.22261-2.714799 1.26897-11.978236.0618-12.360901.0315-12.43009-5.6975-12.465619-5.95937-.03699-6.29753 1.43426-3.70578 16.122502l1.68472 9.547888h2.61721c1.58018 0 3.09866-.485986 3.83238-1.226535zm6.20736-6.238187c-.17471-.668333-.31755-.121434-.31755 1.215202 0 1.336691.14284 1.883536.31755 1.215182.17472-.668349.17472-1.76203 0-2.430384zM71.396794 22.331326c0-3.000205 1.628559-5.088999 3.967741-5.088999.936072 0 1.480831-.305002 1.240185-.694395-.236022-.381932-3.144883-.695045-6.464095-.695851l-6.034939-.0015.232913 4.51501.232874 4.514987h6.825408zm28.470027.900125c0-.907055.195259-2.625682.433979-3.819155.43085-2.154205.41287-2.169969-2.476013-2.169969-1.600498 0-3.543519-.33904-4.317815-.753448-1.548619-.828791-4.750399-.312046-4.750399.766674 0 .374652.555411.68117 1.234259.68117 2.403138 0 4.320861 2.02071 4.320861 4.552897 0 2.326574.07476 2.390998 2.777562 2.390998 2.460814 0 2.777566-.187975 2.777566-1.649167z"/></svg>