<svg xmlns="http://www.w3.org/2000/svg" viewBox="0 0 90 90"><path d="M42.48 82.25a13.758 13.758 0 0 1-.088-1.161c-.031-.73-.252-.913-1.273-1.059-1.232-.176-1.234-.18-1.34-2.205-.086-1.642-.002-2.028.44-2.028.7 0 .712-.567.019-.833-.383-.147-.53-.745-.53-2.155 0-1.846.048-1.95.882-1.95h.882V60.387l-.882-.402c-.749-.341-.882-.64-.882-1.976 0-.866.17-1.68.379-1.808.237-.147.105-.426-.353-.747-.599-.42-.731-.887-.731-2.584 0-1.88.073-2.083.794-2.185.716-.102.804-.335.9-2.406.059-1.26.257-2.444.441-2.628.55-.551.415-5.685-.162-6.164-.306-.253-.664-1.828-.933-4.1-.446-3.764-1.04-4.964-1.04-2.1 0 .872-.088 1.587-.194 1.587-.75 0-2.276-1.189-2.276-1.773 0-.773-.535-.945-.798-.256-.092.243.607 2.584 1.554 5.203.947 2.619 1.65 4.952 1.56 5.184-.089.232-.824.62-1.634.863-1.33.398-1.52.377-1.96-.224-.458-.628-.486-.614-.486.253 0 .8-.44 1.157-3.381 2.742-1.86 1.003-3.46 1.746-3.554 1.651-.094-.094-.005-.777.2-1.517.36-1.303.289-1.486-2.18-5.644-1.829-3.083-2.866-4.47-3.67-4.902-1-.54-1.08-.694-.74-1.439.555-1.217-.302-10.078-1.168-12.077l-.662-1.528 1-1.294c.55-.712 1.827-3.247 2.837-5.635 1.7-4.021 1.805-4.433 1.426-5.58-.225-.681-.353-1.286-.285-1.344.068-.058 1.671.611 3.563 1.487 2.539 1.176 3.44 1.764 3.44 2.246 0 .784 1.24.9 1.53.144.16-.414.665-.297 2.682.617 1.368.62 2.487 1.253 2.488 1.408.001.154-.704 1.958-1.568 4.007-1.44 3.416-1.528 3.792-1.057 4.51.282.43.407.89.277 1.02-.13.13-.054.236.17.236s.65-.58.946-1.291l.54-1.291.875.822c.481.452.928.755.993.674.066-.082.582-1.234 1.148-2.56l1.03-2.412 1.232.198c.677.11 1.286.361 1.352.56.156.47 1.378.47 1.534 0 .066-.199.675-.45 1.352-.56l1.232-.198 1.03 2.412c.566 1.326 1.082 2.478 1.148 2.56.065.081.512-.222.993-.674l.875-.822.54 1.291c.296.71.722 1.291.946 1.291.224 0 .3-.106.17-.236-.13-.13-.006-.59.277-1.02.47-.718.383-1.094-1.057-4.51-.864-2.05-1.57-3.853-1.568-4.007 0-.155 1.12-.788 2.488-1.408 2.017-.914 2.523-1.03 2.681-.617.29.757 1.532.64 1.532-.144 0-.482.9-1.07 3.44-2.246 1.89-.876 3.494-1.545 3.562-1.487.068.058-.06.663-.285 1.344-.379 1.147-.273 1.559 1.426 5.58 1.01 2.388 2.286 4.923 2.837 5.635l1 1.294-.662 1.528c-.866 1.999-1.723 10.86-1.168 12.077.34.745.26.899-.74 1.439-.804.433-1.841 1.819-3.67 4.902-2.469 4.158-2.54 4.341-2.18 5.644.204.74.294 1.423.2 1.517-.095.095-1.694-.648-3.554-1.65-2.941-1.586-3.381-1.943-3.381-2.743 0-.867-.028-.881-.487-.253-.44.6-.629.622-1.959.224-.81-.243-1.545-.631-1.634-.863-.09-.232.613-2.565 1.56-5.184.947-2.619 1.646-4.96 1.554-5.203-.263-.689-.798-.517-.798.256 0 .584-1.526 1.773-2.276 1.773-.107 0-.194-.715-.194-1.588 0-2.863-.594-1.663-1.04 2.101-.269 2.272-.627 3.847-.933 4.1-.577.479-.712 5.613-.162 6.164.184.184.382 1.367.44 2.628.097 2.071.185 2.304.901 2.406.72.102.794.305.794 2.185 0 1.697-.132 2.165-.731 2.584-.458.32-.59.6-.353.747.208.128.379.942.379 1.808 0 1.337-.133 1.635-.882 1.976l-.882.402v10.47h.882c.834 0 .882.105.882 1.951 0 1.41-.147 2.008-.53 2.155-.693.266-.68.833.018.833.443 0 .527.386.441 2.028-.106 2.025-.108 2.03-1.34 2.205-1.098.157-1.235.294-1.235 1.235v1.058l-2.558.104c-1.407.057-2.58-.022-2.607-.176z"/></svg>