<svg xmlns="http://www.w3.org/2000/svg" viewBox="0 0 90 90"><path d="M30.684 77.456c-1.056-1.803-1.382-2.107-2.26-2.112-.563-.003-1.555-.41-2.204-.905l-1.18-.9v-3.365c0-3.061.072-3.424.794-4.018l.793-.653-2.734-2.763-2.734-2.763V34.575l2.646-2.628c1.455-1.445 2.646-2.81 2.646-3.035 0-.223-.238-.604-.53-.845-.39-.324-.528-1.186-.528-3.287 0-2.61.079-2.931.948-3.838.52-.544 1.174-.99 1.45-.99.278 0 1.439-.809 2.58-1.798l2.077-1.799v-4.163h17.516l.829-.882c.717-.764 1.133-.882 3.097-.882 1.905 0 2.437.141 3.317.882.576.485 1.493.882 2.036.882.846 0 1.437.589 4.118 4.107l3.13 4.107-.076 1.978a10.267 10.267 0 0 0 .633 3.885c.628 1.69.77 3.585 1.25 16.675l.543 14.768-1.482 5.07-1.482 5.07 1.14 3.421c.628 1.883 1.004 3.546.837 3.697-.168.151-1.04.518-1.94.816l-1.635.54-1.454-3.933c-.8-2.163-1.453-4.171-1.452-4.462.002-.29.664-2.512 1.472-4.936l1.468-4.407-.425-12.703c-.233-6.987-.511-13.298-.617-14.026l-.193-1.323h-3.973l2.017 2.039 2.018 2.039v25.363l-2.734 2.762-2.734 2.761.97.716c.93.685.97.844.97 3.791 0 3.017-.023 3.099-1.163 4.204-.778.755-1.51 1.128-2.212 1.128-.917 0-1.194.265-2.212 2.117l-1.164 2.116-10.47-.005-10.472-.005z"/></svg>