<svg xmlns="http://www.w3.org/2000/svg" viewBox="0 0 180 90"><path d="M86.124 84.798c-1.655-.677-1.842-.88-2.59-2.807-.797-2.056-.798-2.092-.157-3.515.49-1.087.541-1.474.209-1.585-1.338-.445-2.084-5.471-.952-6.41.43-.357.527-1.511.527-6.233 0-5.763-.005-5.8-.88-6.487-.803-.632-.878-.927-.878-3.436 0-2.725-.009-2.753-1.23-3.684-.677-.516-1.23-1.157-1.23-1.424 0-.659-5.175-4.398-6.11-4.413-.41-.007-1.2-.383-1.753-.836-.573-.469-1.287-.75-1.659-.652-.359.093-1.133.003-1.72-.202-.927-.323-1.184-.262-1.978.474l-.912.845-2.339-.951c-2.31-.94-2.453-.952-11.606-1.05l-9.268-.1-1.89 1.067c-3.047 1.72-5.063 1.188-5.063-1.335 0-.953-.127-1.115-.872-1.115-.637 0-.932-.237-1.093-.879-.18-.721-.434-.879-1.413-.879h-1.192v-3.867h1.24c.997 0 1.303-.17 1.572-.879.235-.617.599-.879 1.222-.879.545 0 .888-.199.888-.515 0-.599 1.058-1.243 2.043-1.243.428 0 .847-.393 1.12-1.05l.434-1.05 12.88-.093 12.878-.092.095-1.054c.08-.88.033-.953-.28-.44-.208.338-.696.615-1.086.615-.39 0-1.029.172-1.42.381-1.144.613-14.756-.196-15.15-.9-.164-.294-.761-.535-1.326-.535-.863 0-1.076-.184-1.33-1.143-.283-1.066-.32-1.09-.562-.352-.293.899-1.54 1.064-2.676.355-.556-.347-.84-.347-1.397 0-.426.266-1.977.437-3.977.437-3.133 0-3.32-.044-4.223-.987-.719-.75-.945-1.339-.945-2.46v-1.475h3.164c2.578 0 3.164-.098 3.164-.528 0-.43-.586-.527-3.164-.527h-3.164v-2.224c0-1.87.13-2.345.814-2.988.724-.681 1.202-.765 4.373-.765 1.995 0 3.656.155 3.778.352.12.193.99.352 1.933.352.944 0 1.822.17 1.95.377.146.236.424.104.744-.352.28-.4.739-.729 1.018-.729s.507-.158.507-.351c0-.194-.237-.352-.527-.352-.866 0-.666-1.932.263-2.549.71-.471.781-.77.693-2.91-.084-2.048.01-2.5.672-3.203 1.026-1.093 2.75-1.39 4.078-.703 1.144.592 2.204 1.98 2.204 2.887 0 .406.182.506.615.339 2.112-.817 4.307-.391 4.307.836 0 .551.327.739 1.633.935.898.134 2.282.104 3.076-.068s2.392-.21 3.552-.086c1.16.125 3.158.244 4.439.265 2.318.038 2.33.033 2.54-1.016.185-.927.358-1.055 1.42-1.055.666 0 1.272.185 1.348.41.165.496 5.309.419 5.488-.082.158-.442 4.179-.42 4.453.024.123.2 1.885.351 4.082.351 3.544 0 3.973.073 5.159.88.711.483 1.5.878 1.752.878s.767.721 1.145 1.603l.687 1.602 1.146-.87c.96-.728 1.55-.872 3.63-.89 1.773-.014 2.83.166 3.693.628.665.357 1.854.758 2.642.89 1.602.271 2-.015 2.41-1.732.576-2.415 2.104-2.897 4.072-1.283 1.65 1.353 3.418 1.636 5.832.935 1.872-.544 1.976-.538 3.148.186.928.573 1.307 1.124 1.614 2.343l.401 1.595 1.09-1.295 1.09-1.294 5.01.197 9.933.392 4.922.194.527 1.019c.66 1.275.659 3.415 0 4.57-.402.702-.508 2.89-.527 10.898-.03 12.155.168 11.601-4.14 11.601-1.536 0-3.535-.101-4.441-.226-1.451-.199-1.707-.367-2.143-1.41-.634-1.518-1.492-1.867-2.242-.911-.314.4-.887.78-1.273.848-.419.072-1.486 1.288-2.637 3.002-1.607 2.394-2.212 3.002-3.58 3.601-.907.397-2.044.721-2.529.721-.484 0-.979.158-1.098.352-.12.193-.505.351-.857.351-.351 0-.828.228-1.06.506-.23.279-.744.556-1.14.616-.463.07-.864.538-1.118 1.307-.371 1.125-.568 1.245-3.226 1.967-3.544.963-4.22.766-4.799-1.395-.309-1.155-.604-1.595-1.069-1.595-.353 0-1.042-.262-1.531-.582-.837-.548-.884-.739-.802-3.252.05-1.559-.086-2.989-.33-3.437-.228-.423-.416-1.078-.416-1.457s-.237-.78-.527-.89c-.29-.112-.527-.631-.527-1.154v-.952l-.814.765c-.75.704-1.175.764-5.388.764-4.425 0-4.601-.029-5.4-.879-.454-.483-1.114-.879-1.467-.879-.613 0-.642.753-.642 16.28 0 13.771.08 16.387.516 16.964.329.435.52 1.521.527 2.996.01 2.091-.07 2.357-.837 2.767-.827.443-.835.49-.332 1.905.493 1.391.474 1.538-.464 3.509-.816 1.713-1.257 2.197-2.644 2.9-1.956.991-2.033.992-4.35.044zm41.123-42.18c1.987-1.778 3.709-4.253 3.51-5.045-.107-.427-.023-1.098.187-1.49.335-.626.186-.856-1.2-1.851-1.56-1.12-1.583-1.167-1.583-3.146 0-1.755-.111-2.082-.88-2.585-.658-.432-.878-.882-.878-1.798 0-1.114-.09-1.223-1.017-1.223-.58 0-1.104-.227-1.22-.527-.592-1.545-3.388.44-3.388 2.407 0 1.546-.547 1.987-2.46 1.987-2.365 0-2.577.462-1 2.17.735.796 1.537 1.9 1.781 2.452.245.552.638 1.003.874 1.003s.612.356.836.791c.223.436.818 1.232 1.32 1.77.502.54.93 1.251.952 1.583.02.331.065 1.2.098 1.932.042.924.247 1.387.675 1.52.339.104.853.327 1.143.495.845.49 1.31.398 2.25-.444zM105.295 35c.199-.372.61-.925.916-1.23.505-.506.504-.728-.008-2.489-.648-2.227-1.458-2.672-1.122-.615.138.845.011 1.854-.354 2.812-.547 1.439-.625 1.494-2.081 1.494h-1.513l.543-1.593c.336-.987.456-2.058.314-2.813l-.229-1.219h-4.89v2.307c0 1.64.178 2.552.616 3.153.575.792.833.847 4.03.858 3.016.01 3.458-.068 3.777-.665zm18.133-18.22c-.333-1.826-.931-2.39-1.954-1.843-.476.255-1.681.367-3.024.282-2.183-.14-2.222-.127-1.758.577.297.45.94.76 1.716.826.682.06 1.52.415 1.86.791.415.458 1.078.684 2.01.684h1.39zm-67.984-4.571c-.142-1.895-.546-2.552-1.182-1.916-.328.328-.328.515 0 .843.232.233.422.786.422 1.231 0 .633-.195.809-.9.809-.51 0-.805.152-.682.351.12.193.723.352 1.342.352h1.124z"/></svg>