<svg xmlns="http://www.w3.org/2000/svg" viewBox="0 0 180 90"><path d="M71.468083 85.170897c-.731022-.731021-1.330966-2.001994-1.333209-2.824377-.0019-.822386-.429087-2.309892-.948505-3.305586-.547918-1.050285-1.034464-4.326748-1.158885-7.804186-.117952-3.296627-.438753-5.995822-.712885-5.998214-.274135-.0019-.498424.294722-.498424.660208 0 .3655-1.345728.664563-2.9905.664563-1.644781 0-2.99051-.263588-2.99051-.585708 0-.32213-.866417-1.443579-1.925373-2.492092-1.058955-1.048513-2.03087-2.476119-2.15981-3.172495-.195436-1.055485-.385419-.944926-1.142145.66456-.499243 1.061868-1.129138 2.379235-1.399768 2.927508-.378205.766157-2.026773 1.040378-7.124107 1.185013-6.597009.18728-6.643856.200337-8.865089 2.492094-2.207237 2.277287-2.299076 2.303908-7.950762 2.303908-3.561053 0-6.018533-.3008-6.515204-.797482-.438608-.4386-.797465-2.232906-.797465-3.987328v-3.189886h-5.706267l-2.230343-4.670086c-2.798174-5.859051-3.260742-10.078724-1.45501-13.272943.723188-1.279255 1.819983-3.450108 2.437328-4.824083 1.122056-2.497292 2.842715-3.469512 5.369754-3.034076 1.070121.184421 1.300585-.315852 1.584538-3.439297l.332276-3.655066 6.842135-.189714c6.000405-.166336 7.075838-.02337 8.741824 1.162971 1.586639 1.129781 2.928627 1.352707 8.143615 1.352707 6.599863 0 7.838867.480817 7.838867 3.042045 0 .795898.448572 1.819376.996831 2.274404.858823.712748.996836.445721.996836-1.928748 0-2.214594.29378-2.888988 1.495254-3.432685.82239-.372159 2.242877-1.120116 3.156645-1.662137 1.665492-.987912 5.230673-.809745 5.947965.297239.200926.31007 4.402495-.457684 9.336839-1.706123 4.934324-1.248439 9.569614-2.128901 10.300614-1.956553.73102.172367 2.00199.521902 2.824373.776778 1.125126.348726 1.495255.197514 1.495255-.610891 0-.590886.494925-1.074341 1.099831-1.074341 1.0234 0 1.0234-.08439 0-1.215304-1.206133-1.332776-1.491436-5.109796-.435272-5.762546 1.767441-1.092344.188926-1.661396-4.608632-1.661396-5.951902 0-9.372025.905421-8.126166 2.151273.425037.425038.772786 1.43938.772786 2.254096 0 1.22689-.639114 1.667129-3.720643 2.562943-5.015385 1.45801-6.522427 1.178814-6.800549-1.259854-.121324-1.063678-.632217-2.562247-1.135354-3.330151-.888451-1.355923-.945306-3.666891-.140146-5.701073.216964-.548275.536519-2.46736.710094-4.2646399.233118-2.4141231.724256-3.5821253 1.879937-4.4709878 2.522781-1.9403318 4.327145-1.5180476 7.510889 1.7577764l2.906429 2.9905044h5.608828c6.58401 0 9.285788.7859709 10.836308 3.1523779l1.1295 1.723831 1.00462-1.939693c1.243609-2.4011069 1.988519-2.9134019 4.255109-2.9263429 1.24606-.0076 2.22913.6173719 3.26754 2.0756829 1.30443 1.831922 1.38902 2.337567.6947 4.153476-.69646 1.821524-.63551 2.172869.51225 2.951882 2.03868 1.383713.92494 2.697973-2.69308 3.177922-1.80555.239523-3.17704.619708-3.04773.844876.12924.225167.60912 1.353819 1.06625 2.508125.87286 2.20397 3.1434 3.267987 5.42705 2.543201.68611-.217783 1.82294-.08798 2.52627.288429 1.07501.575344 2.79969-.401152 10.82413-6.128472 5.24999-3.747089 11.00702-7.663807 12.79345-8.703843 1.78645-1.040035 4.17544-2.777203 5.30887-3.8603789 2.17422-2.077774 5.74481-3.8484162 7.76061-3.8484162 1.18003 0 4.22179 3.4954902 3.59079 4.1264632-.76167.7616699 1.88258 5.2702579 4.17558 7.1195679 1.37408 1.108228 3.54503 3.35614 4.8243 4.995371 1.4815 1.898362 2.86031 2.989561 3.79781 3.005574 3.20616.05481 3.40455 5.619003.3619 10.148314-1.62485 2.418738-1.76329 2.478078-5.53834 2.374036-3.73157-.102854-4.10086.04804-10.19366 4.164814-3.47699 2.349344-6.3328 4.641324-6.34627 5.09332-.0505 1.69416-4.1588 2.6288-10.15671 2.310629-6.33936-.336287-7.81077.206729-7.81077 2.882506 0 .842898-.38166 1.92771-.84812 2.410715-.46645.482982-1.31882 2.096329-1.89412 3.585215-1.01361 2.623165-.99764 2.763319.51584 4.522811 1.97805 2.299627 1.98613 4.434141.024 6.277705-2.04818 1.924114-3.64505 1.82137-5.94551-.382558-1.7061-1.634577-2.39405-1.827535-6.51577-1.827535-3.24358 0-4.60825.246021-4.60825.830695 0 .538496 1.02691.830688 2.91939.830688 3.02294 0 4.44181 1.327464 3.12053 2.919526-.39583.476919-.38362 1.905768.0329 3.858777.54625 2.561155.46679 3.398532-.45615 4.807111-1.47205 2.246623-5.63579 2.433639-7.04166.316289l-.92254-1.389424-3.893109 1.721699c-3.3699 1.490318-4.816 1.721724-10.759938 1.721724h-6.866819l-1.855864 2.325926C78.704515 86.176269 78.053159 86.49998 75.621873 86.5c-1.938318.000016-3.241328-.416959-4.153476-1.329082zm20.879162-11.700851c2.168216-.83203.907889-1.326562-3.556072-1.395361-3.705793-.0571-4.537054.111912-4.248515.863865.371538.968249 5.717717 1.332311 7.804587.531496zM70.803524 53.627824c0-.850548-1.879958-2.349324-2.946827-2.349324-.206768 0-.37597.74762-.37597 1.661387 0 1.329118.332287 1.661397 1.66139 1.661397 1.016034 0 1.661402-.378126 1.661407-.97346zm62.509656-13.079163c1.6675-.494941 5.27676-2.619436 8.02055-4.721095 2.74379-2.101661 5.26711-3.822326 5.60738-3.823703.34029-.0014 1.59777-.599419 2.79438-1.329008l2.17571-1.326522-3.75147-4.98428c-2.06331-2.741338-4.16379-4.984263-4.66778-4.984263-.50398 0-.91632-.309579-.91632-.687939 0-.443914-.41255-.472132-1.16298-.0795-.63963.334597-2.06011.492497-3.15665.350893-1.63613-.211301-3.33438.700919-9.46993 5.086854-4.30247 3.075596-7.47625 5.806005-7.47625 6.431856 0 .598156-.48468 1.623104-1.07707 2.2777-1.00081 1.105855-.95375 1.336712.66456 3.259961.95788 1.138389 1.74163 2.744634 1.74163 3.569447 0 .824797.22281 1.722436.49509 1.994736.66458.664599 6.42691.07874 10.17915-1.035062zm-40.363124-3.996856c1.088525-.202655 1.020311-.476578-.66454-2.668981-1.976354-2.571664-4.066055-3.870136-6.228465-3.870136-1.613026 0-1.703955 1.218449-.134891 1.807206 1.777064.666802 2.779899 2.298629 2.803238 4.561467.02784 2.697425.730193 3.29609 1.989369 1.695649.562249-.714651 1.568134-1.400989 2.235274-1.525205zm4.768005-15.852011c0-1.424479-1.93099-1.218732-2.21107.235586-.17105.888108.0997 1.158771.98774.987743.67283-.129606 1.22333-.680085 1.22333-1.223329z"/></svg>