<svg xmlns="http://www.w3.org/2000/svg" viewBox="0 0 90 90"><path d="M38.474 80.072c-.526-1.016-.643-1.059-2.902-1.059-1.503 0-3.396-.318-5.24-.88l-2.886-.88-.411-1.678a70.5 70.5 0 0 0-.596-2.294c-.141-.476.024-.618.722-.618.715 0 .906-.174.906-.827 0-1.049-1.03-1.995-2.171-1.995-.485 0-1.227-.367-1.648-.816-.741-.789-.767-1.09-.767-8.765 0-7.252.056-8 .645-8.532.355-.321.83-.584 1.058-.584.262 0 .413-.66.413-1.801 0-1.501-.147-1.917-.882-2.495l-.882-.694v-8.386c0-7.677.055-8.436.645-8.97.355-.322 1.176-.585 1.825-.585 1.665 0 2.509-.83 1.987-1.954-.22-.474-.519-.863-.664-.865-.146-.001-.265-.949-.265-2.105v-2.103l1.411-.423c1.183-.354 1.411-.573 1.411-1.353 0-.613.458-1.378 1.338-2.237l1.338-1.307h8.966v-2.822h-3.566l.107-1.646c.1-1.525.198-1.679 1.342-2.09 1.626-.584 8.958-.584 10.584 0 1.144.411 1.242.565 1.342 2.09l.107 1.646h-3.566v2.822h9.029l1.306 1.338c.816.835 1.307 1.676 1.307 2.237 0 .744.244.973 1.41 1.322l1.412.423v2.103c0 1.156-.12 2.104-.265 2.105-.145.002-.444.39-.664.865-.528 1.138.327 1.954 2.049 1.954 2.342 0 2.408.262 2.408 9.616v8.325l-.882.694c-.735.578-.882.994-.882 2.495 0 1.273.139 1.801.474 1.801.261 0 .737.29 1.059.645.506.56.583 1.692.583 8.582 0 7.84-.01 7.946-.816 8.703-.45.422-1.218.767-1.71.767-1.065 0-2.06.993-2.06 2.057 0 .587.212.765.906.765.698 0 .863.142.722.618a70.29 70.29 0 0 0-.595 2.29l-.41 1.674-2.799.884c-1.865.59-3.614.884-5.241.884-2.357 0-2.461.038-2.99 1.059l-.547 1.058H39.02Z"/></svg>