<svg xmlns="http://www.w3.org/2000/svg" width="180mm" height="90mm" viewBox="0 0 180 90"><path d="M79.379 81.766c-6.565-4.524-12.137-8.423-12.383-8.665-.762-.751 1.13-3.11 2.258-2.815.808.211.876.13.387-.46-.471-.568-.409-.921.297-1.702 1.063-1.174 2.13-1.248 3.56-.247 1.017.713 1.061.665 1.278-1.368.168-1.574-.006-2.364-.694-3.132-2.051-2.29-1.45-3.693 6.786-15.823 4.239-6.242 7.583-11.55 7.43-11.796-.151-.246-.933-.446-1.738-.446-1.332 0-1.462.15-1.462 1.69 0 1.544-.163 1.73-1.862 2.132-1.258.297-1.918.757-2.036 1.417-.31 1.729-3.13 4.13-6.378 5.43-3.142 1.258-3.258 1.266-18.05 1.266h-14.89l-1.327-1.74-1.328-1.741h-5.626c-5.19 0-5.651.077-5.942.994-.265.834-.753.995-3.018.995-2.55 0-2.701-.07-2.701-1.243 0-1.043-.235-1.244-1.457-1.244-1.49 0-2.5-.734-3.856-2.805-.565-.861-1.23-1.173-2.502-1.173-1.284 0-2.093-.387-3.126-1.492-1.295-1.387-1.643-1.492-4.924-1.492h-3.53V6.504l3.357.012c5.084.024 6.092.308 6.092 1.73 0 1.09.205 1.203 2.178 1.203 1.978 0 2.346-.206 4.011-2.238 1.755-2.141 1.948-2.238 4.475-2.238 1.801 0 2.849-.25 3.294-.786.517-.623 1.227-.72 3.418-.47 1.52.175 7.352.483 12.96.685l10.194.367 8.65 3.595c7.84 3.259 8.73 3.525 9.488 2.838.6-.543 1.938-.758 4.706-.758 3.517 0 3.955-.111 4.83-1.225.53-.674 1.588-1.67 2.351-2.213l1.388-.987 6.308 2.464c6.165 2.408 6.348 2.447 8.1 1.715 1.078-.45 3.342-.749 5.674-.749 2.809 0 3.926-.182 4.043-.659.088-.362 1.634-2.031 3.435-3.71l3.275-3.052 1.897 1.943c1.862 1.906 1.882 1.967 1.065 3.213-.82 1.254-.814 1.27.508 1.27.737 0 1.754-.375 2.261-.833.682-.617 1.066-.689 1.48-.275.414.413.814.235 1.54-.689.54-.686 1.267-1.138 1.615-1.004.358.138 1.632-1.042 2.924-2.705L130.352 0h2.77c3.93 0 6.759 1.967 7.94 5.522l.845 2.547-2.071 2.937c-1.14 1.615-1.936 3.157-1.77 3.425.166.269 1.811.488 3.656.488 3.173 0 3.444-.093 5.023-1.721.917-.947 1.89-1.584 2.162-1.416.271.168 1.075-.4 1.786-1.262l1.292-1.566 2.61 1.83c1.437 1.005 2.612 2.103 2.612 2.438 0 .343.393.507.899.374.727-.19 1.388.794 3.46 5.144l2.56 5.38-1.808 1.091c-2.295 1.385-2.756 2.227-2.127 3.881.309.812.327 1.635.047 2.132-.345.614.536 2.25 3.657 6.798 6.26 9.122 8.725 13.663 8.725 16.075 0 1.53.224 2.103.91 2.32.77.244 1.755 2.153 3.91 7.578.13.324-.617 1.026-1.658 1.56-1.631.837-1.965 1.306-2.405 3.38-.48 2.263-.675 2.49-3.244 3.754-3.223 1.587-3.862 1.668-5.005.633-.786-.71-1.318-.545-6.372 1.99l-5.514 2.765h-37.776l-1.202-1.77-1.203-1.77-1.094 1.77c-.746 1.208-1.461 1.77-2.25 1.77-.833 0-1.555.631-2.57 2.248-1.61 2.56-4.27 3.725-6.178 2.704-.817-.438-1.222-.389-1.906.23-.478.433-1.41.796-2.072.808-.922.018-1.638.718-3.053 2.984C92.92 88.68 91.914 90.007 91.7 90c-.214-.006-5.76-3.714-12.324-8.237zm72.345-8.941a23.967 23.967 0 0 0-1.028-2.29c-.967-1.807-.146-4.115 1.792-5.039.955-.455 1.735-1.034 1.735-1.286 0-.253-.671-1.956-1.492-3.784-1.253-2.793-1.492-3.958-1.492-7.27 0-3.532-.185-4.313-1.772-7.463-1.539-3.057-1.914-3.48-2.86-3.227-.597.16-1.773.295-2.61.298-1.25.006-1.675.321-2.355 1.748-.852 1.787-1.173 1.965-2.565 1.431-.698-.268-.76-.95-.472-5.134l.332-4.826-1.681-.685c-.925-.377-1.916-.995-2.204-1.373-.296-.39-1.14-.616-1.95-.52-1.17.136-2.132 1.13-5.294 5.463l-3.866 5.296 1.45 5.147c.798 2.83 1.457 5.535 1.465 6.01.006.474-2.324 4.262-5.183 8.419l-5.197 7.556.829 1.403.828 1.403h34.075zm-28.352-17.459c.036-1.212-1.163-5.632-1.53-5.632-.768 0-1.105 1.23-.996 3.634.094 2.048-.017 2.411-.66 2.164-.489-.187-.774-.024-.774.45 0 .41.336.874.746 1.031.41.158.747.654.748 1.104.001.576.363.377 1.225-.675.673-.82 1.231-1.755 1.241-2.076zM93.267 16.97c.15-.241 1.483-.59 2.963-.775 2.02-.253 2.751-.564 2.93-1.25.211-.806.06-.86-1.314-.468-.854.245-4.45.446-7.991.446-5.766 0-6.338.076-5.474.729.6.453 1.543.627 2.491.459.86-.152 2.27.053 3.232.473 2.03.885 2.797.978 3.163.386zm21.651-1.517c.78-1.456.696-1.525-1.847-1.517-4.816.018-4.61 2.168.23 2.421.625.036 1.326-.36 1.617-.904z"/></svg>