<svg xmlns="http://www.w3.org/2000/svg" width="180mm" height="90mm" viewBox="0 0 180 90"><path d="M153.422 80.244l-5.96-4.064-3.664-.087c-3.908-.092-9.203-1.517-10.084-2.715-.418-.567-.567-.54-1.106.2-.707.972-9.529 5.02-10.94 5.02-.51 0-1.14.398-1.4.885-.382.715-.926.884-2.836.884-2.177 0-2.403-.098-2.881-1.252-.67-1.617-7.795-6.861-8.922-6.566-.903.236-1.008-.004-1.698-3.879-.257-1.448-.617-2.758-.798-2.912-.182-.154-2.718-.52-5.636-.815-8.01-.81-8.087-.83-8.403-2.272-.262-1.192-.413-1.259-3.452-1.52-1.748-.152-5.583-.377-8.52-.502-4.484-.191-5.435-.117-5.914.46-.427.515-1.442.687-4.053.687H63.67v-1.978c0-3.05.833-3.313 10.7-3.394 4.451-.037 7.545-.15 6.876-.25-.668-.102-1.216-.37-1.216-.598 0-.249-7.513-.412-18.958-.412-16.313 0-19.036.092-19.51.663-.448.54-1.885.663-7.709.663h-7.159l-1.27 1.327-1.271 1.326h-5.84c-4.782 0-5.885-.12-6.093-.663-.287-.746-1.854-.899-2.272-.221-.696 1.126-7.296-.054-7.296-1.304 0-.256-.597-.465-1.327-.465H0V45.495l1.216-.184 1.216-.185-1.216-.066L0 44.994V31.328l1.933-.855c1.063-.47 2.07-1.076 2.237-1.347.39-.63 6.29-.654 6.678-.026.191.31.64.236 1.337-.221.8-.524 2.294-.687 6.288-.687h5.238l1.271 1.326 1.271 1.327h6.923c6.362 0 6.989.071 7.724.884.775.856 1.362.884 18.266.884 17.437 0 17.464 0 16.665-.884-.7-.774-1.362-.884-5.288-.884h-4.487l-1.413-1.458c-.82-.846-1.414-1.92-1.414-2.557 0-1.013.246-1.145 3.141-1.68 2.279-.422 3.274-.448 3.626-.096.267.266 1.34.485 2.386.485h1.901v-7.395l2.682-.432c2.436-.392 6.962-.068 8 .574.205.127.372 1.611.372 3.3v3.068h3.08c2.627 0 3.15-.13 3.553-.884.26-.486.886-.884 1.391-.884.793 0 .883-.196.663-1.437-.928-5.236-.89-5.872.411-6.725 1.166-.764 5.55-1.214 6.135-.63.134.134.47 1.42.745 2.86.277 1.438.724 2.84.995 3.116.271.276 1.451.601 2.623.723l2.13.222-.291-2.719-.291-2.719 1.834-1.03c1.345-.757 2.352-.99 3.776-.877 2.183.173 2.727-.554 1.948-2.604-.334-.878-.258-1.242.36-1.728 1.744-1.371 2.48-1.57 4.767-1.284 2.265.283 2.348.345 3.081 2.263.747 1.957.745 1.979-.281 2.81-.767.62-1.16 1.597-1.518 3.775l-.484 2.938 1.258.252c.845.169 1.257.523 1.257 1.08 0 .77.426.83 5.915.83 4.719 0 6.027.133 6.466.663.302.364 1.21.663 2.015.663 1.31 0 1.758.378 4.202 3.537l2.736 3.537h2.156c1.966 0 2.156-.09 2.156-1.035 0-.73.456-1.282 1.547-1.87 1.76-.947 1.916-1.34.69-1.729-.473-.15-1.713-1.738-2.757-3.529-1.045-1.791-2.063-3.155-2.263-3.032-.2.124-1.856-.918-3.68-2.316l-3.317-2.54-1.632.91c-1.532.853-1.736.866-3.326.225l-1.694-.682 2.578-2.626c1.418-1.444 3.498-3.403 4.621-4.353l2.043-1.728 2.327.691c3.267.97 7.073 3.569 7.073 4.829 0 1.069 3.52 4.636 4.574 4.636.338 0 1.152.812 1.808 1.804.657.992 1.85 2.077 2.65 2.412.89.371 1.673 1.13 2.013 1.951.502 1.213.414 1.668-.902 4.663-1.07 2.435-1.68 3.32-2.29 3.32-1.357 0-.475.765 1.77 1.535 2.017.693 2.25.965 6.295 7.344 3.333 5.256 4.724 7.036 6.733 8.62 3.56 2.81 3.88 3.187 3.88 4.598 0 .788.581 1.95 1.567 3.13L180 57.505l-1.18 1.231c-1.005 1.049-1.135 1.472-.877 2.845.218 1.165.098 1.926-.435 2.739-.405.618-.893 1.668-1.083 2.332-.49 1.711-8.707 12.726-9.737 13.053-.47.149-1.27.856-1.78 1.571-.686.963-1.283 1.3-2.304 1.3-.76 0-1.792.389-2.3.866-.92.865-.924.864-6.882-3.199z"/></svg>