<svg xmlns="http://www.w3.org/2000/svg" width="180mm" height="90mm" viewBox="0 0 180 90"><path d="M104.22 82.55c-1.809-.518-2.28-.826-2.737-1.793-.66-1.392-.355-1.292-14.442-4.712-5.578-1.355-10.433-2.717-10.788-3.028-.604-.529-.646-.445-.646 1.305v1.87l-2.758.258c-1.517.142-3.003.165-3.302.05-.299-.115-.971-.854-1.493-1.643-.858-1.297-.963-1.853-1.085-5.77-.132-4.248-.157-4.357-1.257-5.499-1.098-1.14-1.132-1.29-1.678-7.325l-.557-6.16.962-2.23c.937-2.173.998-2.23 2.377-2.23.778 0 1.415.165 1.415.368 0 .203.83.369 1.844.369 1.407 0 1.844-.133 1.844-.562 0-.31.415-.72.922-.913.767-.292.918-.586.897-1.743-.021-1.205-.075-1.29-.397-.625-.204.422-.872 1.062-1.484 1.424-1.067.63-1.171.63-2.59-.01-.813-.366-1.624-1.048-1.801-1.516-.43-1.13-1.376-1.08-1.669.086-.129.514-.72 1.186-1.314 1.493-1.41.73-3.278.11-4.157-1.38-.756-1.278-1.594-1.353-1.891-.168-.122.484-.757 1.168-1.412 1.521-1.118.602-1.264.603-2.384.025-.656-.34-1.378-1.024-1.605-1.522-.318-.697-.694-.904-1.644-.904-1.19 0-1.231.049-1.231 1.475v1.476h-7.97l-1.251-1.291c-1.084-1.118-1.485-1.291-3.001-1.291-.963 0-1.853-.166-1.978-.369-.14-.227-3.2-.369-7.952-.369-7.477 0-7.723.024-7.723.738 0 .575-.246.738-1.118.738-.691 0-1.206-.229-1.348-.599-.202-.526-.3-.508-.818.148-.521.66-1.431.819-7.9 1.375l-7.312.628-.895-.84C.006 42.572-.002 42.5 0 35.528c.002-6.793.031-7.072.853-8.099l.85-1.063 7.483.483c6.783.438 7.506.55 7.742 1.188.236.637.308.648.747.12.342-.413 1.121-.586 2.629-.586 1.819 0 2.178.111 2.377.737.222.7.558.738 6.458.738 3.75 0 6.314-.147 6.45-.369.126-.203 1.182-.369 2.348-.369 1.937 0 2.226-.11 3.37-1.29l1.25-1.291h3.986c3.336 0 3.984.092 3.984.566 0 .455.147.487.753.163.599-.32 1.009-.244 2.01.374.69.428 1.36 1.101 1.485 1.497.284.894 1.53.945 1.815.074.116-.355.812-1.035 1.547-1.51l1.337-.864 1.151.84c.633.464 1.368 1.143 1.633 1.51.728 1.01 1.435.818 2.98-.806.772-.812 1.595-1.476 1.83-1.476.234 0 1.09.664 1.9 1.476.812.811 1.638 1.475 1.835 1.475.198 0 .615-.493.926-1.096.312-.602.897-1.272 1.3-1.488.466-.249.734-.772.734-1.429 0-1.491 1.035-2.257 3.05-2.257.936 0 1.804-.166 1.93-.369.14-.228 3.43-.369 8.644-.369 7.03 0 8.491-.09 8.875-.553.595-.717 2.44-.717 2.715 0 .164.428.883.553 3.183.553h2.972l1.005-1.746c1.388-2.412 3.379-4.265 4.015-3.737.83.69 1.6.074 1.6-1.279 0-1.206.103-1.297 2.777-2.463 2.32-1.011 2.924-1.144 3.669-.804 1.466.668 2.157 2.072 1.945 3.95l-.186 1.653h1.205c1.11 0 1.303.19 2.445 2.396 1.169 2.261 1.792 2.945 1.792 1.967 0-.237.274-.735.61-1.105.568-.629.544-.825-.37-2.98-1.728-4.068-1.255-4.965 2.797-5.307l2.77-.235 1.736 3.183c1.802 3.307 2.428 3.95 3.56 3.654.882-.231 3.177 1.207 3.488 2.186.223.703.373.62 1.707-.94 1.337-1.565 1.605-1.712 3.118-1.712.91 0 2.018-.193 2.461-.43.443-.235 3.865-2.914 7.604-5.953 3.74-3.038 6.976-5.527 7.192-5.53 2.016-.03 2.458.18 3.409 1.617.77 1.163.908 1.647.61 2.125-.68 1.088.103 2.122 3.818 5.05 1.992 1.57 4.154 3.356 4.805 3.968.952.894 1.288 1.026 1.713.673.43-.357.81-.112 2.05 1.326L180 23.329l-1.353 1.153c-.744.634-1.536 1.577-1.76 2.097-.223.52-2.438 2.542-4.923 4.493l-4.517 3.549.9 1.323.898 1.322-1.278 2.539-1.279 2.538 1.084 1.374c.896 1.134 1.106 1.786 1.209 3.743l.124 2.37-4.724 1.001c-2.597.55-4.791 1.069-4.874 1.152-.084.083-.024.63.133 1.215.25.934.64 1.182 3.215 2.037 2.676.89 2.992 1.1 3.643 2.422.784 1.591.914 3.4.453 6.295-.29 1.828-.267 1.907.656 2.215l.958.32-1.599 1.817-1.599 1.817-4.271-.492-4.272-.492-1.236 1.398c-.68.768-1.345 1.567-1.479 1.774-.291.452-2.49-.328-3.134-1.112-.249-.303-.516-.37-.645-.162-.317.512-2.802-.316-2.802-.934 0-.343-.278-.428-.89-.275-.49.123-1.445-.017-2.121-.311-.677-.294-2.51-.917-4.073-1.383-2.426-.724-2.896-.998-3.198-1.866-.196-.56-.69-1.197-1.097-1.415-.629-.337-.862-.229-1.53.709-.433.608-1.087 1.106-1.454 1.106-.445 0-.74.367-.887 1.107l-.222 1.106h-9.172l-2.649-2.213c-2.96-2.473-3.937-2.749-4.243-1.199-.567 2.872-1.898 7.084-3.73 11.803l-2.041 5.256h-1.241c-.683 0-1.344.166-1.47.368-.284.462-.589.43-3.29-.343zm61.104-53.67c3.686-2.938 4.267-3.876 2.863-4.627-.403-.216-.833-.789-.954-1.273-.123-.49-.675-1.068-1.248-1.305-.564-.234-1.214-.838-1.444-1.342-.23-.504-.923-1.093-1.54-1.308-.81-.282-1.184-.693-1.34-1.469-.118-.592-.536-1.249-.928-1.459-.587-.314-1.075-.103-2.758 1.196-1.125.868-2.122 1.834-2.216 2.147a8.084 8.084 0 0 1-.518 1.219c-.191.357-.244 1.063-.118 1.567.127.505.088.923-.086.93-.174.006-.793.43-1.375.942l-1.06.932.783.832c.53.564.782 1.313.782 2.318 0 1.404.08 1.511 1.47 1.97.809.267 1.742.786 2.075 1.153.421.466.789.57 1.21.346.391-.21.85-.143 1.306.19.395.288.877.38 1.101.21.22-.168 2.017-1.594 3.995-3.17zm-48.04-6.83c0-.992-1.303-2.963-1.96-2.963-.645 0-3.575 2.281-3.879 3.02-.068.165 1.219.3 2.858.3 1.672 0 2.982-.157 2.982-.357z"/></svg>