<svg xmlns="http://www.w3.org/2000/svg" viewBox="0 0 180 90"><path d="M133.854 84.488c-.548-.414-2.685-.497-13.043-.506l-12.387-.01-1.244-.844c-.683-.464-1.57-.844-1.972-.844-.401 0-.906-.177-1.122-.392-.298-.299-.47-.187-.718.464-.384 1.01-1.868 1.615-3.963 1.615-1.45 0-1.473-.018-2.486-2.024-.988-1.957-1.067-2.025-2.345-2.025-1.159 0-1.442-.168-2.273-1.343l-.95-1.343-12.013-.007c-11.58-.006-12.035-.031-12.624-.682-.57-.629-1.04-.675-6.886-.675-6.209 0-6.298-.011-8.323-.969-1.82-.86-2.113-1.141-2.643-2.53l-.597-1.563H35.623l-.97 1.012c-.79.825-1.246 1.013-2.457 1.013-.976 0-1.782.232-2.345.675-.71.559-1.369.675-3.833.675h-2.974l-.861-1.13c-.474-.62-.861-1.38-.861-1.687 0-.424-.316-.558-1.31-.558-1.238 0-1.388-.12-2.7-2.133l-1.39-2.133V37.29l.839-1.43c.461-.788 1.478-1.902 2.26-2.477 1.29-.95 1.654-1.046 3.949-1.046 2.145 0 2.647-.113 3.324-.748.85-.8 2.826-1.187 7.64-1.497 2.614-.168 2.673-.154 3.742.882l1.085 1.052 11.446-.151c6.294-.083 12.237-.255 13.206-.383 1.826-.24 2.443-.725 4.834-3.802.71-.914 1.22-1.172 2.945-1.493l2.087-.388.553-1.663.552-1.664 2.577.2c6.719.522 8.732.795 9.719 1.316.586.31 1.123.734 1.193.943.088.264.518.215 1.421-.162.713-.298 2.218-.541 3.345-.541 1.665 0 2.291.167 3.334.89 1.216.842 1.284.984 1.284 2.7v1.81h1.815c2.022 0 2.74.523 2.74 1.994 0 .65.196.902.76.982.541.077.76-.063.76-.488 0-.327.408-1.021.906-1.542.87-.909 1.037-.946 4.156-.946 3.169 0 3.272.024 4.218 1.012.534.557 1.313 1.013 1.731 1.013.418 0 .855.151.97.337.114.186 1.372.337 2.794.337 2.395 0 2.533-.037 1.864-.505-1.868-1.309-2.878-5.201-1.621-6.244.278-.231.506-.926.506-1.543 0-1.65 1.677-2.872 3.59-2.616 1.384.186 1.416.164 8.012-5.334 5.43-4.526 6.622-5.675 6.622-6.38 0-1.172 2.576-3.702 3.768-3.702.481 0 1.063-.227 1.295-.506.276-.333 1.03-.506 2.206-.506 1.673 0 1.853.083 2.828 1.314 1.24 1.565 1.247 1.63.307 2.63-.733.78-.733.78-.034.78.534 0 .844.401 1.307 1.691.523 1.454 1 1.99 3.406 3.822 1.607 1.224 3.382 2.947 4.17 4.047 1.019 1.423 1.581 1.915 2.188 1.915.65 0 1.222.605 2.816 2.975l2 2.975-1.063 2.003c-.856 1.612-1.245 2.024-1.991 2.11l-.929.107v7.44l2.362 2.585 2.361 2.586v5.153c.002 4.905-.038 5.218-.835 6.479-.775 1.228-.963 1.333-2.57 1.428l-1.735.102-.93 2.353c-.857 2.163-.89 2.417-.42 3.134.46.702.451 1-.079 2.96-.555 2.05-.661 2.197-1.823 2.51-.743.2-1.873.982-2.846 1.97-1.593 1.617-1.637 1.636-3.41 1.49-1.562-.13-1.863-.053-2.317.595-.477.682-.465.841.144 1.873l.665 1.127-1.838 4.325-1.839 4.324-2.203.1c-1.415.063-2.349.274-2.61.59-.563.678-4.68.675-5.577-.004zm14.37-50.38c.25-.51.54-2.371.645-4.135.191-3.194.189-3.209-.751-4.008-.52-.441-2.03-2.324-3.358-4.183-1.327-1.86-2.704-3.457-3.059-3.55-.354-.093-.818-.581-1.03-1.085l-.385-.917-3.206 2.987-3.206 2.986 1.189.004c1.043.004 1.519.345 3.891 2.789 6.957 7.165 7.576 7.9 7.576 8.991 0 1.364 1.051 1.439 1.695.12zm-20.344-.993c-.314-.313-.684-.457-.822-.319-.138.138-.028.393.245.566.822.52 1.187.363.577-.247z"/></svg>