<svg xmlns="http://www.w3.org/2000/svg" width="180mm" height="90mm" viewBox="0 0 180 90"><path d="M128.404 89.684c-1.067-.285-2.013-2.118-2.539-4.922-.272-1.451-.078-2.308.766-3.38.622-.79 1.382-2.35 1.69-3.466.476-1.721.363-2.317-.74-3.928-.996-1.452-1.232-2.425-1.003-4.132.227-1.693.014-2.596-.885-3.739-.888-1.128-1.103-2.014-.858-3.524.252-1.555.047-2.313-.886-3.308-.666-.71-1.762-3.103-2.434-5.317-1.11-3.656-2.287-5.47-3.55-5.47-.257 0-.467.66-.467 1.469 0 .808-.638 2.107-1.417 2.887l-1.417 1.417h1.872c1.47 0 2.454.59 4.592 2.762 1.496 1.52 2.72 2.926 2.72 3.127 0 .2-1.015 1.169-2.256 2.152l-2.257 1.787-1.724-1.45c-1.628-1.37-2.1-1.45-8.576-1.45h-6.852l-3-2.02c-1.651-1.112-3.206-2.024-3.457-2.027-.251-.003-1.107.787-1.904 1.756l-1.447 1.76-3.604-2.678c-1.983-1.473-3.605-2.774-3.605-2.89 0-.117.448-1.153.997-2.302.946-1.985.945-2.117-.02-2.658-.963-.538-.954-.675.158-2.473 1.062-1.718 1.75-5.504.735-4.044-.234.335-1.269.951-2.3 1.369-1.655.669-1.877 1.018-1.877 2.949 0 1.954-.304 2.413-2.82 4.26l-2.82 2.07H62.47c-14.244 0-14.763.04-15.117 1.154-.313.987-.874 1.155-3.846 1.155-2.994 0-3.521-.16-3.781-1.155-.166-.634-.556-1.154-.866-1.154-.31 0-.7.52-.866 1.154-.259.989-.788 1.155-3.678 1.155-2.75 0-3.488-.208-3.975-1.118-.358-.668-1.343-1.191-2.446-1.3-1.73-.168-1.989-.507-4.073-5.343-2.468-5.725-2.544-8.6-.287-10.856l1.174-1.174-1.524-3.108c-1.075-2.192-1.524-4.025-1.524-6.224 0-3.049-.04-3.125-1.876-3.518-3.23-.69-3.32-.933-3.32-8.971 0-8.95.462-10.35 3.418-10.35 1.452 0 2.295-.347 2.799-1.154.397-.635 1.238-1.155 1.87-1.155.766 0 1.15-.386 1.15-1.154 0-.99.385-1.155 2.706-1.155 1.907 0 3.066.34 3.93 1.15 1.202 1.13 2.088 1.151 48.101 1.17 40.016.013 46.877.138 46.877.835 0 .523.762.881 2.12.996 1.941.164 2.192.393 2.964 2.72.827 2.492.86 2.516 1.776 1.326.718-.933 2.243-1.434 6.597-2.17 3.115-.525 5.77-.85 5.9-.72.13.131.639 1.202 1.132 2.382.871 2.086.86 2.16-.415 2.64-.72.273-2.434.685-3.808.915-1.95.327-2.741.817-3.61 2.237-.611 1-.963 2.208-.78 2.685.181.476.478 2.105.66 3.619.295 2.465.616 2.964 3.074 4.768 1.51 1.109 2.902 2.424 3.094 2.924.609 1.586.377 3.148-.518 3.491-.476.183-.866.648-.866 1.034s-.772 1.722-1.716 2.969c-1.204 1.592-1.72 2.935-1.732 4.505-.014 1.996.497 2.81 4.747 7.56 4.47 4.996 5.064 5.983 9.67 16.079 2.829 6.198 5.31 10.892 5.856 11.078.603.205 1.092 1.288 1.345 2.976.22 1.459.523 2.978.675 3.376.62 1.616-3.83 3.136-18.442 6.298-8.193 1.773-15.078 3.193-15.3 3.156a18.217 18.217 0 0 1-1.333-.315zm-17.112-35.89c-.567-.36-.54-.698.126-1.578 1.106-1.463 1.101-3.152-.014-4.745-.747-1.067-1.445-1.283-4.14-1.283-3.954 0-5.353 1.03-5.353 3.941 0 3.286 1.245 4.143 6.007 4.133 2.253-.005 3.771-.215 3.375-.467z"/></svg>