<svg xmlns="http://www.w3.org/2000/svg" viewBox="0 0 180 90"><path d="M126.26852 78.500481c-1.13001-1.055612-2.05458-2.246385-2.05458-2.646169 0-.400945-1.12991-.726895-2.51975-.726895-3.4697 0-4.88951-1.199346-4.88951-4.130264 0-1.318595.14742-2.640447.32738-2.937445.59489-.981185-.90022-8.45953-1.89085-9.457901-.78982-.795984-1.21587-.826966-2.27521-.165388-.85054.53118-4.17158.814003-9.55837.814003-7.214091 0-8.333834-.147423-8.880373-1.168571-.425396-.794857-.334587-1.694019.284045-2.811541.970017-1.75241 1.191443-4.667499.53937-7.100714-.60771-2.2677-1.463603-1.777949-1.693113.968827-.18189 2.177373-.498665 2.568472-2.78047 3.43338-2.520489.955396-2.605246.938352-3.994101-.803418l-1.418954-1.77955H62.062996l-.939749 1.819242c-.516858 1.000586-1.150218 3.787992-1.407461 6.19426-.444794 4.160639-.579506 4.428312-2.749297 5.46301-3.014072 1.437316-4.670002.566943-5.202479-2.734508-.219351-1.359992-1.013726-4.482166-1.76528-6.938147l-1.366461-4.465404h-3.684711c-3.097403 0-3.980443-.283332-5.540145-1.77761-1.020493-.977692-1.855441-2.466161-1.855441-3.307712 0-.841546-.273408-1.530082-.607587-1.530082-.33417 0-1.289272-1.102994-2.122444-2.451101-1.320676-2.136911-1.514854-3.319753-1.514854-9.227853 0-6.637699.04356-6.830961 2.122446-9.417868 1.699146-2.114367 2.122447-3.248565 2.122447-5.686897 0-2.351772.37001-3.415818 1.623783-4.669582 1.432351-1.432362 2.202716-1.6237859 6.53442-1.6237859 3.589945 0 5.135408.2708419 5.746426 1.0070579.729936.879523 4.112662.970566 26.708055.71876 14.229722-.158647 28.154716-.448707 30.944396-.644726 3.95479-.277892 5.2478-.144766 5.86948.604333.58334.702857 2.31538.960739 6.45275.960739 4.43915 0 5.92817.246836 6.92369 1.147794.91461.827712 2.68174 1.207483 6.33674 1.361853 2.92386.123577 5.93679.658921 7.12067 1.265391 2.40302 1.230999 4.55704 4.835222 4.04957 6.775848-.19514.746269-.0849 1.356864.24476 1.356864.79291 0 .77637 4.443466-.0189 4.934646-.3399.210062-.46185 1.344075-.271 2.520018.67627 4.167262-4.10979 7.760795-10.33622 7.760795-3.07148 0-3.64664.242911-5.68012 2.399029-2.39259 2.536894-2.42916 2.908733-.82052 8.342457.40255 1.359731 1.41232 2.91805 2.24394 3.46296 2.80017 1.834723 5.39753 6.436014 5.8991 10.45039.61532 4.924947.0947 6.846561-1.99727 7.371588-1.38965.348808-1.59922.69483-1.2539 2.070637.50549 2.014078-.80954 5.415717-2.4287 6.282246-1.91294 1.023787-2.99209.756245-5.17513-1.282996zM106.68308 54.66831c.78946-.06263.87152-5.707974.11363-7.821796-.56647-1.580091-1.42399-1.918029-2.09833-.826941-.22488.363851-1.13777.661547-2.02867.661547-1.55667 0-1.61318.153767-1.44942 3.944688.17586 4.071627.73986 4.699885 3.80887 4.242833.54575-.08134 1.29001-.17141 1.65386-.200317zm5.68713-1.290597c1.22706-.99361 1.40704-1.520556.90022-2.635678-.59258-1.303814-.72602-1.223651-2.06697 1.241893-1.56675 2.880644-1.20424 3.313692 1.16675 1.393785zM64.013649 16.911745c0-.363853-1.637313-.661547-3.638481-.661547-2.001161 0-3.638477.297693-3.638477.661547 0 .363851 1.637316.661544 3.638477.661544 2.001168 0 3.638481-.297691 3.638481-.661544zm17.861617 0c0-.367528-1.764109-.661547-3.969254-.661547-2.205124 0-3.969237.294014-3.969237.661547 0 .367526 1.764113.661544 3.969237.661544 2.205145 0 3.969254-.294013 3.969254-.661544zm17.696243-.165398c-.174581-.523715-1.569322-.826923-3.803873-.826923-2.234531 0-3.629274.30321-3.803861.826923-.200673.601933.834276.826923 3.803861.826923 2.969586 0 4.00451-.22499 3.803873-.826923z"/></svg>