<svg xmlns="http://www.w3.org/2000/svg" viewBox="0 0 90 90"><path d="M37.856 80.323c-.969-.6-.97-.606-.97-4.74 0-3.936.04-4.16.794-4.553 1.14-.593 1.142-.6.483-1.328-.53-.587-.553-.942-.195-3.09.513-3.077.512-21.14 0-23.732-.27-1.36-.269-2.035.005-2.364.296-.357.118-.528-.794-.763-1.15-.297-1.177-.349-1.278-2.407l-.103-2.103h-1.394c-1.842 0-3.2-1.218-2.54-2.277.588-.94.627-21.187.044-21.771-.289-.288-.218-.632.264-1.294l.657-.902h24.342l.657.902c.482.662.553 1.006.264 1.294-.583.584-.544 20.832.043 21.771.661 1.059-.697 2.277-2.539 2.277h-1.394l-.103 2.103c-.101 2.058-.129 2.11-1.278 2.407-.912.235-1.09.406-.794.763.273.33.275 1.004.006 2.364-.513 2.593-.514 20.655-.001 23.733.358 2.147.335 2.502-.195 3.089-.66.728-.657.735.483 1.328.755.393.794.617.794 4.558v4.145l-1.025.605c-1.51.893-12.788.88-14.233-.015z"/></svg>