<svg xmlns="http://www.w3.org/2000/svg" viewBox="0 0 90 90">
  <path d="m23.386 67.325-.947-.965v-3.674l1.407-.08c.96-.054.654-.094-.963-.123l-2.369-.044-1.512-1.524c-1.24-1.249-1.513-1.656-1.513-2.25v-.726h-7.426v-.78c0-.851.114-.793-2.87-1.472l-1.18-.268v-2.354l1.968-.547 1.97-.547.07-.842.07-.84h6.174c5.338 0 6.174-.047 6.174-.338 0-.292-.836-.338-6.176-.338h-6.177l-.068-1.151-.068-1.151-1.687-.61-1.688-.61v-1.923l1.744-.55 1.744-.55v-2.006H22.664v-1.125H10.063v-.513c0-.443-.237-.586-1.744-1.052-2.195-.679-2.345-.797-2.262-1.782.068-.794.078-.802 1.98-1.378 1.848-.56 1.916-.605 1.984-1.303l.07-.723h6.948v-1.064c0-1.037.05-1.115 1.964-3.038 1.527-1.534 2.103-1.973 2.588-1.973.622 0 .623-.003.623-1.589 0-1.503.045-1.642.835-2.588l.836-.999h31.531l1.79 1.8c1.17 1.178 1.963 1.8 2.291 1.8.276 0 1.714-.86 3.196-1.912l2.693-1.913h6.598c5.889 0 6.717.046 7.701.42.705.267 1.215.632 1.414 1.012.227.433.487.593.962.593.565 0 .726.158 1.211 1.182 1.085 2.289.917 4.666-.376 5.3-.967.473-1.128 1.018-.48 1.627.506.475.554.69.554 2.462 0 1.179-.103 2.044-.262 2.203-.2.2-.17.298.128.413.345.132.385.462.338 2.82-.03 1.468.014 2.737.096 2.82.083.083.15 1.134.15 2.335 0 1.684-.078 2.25-.343 2.47-.307.256-.307.325 0 .665.262.289.344.94.344 2.743 0 1.3-.063 2.426-.14 2.502-.076.077-.121 1.31-.1 2.74.021 1.43-.038 2.725-.131 2.876-.094.151-.14 1.123-.105 2.16.065 1.864.057 1.895-.674 2.649l-.739.763H58.996l-1.903 1.912-1.903 1.913H24.333Zm30.556-7.248 1.903-1.913h15.087l-.073-2.045c-.058-1.633 0-2.127.287-2.444.322-.356.323-.427.017-.682-.436-.362-.497-4.262-.074-4.685.21-.21.21-.33 0-.54-.36-.36-.368-4.492-.009-4.851.197-.198.193-.342-.017-.595-.193-.232-.26-1.157-.222-3.047.03-1.492-.014-2.78-.096-2.863-.083-.083-.15-1.064-.15-2.18 0-1.774.061-2.095.489-2.55l.49-.521h-6.605v1.02c0 .642.208 1.432.562 2.13l.563 1.11V53.99l-1.4 1.412-1.4 1.413h-1.417c-1.354 0-1.412-.023-1.302-.507.063-.278.214-.962.336-1.519.123-.563.224-4.865.227-9.704.005-7.227-.051-8.829-.332-9.5-.205-.49-.338-1.518-.338-2.616v-1.807h-3.946l-2.242-2.25c-1.233-1.238-2.351-2.25-2.485-2.25-.134 0-.535.303-.89.675-.636.663-.688.675-2.926.675-2.238 0-2.29-.012-2.925-.675l-.647-.675H40.09c-3.338 0-4.375.068-4.569.302-.138.165-.184.368-.103.45.082.081 2.039.148 4.35.148h4.2l1.5 1.553c1.486 1.54 1.5 1.565 1.5 2.813v1.26h6.947l.07.728c.07.713.116.742 2.04 1.276l1.969.547v.96c0 .721-.098.986-.394 1.068-.217.06-1.178.288-2.138.507-1.668.38-1.744.424-1.744 1.03v.634h-12.6v1.125h12.825v1.121c0 1.039.046 1.131.62 1.261.34.077 1.226.313 1.968.522l1.35.381.069 1.06c.047.724-.025 1.09-.225 1.153-.162.051-1.078.26-2.038.464l-1.744.37v2.22H47.53c-5.55 0-6.413.044-6.413.337 0 .292.885.337 6.61.337h6.609l.136.854c.135.842.16.86 1.83 1.351l1.692.498v.996c0 .755-.096 1.024-.394 1.111-.217.063-.976.28-1.688.482l-1.293.366V57.939h-7.876v.97c0 .919-.067 1.018-1.285 1.912-1.126.827-1.214.943-.71.943.316 0 .758-.202.982-.45.346-.381.693-.45 2.29-.45 1.79 0 1.895.027 2.139.563.205.449.42.562 1.069.562.72 0 1.028-.216 2.715-1.912zM81.257 30.31c.29-.56.266-.908-.222-3.32-.3-1.481-.579-2.794-.62-2.918-.042-.124-.293.129-.56.562-.408.665-.483 1.132-.484 2.99 0 1.649.09 2.341.363 2.756.48.733 1.123.703 1.523-.07z"/>
</svg>
