<svg xmlns="http://www.w3.org/2000/svg" viewBox="0 0 90 90">
  <path d="M41.6 71.715c-.754-.15-1.522-.332-1.708-.403-.224-.086-.552-1.121-.982-3.104l-.645-2.976.584-.477c.47-.383.547-.577.392-.984-.157-.409-.367-.506-1.1-.506h-.905l-1.37-2.733-1.37-2.733 1.59-1.6 1.59-1.602-1.454-3.116-1.455-3.116.49-.396c.46-.374.469-.43.132-.944-.197-.3-.755-.725-1.24-.944-.842-.38-.99-.622-3.198-5.198l-2.314-4.8 2.243-3.116 2.243-3.118-.4-.568-.4-.57 2.706-4.662 2.706-4.663 1.042-.008c.574-.004 1.24-.156 1.48-.338.24-.181.71-.33 1.045-.33.334 0 .666-.152.737-.337.191-.498 5.272-.498 5.463 0 .082.212.434.34.95.344.45.004 1.016.156 1.256.338.241.182.914.33 1.5.33h1.065l1.903 3.32a348.917 348.917 0 0 0 2.705 4.65l.803 1.33-.439.558c-.438.557-.438.56.09 1.257.29.385 1.316 1.795 2.278 3.134l1.75 2.435-2.333 4.813c-2.21 4.56-2.378 4.834-3.2 5.205-.479.215-1.03.637-1.227.938-.337.514-.329.57.14.95l.5.405-1.473 3.1-1.472 3.1 1.594 1.604 1.595 1.606-1.32 2.681-1.32 2.681-.98.113c-1.27.146-1.582.785-.725 1.487l.58.475-.652 3.05-.651 3.048-1.956.358c-2.252.412-4.89.424-6.863.03z"/>
</svg>
