<svg xmlns="http://www.w3.org/2000/svg" viewBox="0 0 90 90">
  <path d="M55.82 69.492c-.684-1.021-1.243-1.983-1.243-2.14 0-.155-.197-.283-.437-.283-.553 0-1.027-1.777-.565-2.121.201-.15.217-.348.056-.701-.156-.344-.126-.967.101-2.069.283-1.377.282-2.081-.006-5.55-.304-3.644-.301-4.007.035-4.379.402-.444.281-.706-.327-.706-.284 0-.436-.254-.548-.92-.134-.79-.077-1.004.404-1.519.559-.597.56-.61.443-4.043l-.118-3.445-1.556-2.406c-.855-1.323-1.677-2.518-1.825-2.655-.64-.59-2.6-1.175-4.32-1.29-1.1-.073-2.106-.593-2.182-1.127-.057-.402-.222-.486-.969-.491-1.103-.008-1.913-.43-1.913-.995 0-.504-.418-.7-.934-.435-.62.318-1.766-.21-1.766-.812 0-.64-.496-.857-1.043-.458-.345.253-.512.25-1.034-.02-.353-.183-.623-.51-.623-.756 0-.582-.654-.933-1.196-.642-.584.312-1.73-.181-1.73-.746 0-.237-.25-.541-.562-.683-.31-.141-.563-.344-.563-.451 0-.107-.267-.296-.594-.42-.456-.174-.682-.147-.974.118-.209.189-.502.343-.652.343-.385 0-1.605-.935-1.605-1.23 0-.134-.2-.415-.443-.624-.244-.209-.794-1.075-1.222-1.925l-.778-1.546.437-.657c.241-.36.413-.863.383-1.117-.03-.253.205-.793.523-1.2l.578-.738 1.386.272c.883.174 1.386.384 1.386.578 0 .168.33.443.734.612.444.186 1.2.921 1.918 1.865l1.185 1.559 10.74 3.014c9.955 2.794 10.809 3.073 11.707 3.82.533.443 1.926 2.223 3.096 3.956 2.783 4.12 2.81 4.242 2.218 9.997l-.443 4.292h.501c.791 0 1.648.483 1.648.93 0 .225.29.558.643.74.354.184.775.652.936 1.04.266.642.236.826-.325 1.969-.611 1.246-.618 1.306-.55 5.078l.067 3.817-.878.304c-.483.167-.95.227-1.037.132-.088-.094-.204-1.994-.26-4.222-.074-3.02-.022-4.272.202-4.922.432-1.251.386-1.491-.285-1.491-.392 0-.549.098-.473.295.062.163-.21 2.172-.606 4.464l-.719 4.17.642 1.435c.536 1.202.598 1.516.376 1.93-.222.414-.185.608.22 1.178.34.477.442.855.341 1.258-.08.318-.05.703.064.856.115.153.167.813.115 1.467-.092 1.175-.107 1.196-1.237 1.769-1.036.524-1.17.545-1.41.216-.24-.329-.343-.331-1.08-.024l-.813.34zm5.882-18.977c.188-.489-.288-.948-.63-.607-.287.288-.109.96.256.96.131 0 .3-.159.374-.353z"/>
</svg>
