<svg xmlns="http://www.w3.org/2000/svg" viewBox="0 0 80 50"><path d="m29.963 35.021-9.977-9.978 9.97-10.022L39.926 5 49.97 15.043l10.044 10.044-9.955 9.956C44.583 40.52 40.067 45 40.022 45c-.044 0-4.57-4.49-10.059-9.979Zm17.816-2.336 7.676-7.678-7.716-7.716-7.717-7.717-7.716 7.717-7.717 7.716 7.676 7.678c4.222 4.222 7.712 7.677 7.757 7.677.045 0 3.535-3.455 7.757-7.677zm-9.404-.102c-.062-.061-.112-1.393-.112-2.96v-2.849l-2.92-.043-2.918-.044v-3.359l2.915-.043 2.916-.044.043-2.915.044-2.915H41.7l.044 2.915.044 2.915 2.915.044 2.915.043v3.36l-2.915.043-2.915.043-.044 2.916-.044 2.915-1.607.045c-.884.025-1.658-.005-1.72-.067z"/></svg>