<svg xmlns="http://www.w3.org/2000/svg" viewBox="0 0 80 50"><path d="m38 35.321-9.668-9.68.823-.5c.453-.277 1.059-.875 1.348-1.33l.524-.827 9.685 9.686c10.672 10.674 10.009 9.839 8.86 11.148C49.05 44.41 48.176 45 47.817 45c-.082 0-4.5-4.356-9.817-9.679zm-19.977.046c.053-.56.23-3.186.394-5.835l.299-4.816 1.816-1.853 1.817-1.852-.391-1.072-.391-1.072 1.393-1.393 1.393-1.393 1.075.402 1.075.403 1.82-1.814 1.82-1.813 4.966-.342c7.365-.505 7.253-.61 1.902 1.787l-4.53 2.028-1.9 1.851-1.9 1.85.479.5.478.499-.39.764c-.396.777-1.684 1.871-2.202 1.871-.157 0-.48-.184-.72-.409l-.435-.409-1.827 1.845-1.827 1.845-1.984 4.446c-1.092 2.445-2.061 4.57-2.155 4.723-.11.18-.136-.081-.075-.74zm43.55-13.443c-.596-.908-2.978-3.28-4.097-4.078-1.38-.985-3.869-2.188-5.36-2.59-1.672-.453-4.544-.543-6.18-.196-2.156.458-4.193 1.548-5.887 3.152-.8.758-1.79 1.883-2.197 2.5-.407.617-.79 1.124-.85 1.127-.182.009-2.577-2.54-2.577-2.743 0-.307.674-.705 7.595-4.491l6.576-3.597-9.506-.048-9.507-.048-.778.637-.779.638-.708-.313-.71-.313 1.1-1.049c2.21-2.107 5.823-4.093 9.072-4.986 1.822-.501 6.341-.691 8.594-.362 7.538 1.102 13.593 6.418 15.966 14.016.443 1.42.794 3.22.627 3.22-.046 0-.223-.214-.395-.476z"/></svg>