<svg xmlns="http://www.w3.org/2000/svg" width="180mm" height="90mm" viewBox="0 0 180 90"><path d="M81.496 86.3c-5.43-1.266-5.59-1.343-4.75-2.272.725-.8.617-1.274-1.653-7.236-2.09-5.49-2.554-6.348-3.328-6.145-.561.146-.899.65-.899 1.343 0 .846-.475 1.324-2.008 2.02l-2.008.91-.962-1.129c-.53-.621-1.29-1.13-1.692-1.13-.46 0-1.353-1.433-2.426-3.897-1.611-3.701-1.652-3.922-.812-4.374.838-.452.811-.585-.51-2.552-.766-1.141-1.392-2.627-1.392-3.303.001-.675-.562-2.557-1.252-4.18-1.174-2.768-2.083-3.584-2.765-2.481-.48.776-4.346.58-4.659-.236-.15-.39-.784-.709-1.41-.709-.626 0-1.402.319-1.726.709-.323.39-1.313.708-2.199.708-.995 0-1.714-.27-1.882-.708-.15-.39-.787-.709-1.417-.709s-1.268.319-1.418.709c-.295.77-3.95 1.038-3.95.29 0-.72-2.896-.917-3.165-.215-.293.764-3.05.844-3.783.11-.338-.337-2.781-.496-6.916-.45l-6.393.073-6.407-3.666-6.407-3.667v-2.528c0-3.115.61-4.357 2.143-4.357 1.043 0 1.164-.196 1.164-1.89 0-1.844-.04-1.89-1.653-1.89-1.45 0-1.654-.146-1.654-1.18 0-.666-.273-1.182-.626-1.182C1.37 31.086 0 28.958 0 26.922c0-1.794.11-1.977 1.181-1.977.997 0 1.181-.22 1.181-1.418 0-1.196-.184-1.417-1.18-1.417C.127 22.11 0 21.915 0 20.313c0-1.413.333-2.12 1.558-3.307 1.382-1.34 1.862-1.51 4.252-1.51 2.08 0 2.694.162 2.694.709 0 .39.213.708.472.708.26 0 .473-.319.473-.708 0-.543.6-.71 2.565-.71 2.284 0 2.589.118 2.775 1.064l.21 1.063.35-1.063c.314-.95.663-1.063 3.275-1.063 2.72 0 3.034-.115 4.526-1.654 1.278-1.319 1.966-1.653 3.4-1.653 1.177 0 1.796-.216 1.796-.626 0-.345.532-1.126 1.182-1.736.997-.938 1.18-1.537 1.18-3.862V3.212l3.898.03c2.982.023 4.73.328 7.441 1.3 3.346 1.198 3.557 1.358 3.78 2.873.295 2.007 1.5 2.882 2.826 2.054 1.226-.766 7.194-.772 7.957-.008.457.456.774.456 1.506 0 1.115-.697 8.315-.784 8.734-.106.437.705 1.93.57 2.599-.237.43-.518 1.57-.708 4.236-.708 3.049 0 3.79.155 4.504.945 1.02 1.126 1.8 1.197 2.598.236.454-.547 1.709-.709 5.482-.709 6.194 0 8.692-.83 8.692-2.886 0-1.245.146-1.366 1.644-1.366 1.418 0 1.772.243 2.58 1.772 1.704 3.225 1.379 3.11 5.68 2.012 2.148-.548 3.96-.933 4.028-.855.067.078.668 1.736 1.337 3.685l1.214 3.544 7.23.28c3.978.154 7.657.427 8.176.607.731.252 1.123.01 1.728-1.07l.783-1.394 2.674.985c2.392.881 2.645 1.1 2.397 2.087-.27 1.076-.198 1.103 3.011 1.103 1.809 0 3.42.213 3.58.472.165.266 2.427.473 5.168.473 3.756 0 5.01-.163 5.463-.709.477-.575 1.998-.708 8.089-.708 7.186 0 7.501-.04 7.501-.945 0-.88.315-.945 4.629-.945h4.628l1.75 1.791L180 18.607v25.236h-6.03c-5.64 0-6.06-.064-6.496-.982-.288-.605-4.355-3.037-10.624-6.351-6.915-3.657-10.136-5.605-10.091-6.106.105-1.184-1.32-.853-3.951.919-1.35.91-2.677 1.654-2.947 1.654s-.49.637-.49 1.417c0 1.102-.21 1.417-.946 1.417-.84 0-.945.315-.945 2.837 0 2.815.042 2.902 5.433 11.256 4.346 6.734 5.433 8.757 5.433 10.108 0 1.675-.047 1.714-6.087 5.043-3.349 1.845-6.33 3.355-6.624 3.355-.708 0-4.297-2.276-4.293-2.723 0-.191.425-.986.941-1.766 1.165-1.759 1.17-1.99.042-2.349-.662-.21-.989-.91-1.224-2.625-.271-1.968-.61-2.566-2.143-3.78-1.576-1.248-1.84-1.736-1.964-3.619-.184-2.792-1.184-3.547-3.158-2.38-.987.582-2.42.816-5.003.816-3.153 0-3.824.156-5.2 1.205l-1.58 1.205-2.42-2.15c-1.482-1.316-2.872-2.15-3.586-2.15-.64 0-1.165-.212-1.165-.472s-.532-.472-1.181-.472c-.945 0-1.181.236-1.181 1.18 0 .998-.22 1.182-1.418 1.182-1.166 0-1.417.194-1.417 1.093 0 1.238-2.255 3.631-3.422 3.631-.63 0-.38.935 1.359 5.08 1.171 2.792 2.78 6.636 3.573 8.54.903 2.166 1.797 3.593 2.385 3.811.555.205 1.39 1.45 2.034 3.034 1.005 2.47 1.029 2.72.299 3.098-2.35 1.22-21.387 9.029-21.91 8.988-.34-.026-1.468-.245-2.507-.487zm-12.6-14.753c.137-.712-.03-.806-.94-.526-1.42.437-1.503.525-1.109 1.163.486.786 1.857.36 2.05-.637zm-1.177-9.08c.589-.225.405-1.002-1.08-4.572-1.123-2.697-2.126-4.425-2.688-4.633-.934-.345-1.91-1.919-2.155-3.475-.078-.498-.388-.987-.689-1.088-.948-.315-.056 2.673 2.384 7.987.678 1.478 1.233 2.92 1.233 3.206 0 .705 1.434 2.848 1.906 2.848.209 0 .699-.122 1.089-.272z"/></svg>