<svg xmlns="http://www.w3.org/2000/svg" viewBox="0 0 180 90"><path d="m110.699 80.455-1.772-1.771-1.564.709c-2.647 1.2-3.513 1.004-4.649-1.055-.934-1.694-.952-1.812-.405-2.737.526-.892.527-1.073 0-2.33-.364-.873-.447-1.485-.23-1.701.216-.217.102-.542-.319-.905-1.061-.916-2.906-5.659-2.426-6.238.307-.369.28-.48-.118-.48-.284 0-.796-.62-1.137-1.377-.6-1.33-.693-1.384-2.778-1.625-2.557-.295-3.66-.673-4.638-1.59-.711-.665-.715-.76-.225-5.513.41-3.985.627-4.977 1.235-5.639l.737-.802-4.203.1-4.203.1-.248 2.108a234.77 234.77 0 0 0-.464 4.395c-.154 1.632-.447 2.571-1.025 3.288l-.81 1.004-3.24-.442-3.24-.443-.742-1.528c-.672-1.383-.862-1.528-2.01-1.528-.699 0-1.577.23-1.952.51-.91.68-3.3.342-4.105-.58-.864-.99-3.394-1.291-3.99-.476-.64.874-3.066.443-3.798-.675-.683-1.042-3.49-1.386-4.27-.522-.751.83-2.78.48-3.345-.575-.38-.712-.718-.846-2.13-.846-.923 0-1.775.158-1.895.352-.12.193-.844.351-1.61.351-1.145 0-1.464-.156-1.794-.878-.624-1.37-2.13-1.17-4.405.585l-1.898 1.464-1.868-.589c-1.742-.549-1.92-.711-2.617-2.39-1.146-2.757-1.004-4.38.57-6.522 1.186-1.614 1.494-1.822 3.076-2.073 1.546-.246 1.623-.295.635-.408-.744-.085-2.275.354-4.538 1.299-1.878.785-3.849 1.427-4.38 1.427-.53 0-2.839-.712-5.13-1.581-3.744-1.422-4.466-1.582-7.152-1.584-1.644-.001-4.753-.104-6.91-.228-3.696-.213-3.945-.275-4.307-1.07-.701-1.54-.49-2.88.495-3.127 1.13-.283 1.13-1.12 0-1.55-.772-.293-.88-.544-.88-2.045 0-1.675.029-1.719 1.319-2.093.725-.21 4.077-.493 7.449-.629 5.685-.228 6.386-.332 9.649-1.43 4.726-1.593 6.234-1.562 10.98.22 2.06.774 3.874 1.407 4.032 1.407.158 0 .392-.554.519-1.23.208-1.109.345-1.231 1.379-1.231.631 0 1.335-.225 1.563-.5.228-.275 1.039-.605 1.802-.734 1.618-.274 2.054-1.215 1.413-3.053-.375-1.076-.32-1.21 1.01-2.542 1.35-1.35 1.46-1.392 2.743-1.05 1.414.378.552.552 37.302-7.537 6.257-1.377 11.536-2.406 11.73-2.286.71.438 4.111-.663 4.667-1.512.708-1.08.894-1.053 3.166.456 1.934 1.284 2.173 1.657 1.62 2.53-.277.436 2.1 7.961 2.703 8.557.133.132 2.535.423 5.339.648 2.804.225 5.248.553 5.431.728.539.514 3.358.394 3.358-.143 0-.254.446-.89.992-1.412.935-.896 1.456-1.011 9.052-1.996 4.433-.575 13.36-1.738 19.837-2.584l11.776-1.537 1.319.663c1.1.553 1.318.844 1.318 1.762v1.1l2.758-.213c2.758-.212 2.758-.212 3.837.915 1.214 1.267 1.207 1.2 1.697 17.28l.213 7.011-1.152.94-1.152.941.09 3.901.09 3.902-1.332 1.593c-.86 1.028-1.613 1.592-2.127 1.592-.462 0-1.039.37-1.373.88-.573.875-.596.878-6.091.878-4.854 0-5.809.099-7.955.823-2.301.776-2.46.9-2.822 2.186-.365 1.301-.67 1.53-6.69 4.984l-6.309 3.62-2.57-.773-2.571-.773-4.513 2.362c-3.309 1.732-4.737 2.306-5.352 2.152-.66-.166-.922-.026-1.233.656-.217.477-.893 1.16-1.502 1.516-1.17.685-1.175.723-.512 3.835.22 1.034.115 1.153-2.547 2.9-2.295 1.508-3.046 1.823-4.341 1.823-1.412 0-1.74-.174-3.338-1.772zm5.102-2.713c.484-.392.682-.832.54-1.202-.205-.532-.335-.537-1.516-.048-1.643.682-1.653.693-1.123 1.332.58.7 1.161.677 2.1-.082zm14.227-15.005c4.737-2.226 4.711-2.172 2.964-6.127-.915-2.072-1.249-2.506-1.925-2.506-1.003 0-2.042-1.791-1.945-3.353.037-.587-.16-1.378-.438-1.757-.496-.68-.52-.676-1.439.188-.866.815-1.249.892-5.297 1.055l-4.362.175 2.492 5.274c1.371 2.9 2.863 6.103 3.316 7.118 1.063 2.384 1.425 2.38 6.634-.067zm23.33-10.353c1.023-.408 2.411-.741 3.085-.741h1.227l-.097-5.713-.097-5.712-9.468-.094c-5.207-.052-9.583.027-9.724.176-.14.148-.016.862.278 1.587.481 1.19.66 1.319 1.833 1.319 2.44 0 3.955 1.562 6.329 6.525l2.085 4.36 1.346-.483c.74-.265 2.181-.816 3.204-1.224zm-30.161-8.036c-.114-1.111-.48-2.535-.813-3.164l-.607-1.142h-3.396c-3.003 0-3.49.088-4.21.764-.983.924-1.053 1.925-.154 2.21.363.115.929.916 1.26 1.781l.6 1.573h7.526zm-31.108-1.45c-.832-.176-1.078-.434-1.17-1.228l-.114-1.004-1.03.985-1.029.986-1.157-1.122c-1.404-1.36-1.531-1.369-2.772-.18l-.984.943-.793-.744c-.685-.643-1.372-.773-5.012-.955-8.945-.446-22.438-.563-22.804-.197-.2.2-1.043.363-1.874.363-.832 0-1.512.138-1.512.307 0 .169 6.49.375 14.422.458 14.288.149 14.429.158 15.194.923.734.734 1.049.77 6.231.731 3.003-.023 4.985-.142 4.404-.265zm-61.168-7.426c0-.416-.59-.55-2.781-.631-3.314-.124-4.003.045-3.356.824.635.765 6.137.592 6.137-.193zm47.458-4.74c2.127-.109 4.226-.381 4.665-.605.607-.309.898-.307 1.213.009.523.522 2.55.538 3.505.027.54-.29.935-.275 1.556.058.682.364 1.007.355 1.802-.052.849-.436-1.484-.51-18.717-.595-10.827-.053-20.042-.01-20.477.095-1.404.34-.841.709.899.588 1.234-.085 1.818.036 2.161.45.419.505 1.526.549 9.999.396 5.24-.094 11.267-.26 13.394-.37zm14.05-5.814c.684-.684.685-.735.056-3.178-1.295-5.025-1.24-4.9-2.174-4.9-.477 0-6.995 1.366-14.485 3.035-7.49 1.67-14.092 3.064-14.672 3.099-.58.035-1.292.166-1.582.29-.29.126-2.347.554-4.57.952-5.277.945-5.625 1.027-5.625 1.331 0 .142 9.53.214 21.179.161 20.558-.093 21.2-.116 21.873-.79z"/></svg>