<svg xmlns="http://www.w3.org/2000/svg" viewBox="0 0 180 90"><path d="M141.53127 68.007286c-1.4689-.783562-3.13948-2.845228-5.22163-6.444044-4.45666-7.702855-4.09602-7.505301-8.52694-4.670873-3.69281 2.362248-3.90578 2.411967-9.53316 2.225214l-5.75599-.191061.0166-3.816739c.011-2.384936-.26219-3.816722-.72683-3.816722-.40898 0-1.31259-.634355-2.00806-1.409738-1.19965-1.337429-1.71565-1.392807-10.059594-1.079764-4.837313.181569-8.795103.06909-8.795103-.249705 0-1.482154-1.279041-.281202-2.928854 2.750086-2.024954 3.720483-4.73624 5.299355-9.100253 5.299355-1.83081 0-2.574043.283811-2.574043.983016 0 .540663-.821438 1.15612-1.825416 1.367661-1.003968.211554-2.344061.665286-2.978001 1.008328-1.534829.830504-3.394529.789338-4.278501-.09464-.515197-.515193-1.104201-.477268-2.083137.134154-1.1131.695096-1.663206.692683-2.9823-.01286-1.257888-.67316-1.940429-.692765-3.070396-.08807-1.114825.596588-1.675207.59313-2.407856-.0155-.571515-.474379-1.797019-.62407-3.052711-.372894-1.385206.277043-2.455668.10028-3.151299-.52066-.579302-.517121-1.792679-1.0421-2.696239-1.166662-.944712-.130145-1.992688-.931638-2.466114-1.885909-.452764-.912692-1.50573-1.82105-2.339843-2.018559-.875681-.207207-1.973427-1.320897-2.598095-2.635745-1.002477-2.110101-1.280636-2.262419-3.799743-2.080529-1.570574.113435-3.28289-.19934-4.055919-.740812-1.823297-1.277085-18.418725-.792641-19.989373.583571-1.493195 1.308317-4.1136352 1.134847-5.3908882-.356821-2.0971761-2.449316-2.6161561-3.946928-1.8584297-5.362753.6584593-1.230261 1.3898462-1.327556 9.9800599-1.327556 5.737196 0 9.269566-.252957 9.269566-.663757 0-.365105-.298719-.663762-.663758-.663762-.951574 0-.832823-8.194583.132738-9.160158.438062-.438062 1.319355-.796494 1.958361-.796494.639011 0 1.40588-.43613 1.704175-.969163.439908-.786092 3.173318-1.025635 14.470204-1.268153 7.66031-.16445 15.465608-.501857 17.345128-.749785 3.671269-.484319 6.207527.33886 6.207527 2.014774 0 .833334 2.988955.972331 20.909072.972331 13.067571 0 20.909085-.241512 20.909085-.643918 0-.372735-3.56502-.722201-8.463214-.829719l-8.463201-.185688-.213859-1.865533c-.39877-3.477577.462403-3.776598 10.876514-3.776598 5.62019 0 9.67201.271265 9.91459.663783.75214 1.217025 1.56889.684425 1.78129-1.161613.16364-1.422909.60414-1.870912 1.99749-2.031768 1.45004-.16746 2.00101.208475 2.91883 1.991333 1.98124 3.848527 3.65809 5.160653 6.61116 5.173258 3.16501.01319 4.28139.916514 4.28139 3.463129 0 1.397223.3198 1.858584 1.28839 1.858584.7086 0 1.49831-.339643 1.75488-.754795.32101-.519372 2.14487-.628566 5.84725-.350072 4.88321.367271 5.54624.587826 7.17059 2.384902 2.08643 2.308399 2.88937 5.639871 1.95294 8.102913-.4817 1.266877-1.30032 1.855767-3.03107 2.180456-1.30414.244637-2.37117.618442-2.37117.830531 0 .21212 1.51622 2.8581 3.36935 5.879961l3.36935 5.494276 6.08953-2.021005c3.34924-1.111552 6.21444-2.128658 6.36709-2.260264.15261-.131508-.057-.910868-.46578-1.731754-.73759-1.480911-1.18799-4.65629-1.88275-13.274536-.30955-3.84-.19703-4.54341.78701-4.921047.63146-.242336 1.97131-1.301908 2.97736-2.354608 2.23438-2.338093 5.55427-2.981553 9.57488-1.855859 2.60818.730236 3.0248 1.10501 3.38949 3.049027.2742 1.461641-.0594 3.625013-.98101 6.35263-1.75756 5.204468-1.7725 10.107279-.0482 15.896464 1.08906 3.656854 1.19447 4.774195.54806 5.809258-.84556 1.353846-5.47562 3.077633-6.52486 2.429167-.80664-.498564-17.29181 4.835117-18.65624 6.036096-1.42215 1.251778-5.12369 1.115438-7.74982-.285475zM123.0729 52.361163c-.21901-.872863-.0755-1.786598.31919-2.0305 1.25199-.773765.77995-1.514285-1.22039-1.914352-1.15038-.230043-2.1127-.938171-2.36795-1.742413-.23654-.745153-.79714-1.354835-1.24578-1.354835-.56452 0-.80626 1.327381-.78501 4.310929l.0302 4.310931 2.83369.0038c2.65734.0038 2.80892-.09521 2.43539-1.583413zm-42.231621-2.561585c.200929-1.060794-.576345-1.161855-8.955602-1.164299-5.046601-.0015-12.984085-.196958-17.638846-.434364-7.605137-.38784-8.46319-.320259-8.46319.666489 0 1.182723 1.010089 1.485024 1.626953.486913.588879-.952767 25.57283-.07631 27.579377.966965 2.338325 1.216349 5.576758.927616 5.851308-.521704zm48.114941-.933922c-.31262-.814745-.49005-.836758-.94604-.117366-.30868.486994-.5658 1.295337-.57143 1.79638-.008.717915.19249.742825.94607.117367.52595-.436455.78307-1.244833.57135-1.796385z"/></svg>