<svg xmlns="http://www.w3.org/2000/svg" viewBox="0 0 90 90"><path d="M32.525 80.639c-1.263-.347-2.236-.975-3.606-2.328-2.249-2.221-3.307-4.882-3.307-8.315V67.77h-1.357c-2.657 0-2.524 1.102-2.524-20.868V27.325l.817-.767c.654-.615 1.244-.767 2.975-.767 2.134 0 2.173-.018 3.476-1.609.805-.982 1.706-1.686 2.317-1.808.818-.163.999-.382.999-1.214 0-.891-.128-1.014-1.059-1.014h-1.058v-2.958c0-2.807.047-2.989.93-3.568.513-.335 1.545-.692 2.294-.792 1.788-.24 1.754-.796-.049-.796h-1.411V8.857h7.018c7.68 0 7.446-.067 7.446 2.146 0 1.002-.048 1.03-1.785 1.03-1.1 0-1.701.135-1.567.352.12.194.648.353 1.173.353s1.547.317 2.27.705c1.12.6 1.991.706 5.823.706h4.507l3.256 3.27 3.256 3.27V63.38l2.47 2.45c2.98 2.959 3.108 3.643 1.053 5.65l-1.417 1.383-3.699-3.686-3.699-3.686V22.413L56.38 20.75l-1.688-1.662h-6.978l.767.816c.577.614.767 1.255.767 2.585 0 2.51.899 3.302 3.754 3.302 1.76 0 2.25.138 2.887.816l.767.817v19.59c0 18.53-.035 19.621-.645 20.173-.355.321-1.228.584-1.94.584h-1.295v2.225c0 3.429-1.06 6.094-3.3 8.308-1.447 1.429-2.302 1.961-3.783 2.355-2.46.655-10.755.642-13.168-.02z"/></svg>