<svg xmlns="http://www.w3.org/2000/svg" width="180mm" height="90mm" viewBox="0 0 180 90"><path d="M85.968 89.051c0-.522-.214-.949-.475-.949-.274 0-.474-1.502-.474-3.557 0-2.847-.142-3.558-.711-3.558-.617 0-.712-1.898-.712-14.231 0-13.915.021-14.231.949-14.231.924 0 .948-.317.948-12.334V27.857H81.7V24.3c0-3.201-.092-3.558-.918-3.558-.648 0-.961-.383-1.067-1.305l-.15-1.304-10.791-.128-10.79-.127-5.813 1.734c-3.197.953-6.149 2.024-6.56 2.38-.663.573-5.656.97-5.656.45 0-.11.397-1.123.882-2.254.833-1.942 1.191-2.204 6.522-4.772 3.702-1.783 7.842-3.308 12.045-4.437 7.38-1.981 18.889-4.043 19.256-3.449.137.222.77.404 1.407.404.847 0 1.158-.258 1.158-.962 0-.53.634-2.218 1.409-3.753L84.042.428 87.495.11c1.9-.174 4.521-.14 5.826.078 2.284.38 2.419.49 3.648 3.002.703 1.435 1.29 3.064 1.305 3.62.033 1.207 1.442 1.7 2.548.892.624-.457 2.076-.356 7.091.491 9.332 1.576 18.255 4.182 24.587 7.179 5.142 2.434 5.565 2.74 6.522 4.71.563 1.16 1.024 2.208 1.024 2.332 0 .489-5.063.19-5.583-.33-.305-.305-3.176-1.366-6.38-2.358l-5.826-1.803-11.029-.014-11.029-.014v1.423c0 1.107-.21 1.423-.949 1.423-.864 0-.949.316-.949 3.558v3.558h-4.269v24.667h2.372v27.922l-1.067.151c-.98.14-1.072.414-1.125 3.371-.03 1.77-.19 3.354-.355 3.518-.165.165-.3.797-.3 1.406 0 1.067-.135 1.107-3.794 1.107-3.479 0-3.795-.08-3.795-.949z"/></svg>