<svg xmlns="http://www.w3.org/2000/svg" width="80mm" height="50mm" viewBox="0 0 80 50"><path d="M57.076 41.066a58.062 58.062 0 0 0-.903-2.38c-.2-.477.191-.19.868.636.678.826 1.506 1.227 1.842.891.335-.335.352.062.04.88-.723 1.884-1.167 1.878-1.845-.031zm-41.825-1.6c0-.843 23.556-25.453 24.364-25.453 1.73 0 .477 2.374-3.26 6.167l-4 4.062 2.184 2.893c1.202 1.592 2.674 4.55 3.272 6.573l1.087 3.68h7.222c5.841 0 7.221.248 7.221 1.298 0 1.115-2.693 1.298-19.045 1.298-10.475 0-19.045-.233-19.045-.518zm20.824-4.51c-.942-3.282-3.281-7.713-4.456-8.44-.92-.568-11.174 8.787-11.174 10.195 0 .372 3.673.677 8.163.677h8.164zm19.979-1.147c-2.332-5.61-2.314-5.944.316-5.944 2.437 0 2.675-1.157 1.277-6.192-.517-1.864-2.322-4.465-4.399-6.342-3.246-2.932-3.639-3.074-5.029-1.816-2.061 1.865-2.158 1.827-5.267-2.099L40.21 7.954h6.738c5.045 0 6.49.248 5.752.986-.738.74-.313 1.446 1.695 2.814 4.088 2.784 5.863 5.738 6.98 11.616.808 4.247 1.348 5.36 2.604 5.36 1.328 0 1.05.77-1.713 4.751-1.814 2.613-3.539 4.756-3.832 4.761-.294.006-1.365-1.99-2.38-4.433zM39.494 10.12c-1.117-1.188-1.84-2.352-1.605-2.586.234-.234 1.286.738 2.338 2.16 2.33 3.151 2.004 3.34-.734.426z"/></svg>