<svg xmlns="http://www.w3.org/2000/svg" width="80mm" height="50mm" viewBox="0 0 80 50"><path d="M40.5 44.812c-1.884-.529-4.023-4.434-3.46-6.314.25-.838 1.37-1.554 2.232-1.427.476.07.54.03.541-.327.001-.357.555-.695 4.567-2.784 4.12-2.147 4.624-2.367 5.176-2.263l.612.114-.563.343c-.557.339-.562.353-.477 1.408.19 2.369 2.438 5.164 3.693 4.592.214-.097.389-.116.389-.04 0 .384-1.328 1.221-5.067 3.193-4.8 2.531-4.702 2.515-6.225 1.074-1.305-1.234-2.264-3.185-2.274-4.626-.004-.523-.052-.55-.523-.298-.505.27-.689 1.215-.44 2.27.278 1.184.659 1.889 1.532 2.84.868.944 1.68 1.337 2.194 1.061.453-.242.577-.116.333.338-.154.288-1.394 1.092-1.59 1.03l-.65-.184zm12.572-7.877c-1.222-.547-2.757-3.34-2.512-4.57.086-.43.29-.612 1.166-1.043 2.058-1.016 3.76-1.105 5.691-.298.536.224.602.322.602.894 0 1.478-1.843 4.128-3.428 4.932-.801.406-.803.406-1.519.085zm-29.062-.741a18.434 18.434 0 0 1-1.52-.688c-.534-.289-.566-.355-.46-.941.195-1.084 1.12-2.406 2.368-3.387 1.538-1.208 2.173-1.418 3.072-1.012.571.257.772.5 1.272 1.541.754 1.566.986 2.722.689 3.426-.257.61-1.235 1.012-3.115 1.284-1.43.207-1.167.232-2.306-.223zm6.441-.236c-.598-.144-.652-.354-.121-.47 1.073-.237 1.036-2.334-.081-4.542-.753-1.488-1.362-1.973-2.288-1.82l-.601.1.593-.48c.374-.304 2.263-1.095 5.128-2.15l4.536-1.668.649.331c1.345.687 2.749 3.379 2.749 5.274 0 1.267-.293 2.051-.848 2.273-1.01.403-9.19 3.273-9.277 3.255-.053-.01-.25-.058-.439-.103zm11.036-3.947c-.402-.104-.381-.335.04-.446 1.179-.308.789-3.818-.61-5.497-.637-.765-1.527-1.214-1.954-.985-.483.258-.538.222-.335-.224.114-.25.49-.511 1.002-.696.758-.272.87-.274 1.489-.02 1.819.747 3.4 4.917 2.566 6.767-.287.635-.4.71-1.726 1.124-.094.03-.307.018-.472-.024zm8.574-3.567c-.456-.13-.974-.367-1.151-.528-.464-.42-.62-1.669-.27-2.168l.276-.393v.456c0 .763.833 1.212 2.422 1.304 1.97.114 3.59-.63 3.59-1.649 0-.678.451-.157.584.675.093.584.042.796-.298 1.243-.755.989-3.45 1.544-5.153 1.06zm-.224-2.661c-.8-.19-1.609-.828-1.605-1.265.001-.206-.09-2.13-.203-4.276-.169-3.214-.165-3.986.023-4.38l.229-.479.106.414c.277 1.075 2.371 1.551 4.3.979 1.15-.342 1.55-.695 1.56-1.376l.006-.532.289.515c.223.4.347 1.472.552 4.775l.263 4.26-.446.427c-.97.929-3.304 1.36-5.075.938zm-15.049-2.26c-.691-.517-.618-.826.172-.723.522.069.764-.008 1.274-.402 1.427-1.105 2.246-3.349 1.438-3.94-.314-.229-.308-.24.123-.24.249 0 .667.184.93.41.957.823.406 2.71-1.272 4.356-.78.765-1.016.9-1.556.896-.366-.004-.837-.155-1.109-.358zm-4.18-3.11c-3.31-2.53-3.254-2.479-3.425-3.054-.124-.421-.12-.423.221-.12.315.281.405.288.93.068 1.643-.686 3.222-3.66 2.246-4.229-.276-.16-.272-.175.043-.174.47 0 .652.122 3.848 2.541l2.804 2.123-.075.883c-.04.485-.217 1.18-.391 1.545-.462.966-1.856 2.27-2.64 2.47l-.656.166zm-4.243-4.251c-1.415-1.055-2.183-2.482-2.183-4.055 0-1.131 3.32-.986 4.938.217.985.731.688 1.985-.85 3.6-.698.734-1.162.792-1.905.238zm12.674-.331c-1.586-.728-2.617-2.375-2.01-3.213.161-.222.428-.45.593-.505.166-.056.3-.22.3-.363 0-.34 3.896-4.643 4.301-4.749.27-.07.288-.028.13.318-.516 1.134 2.226 3.283 3.112 2.44.185-.176.202-.139.098.206-.07.232-.978 1.372-2.017 2.534-1.758 1.965-1.932 2.111-2.51 2.11-.343 0-.856-.142-1.14-.316-.697-.424-1.583-1.326-1.716-1.746-.214-.675-.706-.267-.528.438.134.537 1.044 1.572 1.662 1.892.585.302 1.386.323 1.666.043.16-.16.206-.148.206.056 0 .316-.641.93-1.116 1.07-.189.055-.653-.042-1.03-.215zm10.925-.323c-.322-.035-.766-.183-.988-.329-.358-.234-.403-.395-.4-1.404.003-.627.08-1.47.174-1.874.188-.817.962-1.985 1.7-2.569l.485-.382.686.496c.824.597 1.288 1.223 1.852 2.499.855 1.932.372 3.216-1.294 3.438-1.314.175-1.612.191-2.215.125zM44.07 8.525c-.425-.325-.876-.84-1.002-1.145-.228-.55-.22-.565.586-1.295.45-.407 1.102-.819 1.45-.915.833-.232 1.7-.226 1.847.014.207.334.092 1.785-.196 2.484-.644 1.562-1.433 1.814-2.685.858z"/></svg>