<svg xmlns="http://www.w3.org/2000/svg" width="80mm" height="50mm" viewBox="0 0 80 50"><path d="M38.833 41.767c-1.738-.699-1.124-1.473 1.167-1.473 2.355 0 2.899.788 1.034 1.497-.6.227-1.125.402-1.168.387-.043-.015-.508-.2-1.033-.411zm.253-2.395c-1.046-.276-2.907-3.335-2.907-4.78 0-1.777.767-3.251 1.977-3.803 4.312-1.964 7.412 2.694 4.546 6.83-.616.887-1.269 1.614-1.451 1.614-.183 0-.587.073-.898.162-.31.089-.881.078-1.267-.024zm-6.02-2.545c-.156-.155-.283-1.107-.283-2.114 0-7.278 8.918-10.468 13.063-4.672 1.878 2.627 2.086 7.07.33 7.07-.489 0-.55-.227-.264-.98.205-.538.23-1.76.054-2.715-1.413-7.73-11.902-6.438-11.908 1.466-.001 2.067-.295 2.643-.992 1.945zm-9.516-.923c-3.328-.361-6.05-.787-6.05-.947 0-.397 7.836-1.38 10.178-1.277 1.045.045 1.796-.02 1.67-.146-.126-.126-2.366-1.278-4.977-2.56-2.612-1.281-4.748-2.399-4.748-2.483 0-.084 2.134.107 4.744.423 2.609.317 4.901.524 5.093.46.192-.065-1.947-1.912-4.753-4.106-2.807-2.193-5.02-4.071-4.919-4.172.157-.157 2.426.782 11.615 4.808.76.333 1.38.485 1.38.339 0-.147-.955-1.96-2.123-4.032-1.167-2.07-2.122-3.908-2.122-4.082 0-.174 1.624 1.3 3.608 3.274 2.54 2.527 3.609 3.353 3.609 2.792 0-.73-1.495-13.14-1.861-15.454-.406-2.565.658.383 2.529 7.006 1.133 4.01 2.185 7.215 2.339 7.12.153-.095.415-2.278.582-4.851.167-2.574.462-4.68.656-4.68s.49 2.106.656 4.68c.167 2.573.429 4.756.582 4.851.154.095 1.206-3.11 2.34-7.12 1.132-4.01 2.188-7.438 2.345-7.616.158-.179-.145 3.164-.674 7.429-.528 4.264-.97 8.13-.982 8.59-.016.63.673.157 2.782-1.91 3.075-3.013 3.23-2.72.962 1.804-1.571 3.132-1.535 3.491.231 2.293 1.653-1.122 11.695-5.516 11.972-5.24.1.1-2.114 1.978-4.92 4.171-2.807 2.194-4.946 4.041-4.754 4.105.192.065 2.484-.142 5.093-.459 2.61-.316 4.744-.507 4.744-.423 0 .084-2.136 1.202-4.748 2.484-2.611 1.281-4.851 2.433-4.977 2.559-.126.126.625.192 1.67.146 2.337-.103 10.178.88 10.178 1.276 0 .158-2.436.528-5.413.822-2.977.294-6.177.637-7.11.763l-1.699.23-.096-2.626c-.082-2.242-.31-2.916-1.558-4.616-4.787-6.521-15.164-2.757-14.745 5.348.11 2.124.888 2.028-8.33 1.027z"/></svg>