<svg xmlns="http://www.w3.org/2000/svg" width="80mm" height="50mm" viewBox="0 0 80 50">
  <path style="fill:#000;stroke-width:.57163864" d="M36.159 291.658c-8.707-2.174-14.534-8.61-16.079-17.761-.756-4.48 2.308-12.755 6.053-16.343 3.13-3 9.253-5.494 13.628-5.552 10.964-.146 20.275 9.018 20.275 19.958 0 10.33-8.193 19.057-18.758 19.982-1.62.142-3.924.015-5.12-.284zm10.297-3.49c14.047-5.204 14.704-25.784 1.022-32.035-4.345-1.985-10.893-1.868-15.252.272-3.685 1.81-6.373 4.585-8.116 8.38-1.722 3.748-1.664 10.675.123 14.667 3.64 8.131 13.435 11.973 22.223 8.717zm-11.697-3.627c-1.022-.444-1.857-1.013-1.855-1.264.001-.25.756-1.592 1.677-2.981l1.675-2.525H43.837l1.675 2.525c.922 1.389 1.676 2.73 1.678 2.983.005.94-4.074 2.113-7.268 2.092-1.818-.013-4.141-.386-5.163-.83zm3.614-10.907c-.494-.494-.899-1.248-.899-1.674 0-.427.405-1.18.899-1.674.494-.495 1.247-.899 1.674-.899 1.088 0 2.572 1.606 2.572 2.785 0 2.212-2.6 3.107-4.246 1.462zm-11.76-3.122c0-.953.399-2.69.886-3.858.964-2.315 4.643-6.413 5.757-6.413.382 0 1.448 1.306 2.37 2.901l1.674 2.902-1.628 1.627c-.947.948-1.628 2.244-1.628 3.101 0 1.432-.103 1.473-3.715 1.473h-3.716zm19.436.26c0-.857-.68-2.153-1.628-3.1l-1.628-1.628 1.675-2.902c.921-1.595 1.988-2.901 2.37-2.901 1.114 0 4.792 4.098 5.757 6.413.487 1.169.885 2.905.885 3.858v1.733h-3.715c-3.612 0-3.716-.04-3.716-1.473z" transform="translate(0 -247)"/>
</svg>
