<svg xmlns="http://www.w3.org/2000/svg" width="80mm" height="50mm" viewBox="0 0 80 50"><path d="M23.987 39.416c.123-.795.416-2.726.652-4.29.236-1.563.703-3.499 1.038-4.3.335-.803.524-1.545.42-1.65-.105-.104-1.268.47-2.585 1.275-1.317.806-2.466 1.394-2.552 1.307-.087-.087.528-1.093 1.368-2.237.839-1.143 1.43-2.232 1.315-2.42-.116-.187-2.108-.788-4.427-1.335L15 24.77l4.591-1.462 4.591-1.463-1.424-2.274c-.784-1.25-1.43-2.423-1.435-2.605-.004-.182 1.2.532 2.678 1.587 2.662 1.899 3.245 1.997 2.092.352-.327-.468-.888-2.602-1.246-4.743-.358-2.141-.75-4.358-.87-4.927-.12-.568 1.177 1.379 2.884 4.327l3.103 5.361.652-1.64c.36-.902.804-2.01.988-2.465l.335-.825.294 1.962c.162 1.08.384 1.962.493 1.962.108 0 .98-.375 1.938-.834l1.74-.834-1.033.82c-.568.45-3.133 2.292-5.7 4.093l-4.665 3.272 6.305 5.32c3.468 2.927 6.684 5.653 7.146 6.059.463.406-.763-.278-2.724-1.52l-3.565-2.256-.364 1.724-.364 1.725-.807-2.376c-.444-1.307-.909-2.374-1.032-2.372-.124.002-1.487 2.281-3.03 5.065l-2.806 5.06zm4.595-1.517l-.3-1.723.612-1.17.613-1.17.277 1.475.276 1.474-.589 1.42-.59 1.418zm19.439-2.912c-.818-2.454-1.487-4.613-1.487-4.798 0-.185.497-.278 1.105-.206l1.105.131 1.419 4.264c.78 2.345 1.353 4.322 1.272 4.393-.08.071-.547.252-1.037.403l-.891.273zm-9.707-3.06c-4.815-3.903-8.68-7.17-8.59-7.26.434-.434 17.443-12.032 17.528-11.952.054.05-.664 2.37-1.595 5.152-.93 2.783-1.563 5.19-1.405 5.346.158.157 2.085.258 4.282.223l3.995-.062 2.255-.798 2.255-.797 1.226-1.514 1.226-1.515.033-2.173c.019-1.196-.115-2.825-.296-3.621l-.33-1.447.673.827c.37.455 1.123 1.704 1.673 2.777l1.001 1.95v2.067c0 1.137-.292 2.678-.65 3.425-.819 1.712-3.186 3.421-6.263 4.523l-2.39.855-4.444.214c-2.444.117-4.444.337-4.444.489 0 .152.742 2.486 1.65 5.188.907 2.7 1.585 4.975 1.507 5.054-.079.078-4.083-3.05-8.897-6.952zM18.007 29.07c1.77-1.563 3.016-2.036 3.462-1.315.416.674-.47 1.334-2.863 2.134l-2.46.823zm40.724-.993c1.705-.765 4.162-3.42 4.979-5.38l.678-1.628-.284-2.27c-.155-1.25-.578-2.75-.938-3.334l-.654-1.063.753.694.752.695.492 2.614L65 21.02l-.606 2.179-.606 2.178-2.066 1.645-2.066 1.645-1.083-.016-1.083-.017 1.24-.556zm-12.197-6.435c0-.63 2.527-8.441 2.84-8.777.151-.163.669-.193 1.15-.068l.875.23-1.49 4.512-1.491 4.512h-.942c-.518 0-.942-.184-.942-.409zM18.172 19.91l-1.976-1.633 1.215.28c1.723.395 4.039 1.551 4.208 2.1.078.255-.22.559-.664.675l-.807.21zm18.646-4.059c.14-.227.349-.413.462-.413.114 0 .092.186-.048.413-.14.228-.349.414-.462.414-.114 0-.092-.186.048-.414z"/></svg>