<svg xmlns="http://www.w3.org/2000/svg" width="80mm" height="50mm" viewBox="0 0 80 50"><path d="M30.03 43.985l-1.902-.982-1.126-1.756-1.127-1.755-.261-1.907-.261-1.907.695-1.914.695-1.915 1.154-1.118 1.154-1.118V7.853l1.453-1.426L31.958 5h3.731l1.436 1.463 1.435 1.462-.027 10.793-.027 10.792 1.214 1.244c.668.684 1.516 2.037 1.885 3.008l.67 1.764-.206 1.94-.206 1.94-1.21 1.805-1.21 1.804-1.966.993L35.51 45l-1.79-.016-1.789-.017zm6.848-1.713l1.36-.693 1-1.576 1-1.576v-1.409c0-1.924-.584-3.516-1.741-4.746l-.972-1.033V8.592l-1.083-1.118-1.083-1.118h-3.056l-1.117 1.083-1.118 1.084v22.8l-.84.788c-.46.433-1.091 1.451-1.401 2.262l-.563 1.475.21 1.536c.262 1.906 1.513 3.795 3.184 4.807l1.274.772h1.793l1.794.002 1.36-.694zm-5.341-1.776c-.404-.226-1.07-.84-1.481-1.363l-.747-.953.159-1.909.158-1.91 1.14-.951c.627-.524.956-.952.73-.952h-.411v-3.99l.835-.548c1.016-.665 2.84-.694 3.68-.057l.618.468-.082 2.272-.082 2.273.696.553c.995.792 1.454 1.843 1.451 3.328l-.002 1.294-.655.994c-.36.547-1.008 1.19-1.439 1.429-.99.55-3.605.562-4.568.022zm4.32-13.604l-.823-.875h-2.593l-.678.678c-.373.373-.755.678-.848.678-.093 0-.17-4.166-.17-9.259V8.856l.952-.911.95-.911h2.726l.743.79.742.79-.09 9.577-.09 9.576zm.312-1.696c0-.172-.252-.591-.56-.932l-.562-.62H33.99c-1.146 0-2.565.808-2.565 1.46v.404h4.745zm-1.863-1.82c1.025.085 1.863.078 1.863-.016s-.252-.45-.56-.79l-.562-.62h-2.383l-.62.56c-.341.309-.62.785-.62 1.059v.497l.509-.422.509-.423zm-2.035-1.427c.274-.444 2.406-.436 3.243.012l.655.35V9.282l-.737-.785-.737-.785h-.85c-.47 0-1.205.332-1.637.737l-.784.738v13.102h.319c.175 0 .413-.153.528-.34zM47.93 32.166c-2.22-3.141-2.015-3.063.986.374l1.39 1.592 1.83-2.25a587.068 587.068 0 0 1 2.277-2.787l.446-.536-.277.52c-.33.621-3.837 5.827-4.136 6.138-.114.12-1.247-1.254-2.516-3.05zm-1.61-5.203c-2.133-2.64-4.073-5.071-4.312-5.402l-.434-.602 1.62.5c2.57.792 4.519 1.266 4.637 1.127.06-.07-.702-3.173-1.693-6.895-.991-3.721-1.77-6.798-1.731-6.837.038-.038 1.341.68 2.895 1.597 1.554.917 2.927 1.663 3.05 1.658.124-.005 1.444-.757 2.934-1.67 1.49-.913 2.756-1.613 2.814-1.554.059.058-.665 3.07-1.607 6.692-.942 3.622-1.712 6.757-1.712 6.966v.38l2.94-.994c1.616-.546 2.978-.954 3.025-.907.063.062-7.85 10.021-8.474 10.665-.041.043-1.82-2.083-3.953-4.724zM21.253 28.22v-.508h5.424v1.017h-5.424zm0-5.084v-.509h5.424v1.017h-5.424zm22.544-2.674l-2.371-.743.384-.237c.21-.13 1.254-.063 2.317.151l1.934.388.18.47c.1.259.124.525.054.592-.07.067-1.194-.212-2.498-.621zm10.343.578c.013-.712.65-1.09 2.367-1.402 1.024-.186 2.005-.25 2.181-.14.277.17-.893.658-3.79 1.577-.42.133-.761.117-.758-.035zm-32.887-2.82v-.339h5.424v.678h-5.424zm0-5.084v-.34h5.424v.679h-5.424zm26.102-4.293C45.958 8 44.75 7.248 44.672 7.173c-.077-.077-.053-.227.054-.334.108-.108 1.378.454 2.824 1.247l2.628 1.442 2.555-1.332c3.176-1.655 3.098-1.624 3.098-1.236 0 .33-5.199 3.483-5.67 3.44-.145-.014-1.407-.714-2.805-1.557zM21.254 8.22v-.508h5.424v1.017h-5.424z"/></svg>