<svg xmlns="http://www.w3.org/2000/svg" width="80mm" height="50mm" viewBox="0 0 80 50"><path d="M38.534 42.41l-3.615-2.581-.098-1a18.274 18.274 0 0 1-.084-1.017c.008-.01.29-.061.627-.113l.615-.095.114.914.114.913 3.484 2.437c3.024 2.114 3.574 2.438 4.159 2.45l.674.014-.59.323c-1.225.67-1.45.577-5.4-2.245zm2.03-1.2l-3.455-2.419-.109-.733c-.105-.706-.083-.754.59-1.304 1.727-1.412 4.408-4.382 5.643-6.254 1.81-2.741 3.057-6.209 3.487-9.69.057-.463.129-.925.16-1.026.04-.128.656-.095 2.052.11l1.995.293.72-.458.719-.459 2.314.328c1.272.18 2.336.347 2.364.37.027.025-.253 1.74-.624 3.813-.923 5.164-2.011 8.434-3.708 11.14-2.498 3.983-6.96 8.734-8.186 8.714-.373-.006-1.424-.65-3.962-2.426zm6.18-2.34c2.7-2.762 3.182-3.346 4.56-5.52 1.366-2.153 1.628-2.699 2.304-4.789.65-2.013 1.28-5.025 1.28-6.129 0-.213-.153-.348-.464-.407-.255-.05-.487-.066-.516-.038-.028.028-.164.912-.302 1.965-.158 1.208-.525 2.774-.994 4.245-.66 2.069-.914 2.6-2.265 4.731-1.378 2.174-1.807 2.688-4.548 5.448-2.974 2.995-3.02 3.052-2.656 3.306.203.143.417.263.476.268.058.004 1.464-1.381 3.125-3.08zm-4.548-2.248c3.178-3.246 4.73-5.626 5.959-9.144.733-2.098 1.338-4.67 1.34-5.695 0-.263-.13-.409-.43-.484-.235-.06-.458-.078-.495-.04-.037.036-.193.86-.348 1.831-.434 2.733-1.64 5.974-3.083 8.282-1.22 1.952-3.333 4.399-5.334 6.177-1.063.945-1.07.958-.729 1.25.19.162.425.295.522.295.097 0 1.267-1.113 2.598-2.473zm3.255.212c0-.335-.424-.626-.737-.505-.322.123-.37.849-.064.959.294.105.8-.182.8-.454zm1.202-1.194c.284-.325 1.167-1.595 1.96-2.823 1.288-1.991 1.53-2.497 2.236-4.676.695-2.144 1.501-6.132 1.283-6.35-.037-.038-.28-.084-.54-.103l-.472-.035-.283 2.033c-.18 1.299-.541 2.82-1 4.213-.604 1.833-.947 2.542-2.159 4.455-.792 1.251-1.66 2.51-1.926 2.796l-.486.522.387.27c.213.148.409.274.435.279.026.004.28-.257.565-.581zm-8.819-1.39c2.317-2.306 2.823-2.91 3.853-4.602 1.296-2.128 2.4-5.064 2.776-7.38.16-.989.314-1.374.762-1.912.653-.78.655-.769.294 1.671-.34 2.289-1.486 5.365-2.949 7.91-.781 1.36-1.44 2.23-2.58 3.404-1.964 2.022-3.87 3.562-4.41 3.562-.342 0 .043-.453 2.254-2.654zm-6.826.421c-.44-.962-3.086-3.381-3.379-3.088-.057.057-.137.558-.177 1.114-.04.555-.128 1.044-.195 1.086-.068.041-.219-.358-.336-.888-.117-.53-.248-1.021-.291-1.093-.043-.072-.682.373-1.42.99-.74.616-1.372 1.091-1.407 1.056-.035-.035.34-.745.834-1.58.714-1.205.84-1.522.619-1.548-.154-.018-.734-.085-1.29-.147l-1.012-.115 1.176-.326c.646-.179 1.21-.361 1.254-.405.044-.043-.485-.659-1.175-1.367-1.278-1.313-1.197-1.307.852.065.911.61 1.1.683 1.128.435l.15-1.309.119-1.01.297 1.15c.164.632.326 1.178.36 1.212.034.035.653-.434 1.374-1.04.722-.608 1.34-1.076 1.375-1.042.034.035-.31.706-.766 1.492-.455.786-.83 1.486-.832 1.555-.001.07.447.127.998.127 1.075 0 1.48.23.725.412a70.42 70.42 0 0 0-1.1.279l-.636.167.908.83c.817.747 2.303 3.086 2.094 3.296-.04.04-.151-.098-.246-.307zm1.214-5.69c-.172-3.15-.363-5.727-.425-5.727-.061 0-.924.569-1.917 1.264-.993.695-1.838 1.264-1.878 1.264-.04 0 .53-.812 1.267-1.805.736-.992 1.308-1.835 1.27-1.873-.038-.038-1.444-.32-3.125-.625-1.68-.306-3.083-.583-3.116-.617-.034-.034 1.354-.31 3.084-.613 1.73-.304 3.174-.58 3.21-.615.034-.035-.385-.657-.932-1.382a85.897 85.897 0 0 1-1.404-1.907l-.41-.59.84.605c1.806 1.298 3.077 2.176 3.151 2.176.043 0 .219-1.4.392-3.112.173-1.711.34-3.085.372-3.053.032.031.205 1.443.385 3.137.18 1.693.361 3.113.404 3.156.042.042.707-.375 1.477-.927a68.536 68.536 0 0 1 1.899-1.324c.614-.394.572-.32-.977 1.748-.644.86-1.132 1.602-1.084 1.649.047.047 1.48.338 3.183.647 1.703.308 2.983.604 2.844.657-.139.053-1.527.32-3.084.594-1.558.273-2.871.537-2.92.585-.048.048.434.796 1.072 1.662.637.866 1.222 1.678 1.3 1.806.18.297.082.237-1.989-1.22-.903-.636-1.676-1.123-1.717-1.082-.041.041-.217 2.555-.392 5.587-.174 3.032-.35 5.546-.391 5.587-.041.041-.216-2.502-.389-5.652zm16.936-9.507c-1.248-.19-1.259-.195-.843-.464.357-.23.601-.245 1.601-.1.649.096 1.212.203 1.252.238.08.073-.53.568-.662.537-.046-.01-.653-.106-1.348-.211zm-9.422-3.312c-.948-1.215-1.686-2.246-1.64-2.291.073-.074 6.057-1.402 6.314-1.402.056 0-.298.405-.787.9l-.889.9 1.317.285c.944.204 1.673.254 2.58.176 1.387-.12 1.633-.211 3.116-1.167l1.01-.652-1.296 1.425-1.297 1.425-1.92.631-1.918.632-1.334-.255c-1.827-.35-1.725-.39-1.565.62.076.482.114.9.085.929-.03.03-.828-.94-1.776-2.156zm-1.418-6.319c1.477-1.597 1.615-1.7 3.118-2.323 1.516-.629 1.619-.648 2.92-.54.74.062 1.508.152 1.705.202.329.082.37-.004.506-1.046L46.714 5 48.8 7.31c1.146 1.271 2.056 2.337 2.022 2.368-.082.076-5.743 1.275-6.017 1.275-.125 0 0-.307.302-.748.283-.411.455-.785.382-.83-.373-.23-3.465-.304-4.53-.107-1.353.25-1.44.29-2.995 1.398l-1.19.848z"/></svg>