<svg xmlns="http://www.w3.org/2000/svg" width="80mm" height="50mm" viewBox="0 0 80 50"><path d="M46.414 40.964v-4.037H38.34v-8.072h8.073v-8.073h8.072v8.046l3.94.11 3.94.11V36.734l-3.94.11-3.94.11V45h-8.072zm-22.961-.904c-2.798-1.433-5.16-2.68-5.252-2.773-.09-.092-.286-.816-.434-1.609-.253-1.351-.21-1.441.686-1.441.735 0 1.006.244 1.17 1.057.182.9.952 1.442 5.182 3.652 3.24 1.692 5.414 2.594 6.25 2.594 1.21 0 1.24.032.536.565-1.348 1.02-2.928.623-8.138-2.045zm2.69-2.115c-6.484-3.233-6.73-3.587-4.425-6.351 2.53-3.032 4.919-6.664 6.162-9.367 1.523-3.31 2.773-9.072 2.773-12.778V6.56h3.016c2.527 0 3.128-.124 3.711-.768.598-.66 1.184-.77 4.153-.77h3.457l-.272 5.863c-.28 6.03-1.236 12.069-2.315 14.607-.562 1.323-.74 1.442-2.145 1.442-.843 0-1.532-.063-1.532-.14 0-.076.53-1.31 1.18-2.74 1.65-3.64 2.452-8.622 2.31-14.35-.024-1.002-.176-1.25-.704-1.148-.567.11-.651.48-.54 2.353.074 1.223-.17 3.988-.542 6.145-.897 5.214-3.075 9.822-7.515 15.9-1.878 2.571-3.415 4.758-3.415 4.86 0 .102.244.28.542.394.49.188 3.647-3.516 5.267-6.18.864-1.42 1.11-1.011 1.11 1.842 0 2.681-.016 2.725-1.744 4.571-.959 1.026-2.047 1.944-2.417 2.041-.37.097-3.122-1.045-6.115-2.536zm2.037-7.642c4.131-5.76 6.172-11.723 6.411-18.733.085-2.471.005-2.889-.574-3.007-.581-.12-.673.175-.673 2.143 0 3.345-1.432 9.801-2.876 12.97-1.102 2.42-3.757 6.498-6.447 9.906-.723.916-.765 1.128-.282 1.427.652.403 1.173-.149 4.441-4.706zm3.626.666a.578.578 0 0 0-.576-.576.578.578 0 0 0-.577.576c0 .317.26.577.577.577.317 0 .576-.26.576-.577zm3.8-6.183c1.87-4.2 2.735-8.301 2.735-12.97 0-3.022-.073-3.377-.673-3.263-.554.106-.687.601-.755 2.815-.115 3.765-.875 8.927-1.55 10.544-.314.75-1.247 2.736-2.075 4.412-1.149 2.326-1.389 3.12-1.013 3.356.69.432 1.465-.707 3.33-4.894zm-16.383 6.28c3.191-3.792 4.8-6.279 6.168-9.53 1.494-3.557 1.987-5.6 2.404-9.98.15-1.585.51-3.224.797-3.64.46-.667.523-.363.518 2.498-.013 7.586-3.19 15.1-8.974 21.228-2.172 2.302-2.932 1.822-.913-.577zM32.556 5.62c.623-.75 4.012-.857 3.769-.119-.093.283-1.002.53-2.212.6-1.823.105-1.998.05-1.557-.481z"/></svg>