<svg xmlns="http://www.w3.org/2000/svg" width="80mm" height="50mm" viewBox="0 0 80 50"><path d="M29.91 43.919c0-1.003-.095-1.081-1.311-1.081-1.054 0-1.779-.384-3.694-1.955-3.754-3.08-3.894-3.253-4.16-5.135-.404-2.863-.49-3-1.85-3-1.134 0-1.237-.09-1.237-1.081 0-.961.12-1.082 1.08-1.082.595 0 1.082-.163 1.082-.363 0-.2.842-1.844 1.871-3.654 1.997-3.511 1.978-3.497 6.486-5.14 1.481-.54 1.704-.758 1.802-1.765.097-1 .26-1.164 1.26-1.26 1.085-.106 1.154-.039 1.26 1.213.112 1.31.15 1.339 3.063 2.389l2.95 1.063 2.005 3.444c1.103 1.893 1.488 3.418 1.488 3.591 0 .174 1.004.483 1.599.483.96 0 1.08.12 1.08 1.08 0 .998-.098 1.082-1.272 1.082-1.393 0-1.39-.004-1.97 2.952-.388 1.97-.522 2.15-3.424 4.594-2.504 2.11-3.24 2.544-4.303 2.544-1.185 0-1.283.082-1.283 1.08 0 .996-.1 1.082-1.26 1.082-1.162 0-1.262-.086-1.262-1.081zm0-4.505c0-1.201.06-1.261 1.261-1.261 1.201 0 1.261.06 1.261 1.261 0 1.97 1.26 1.712 4.264-.873 2.043-1.759 2.52-2.378 2.708-3.514.357-2.163.314-2.28-.845-2.28-.961 0-1.082-.12-1.082-1.08 0-.996.1-1.082 1.262-1.082.693 0 1.261-.14 1.261-.312s-.66-1.452-1.465-2.844c-1.375-2.375-1.593-2.577-3.55-3.29-1.148-.419-2.191-.76-2.32-.76-.128 0-.233.496-.233 1.103 0 1.028-.08 1.096-1.17.991-.977-.094-1.19-.278-1.286-1.104-.137-1.188-.215-1.195-2.759-.243-1.875.702-2.098.919-3.604 3.514l-1.238 2.807 1.061.069c1.316.102 1.429.194 1.429 1.17 0 .939-.125 1.061-1.081 1.061-.95 0-1.076.12-1.039.991.091 2.112.56 2.916 2.84 4.882 1.58 1.36 2.666 2.024 3.334 2.037.896.017.991-.103.991-1.243zm.328-5.714c-2.155-1.075-1.496-4.196.886-4.196 2.84 0 3.271 3.46.55 4.419-.32.112-.965.013-1.436-.223zm22.375-2.394c0-.545-.241-.721-.991-.722-1.247-.002-5.088-3.04-5.327-4.214-.093-.456-.253-1.235-.356-1.73-.139-.67-.418-.901-1.081-.901-.654 0-.894-.194-.894-.721 0-.442 1.13-.76 1.516-.768.401-.009.298-.944 1.261-2.632 1.457-2.553 1.596-2.682 3.604-3.35 1.596-.53 2.114-.878 2.203-1.476.164-1.116 1.506-1.069 1.506.052 0 .697.33.94 2.006 1.467 1.711.54 2.163.88 3.067 2.304.583.92 1.26 2.124 1.505 2.677.244.553.212 1.013.56 1.013.392 0 1.15.266 1.15.713 0 .523-.24.72-.879.72-.765 0-.91.21-1.122 1.625-.214 1.425-.51 1.848-2.396 3.424-1.276 1.066-2.506 1.798-3.022 1.798-.629 0-.869.2-.869.721 0 .48-.24.72-.72.72-.481 0-.721-.24-.721-.72zm-.066-3.157c.17-1.184 1.507-1.1 1.507.094 0 1.344.994 1.128 2.939-.638 1.917-1.742 2.674-3.867 1.376-3.867-.471 0-.711-.243-.711-.72 0-.535.24-.721.93-.721h.813l-.962-1.892c-1.03-1.805-1.769-2.416-3.574-2.958-.658-.198-.811-.103-.811.501 0 .505-.232.745-.72.745-.481 0-.721-.24-.721-.72 0-.868-.285-.89-2.11-.16-1.049.42-1.64 1-2.349 2.301-1.161 2.134-1.162 2.183-.046 2.183.66 0 .9.192.9.72 0 .516-.24.721-.843.721-.765 0-.824.119-.63 1.258.158.936.667 1.633 1.982 2.718 1.91 1.576 2.848 1.71 3.03.435zm-.641-4.384c-.746-1.394.762-2.93 2.148-2.189.8.428.958 1.78.288 2.45-.661.662-2.02.516-2.436-.261zm-13.347-5.792c0-.514-.24-.72-.836-.72-.46 0-1.514-.581-2.343-1.29-1.13-.968-1.506-1.552-1.506-2.342 0-.813-.073-1.062-.629-1.062-.48 0-.813-.232-.813-.712 0-.655.972-.721 1.22-.721.247 0 .13-.799.678-1.774.796-1.418 1.32-1.898 2.612-2.391 1.116-.426 1.617-.825 1.617-1.29 0-.369.243-.671.54-.671.297 0 .54.302.54.672 0 .464.5.863 1.617 1.289 1.293.493 1.816.973 2.613 2.39.548.976 1.199 1.775 1.446 1.775.744 0 .51 1.342-.27 1.546-.48.126-.72.491-.72 1.095 0 1.05-2.588 3.485-3.703 3.485-.386 0-.772.317-.878.72-.104.397-.413.722-.687.722-.274 0-.498-.325-.498-.721zm0-2.342c0-.298.243-.541.54-.541.297 0 .54.243.54.54 0 .818.986.65 2.367-.402 1.34-1.022 1.593-2.14.642-2.836-.66-.482-.382-1.266.447-1.266 1.02 0-.973-2.832-2.18-3.098-.664-.146-1.116-.083-1.2.17-.195.585-1.156.5-1.156-.101 0-.407-.235-.435-1.185-.144-1.319.405-3.3 3.173-2.27 3.173.828 0 .846 1.185.046 1.35-.925.676-.313 1.62.973 2.694 1.295 1.083 2.436 1.298 2.436.46zm-.346-3.226c-.378-.455-.378-.662 0-1.116.722-.87 1.967-.518 1.967.558 0 1.075-1.245 1.428-1.967.558z"/></svg>