<svg xmlns="http://www.w3.org/2000/svg" width="80mm" height="50mm" viewBox="0 0 80 50"><path d="M41.543 44.92l-1.15-.046-1.26-.882-1.262-.883-1.047-1.933-1.048-1.932-.648-2.716c-.397-1.659-.63-2.803-.602-2.94.324-1.551 1.056-5.147 1.078-5.297.027-.19-.065-.225-2.284-.884l-2.311-.687-1.408-1.175-1.407-1.175-2.49-3.977-2.49-3.977.183-1.57c.167-1.418.206-1.599.412-1.88.125-.172.68-.913 1.235-1.647l1.009-1.334 2.353-1.563 2.352-1.564 2.52-.93L35.799 5h4.086l1.2.806 1.199.807 1.623 3.71 1.623 3.71.38 1.82.382 1.82-.23 1.205c-.127.663-.32 1.66-.428 2.214a71.86 71.86 0 00-.232 1.228c-.034.213.017.24 2.146 1.092l2.181.874 1.796 1.893c2.242 2.366 3.808 4.413 4.686 6.128l.577 1.127-.14 1.182c-.078.65-.17 1.434-.205 1.741-.068.604.01.461-1.66 3l-.684 1.037-2.063 1.499c-1.135.824-2.132 1.534-2.216 1.579-.084.044-1.239.406-2.566.804L44.84 45l-1.075-.017c-.59-.01-1.59-.038-2.222-.063zm5.366-2.077l2.253-.813 2.106-1.475 2.106-1.474.785-1.259c.431-.692.815-1.393.851-1.557.037-.164.148-.853.246-1.53l.178-1.233-.522-.995c-.868-1.653-2.355-3.656-4.108-5.533-.843-.902-1.595-1.674-1.671-1.714-.077-.041-1.1-.44-2.273-.887-1.742-.664-2.152-.793-2.234-.702-.055.06-.301.347-.547.636-.246.29-.461.513-.477.497-.017-.016.1-.461.258-.988.159-.527.525-2.131.814-3.564l.526-2.605-.32-1.597-.32-1.596-1.176-2.69a221.74 221.74 0 00-1.243-2.813c-.043-.081-.087.054-.125.383-.056.496-.089.55-1.305 2.152l-1.248 1.644-2.335 1.547-2.336 1.547-2.563.943-2.563.943h-1.979c-1.411 0-2.007-.03-2.078-.1-.325-.325.013.27 1.584 2.787l1.757 2.813 1.294 1.085 1.295 1.085.954.281c.525.155 2.108.613 3.518 1.018l2.563.736-.892.075-.891.074-.226 1.102c-.124.606-.395 1.918-.602 2.916l-.376 1.814.424 1.758c.232.966.503 2.097.6 2.513.136.583.36 1.114.973 2.311.437.855.834 1.602.881 1.659.047.057.582.416 1.19.798l1.103.694 1.64.046c.9.025 1.778.053 1.948.063.214.012 1.012-.235 2.563-.795zm-4.596-.95c-.637-.046-.828-.104-1.764-.537a32.17 32.17 0 01-1.073-.51c-.013-.013-.153-.692-.311-1.51-.28-1.448-.287-1.524-.238-2.974l.05-1.488.642-1.68c.492-1.286.74-1.815 1.054-2.25.226-.312.437-.539.47-.504.031.035.121.263.2.505.079.243.165.442.19.442.072 0-.04-1.34-.2-2.395-.138-.912-.148-.937-.736-1.861l-.595-.937-.845-.39c-.845-.39-.847-.391-1.723-.38-.734.01-1.104-.039-2.264-.299-.762-.17-1.696-.376-2.075-.457-.539-.114-.757-.207-1.006-.425l-.318-.28.334.057c.184.032.674.078 1.09.102.694.041.862.017 2.017-.291l1.26-.336-1.386.045c-.762.024-1.429.057-1.48.073-.09.027-2.282-.497-2.34-.559-.087-.092.672-1.567 1.122-2.183l.53-.725 1.861-1.137c1.45-.886 2.246-1.307 3.6-1.901l1.737-.763h.995c.934 0 1.302.059 2.391.384.12.036.089.168-.237.979-.381.947-.494 1.11-2.289 3.295-.073.09.403-.285 1.058-.832.885-.74 1.249-1.102 1.416-1.408.123-.227.237-.4.253-.385.015.016-.04.52-.123 1.12-.135.973-.208 1.226-.68 2.35-.29.694-.61 1.375-.712 1.513-.142.193-.21.47-.291 1.177l-.106.924.378.967.378.966.954.865c.525.476 1.105.986 1.29 1.135l.333.269-.202-.336c-.111-.185-.252-.411-.313-.502a.662.662 0 01-.111-.238c0-.152 1.188.055 2.395.417.693.208 1.336.398 1.429.423.392.106 2.389 1.26 3.178 1.838.696.51.999.808 1.627 1.599.425.535.759 1.016.743 1.07-.017.054-.094.458-.172.897-.13.735-.192.881-.774 1.849l-.633 1.05-1.859 1.396-1.858 1.396-1.92.726-1.92.726-.853-.015a34.458 34.458 0 01-1.568-.066zM31.967 16.307c1.67-.617 2.542-.986 2.936-1.242.309-.2 1.299-.85 2.2-1.445l1.639-1.082 1.09-1.436 1.09-1.437.145-1.009c.228-1.595.294-1.416-.787-2.136l-.937-.624-1.743.02-1.744.022-2.339.865-2.338.866-2.184 1.442-2.183 1.442-1.1 1.447-1.099 1.446-.143 1.05a19.561 19.561 0 00-.142 1.225c.002.127.258.35.943.82l.94.645h3.38zm-5.032-.108c-.07-.027-.434-.247-.81-.49l-.683-.44.064-.323.174-.911c.105-.564.152-.642 1.097-1.857l.987-1.269 1.918-1.26 1.917-1.262 2.185-.781c1.201-.43 2.222-.78 2.269-.78.607.015 2.644.139 2.622.16-.015.016-.63.162-1.367.326-1.086.242-1.746.459-3.482 1.145-2.117.836-2.162.86-3.661 1.864l-1.518 1.018-.751 1.03c-.543.745-.824 1.223-1.014 1.726l-.263.696.22.41c.207.383.269.428.928.692.388.155.725.301.75.325.059.06-1.425.042-1.582-.019z"/></svg>
