<svg xmlns="http://www.w3.org/2000/svg" width="80mm" height="50mm" viewBox="0 0 80 50"><path d="M51.767 44.35l-1.064-.65-.103-1.6-.102-1.599-1.75-.814-1.75-.813v-.687l-.001-.686 1.794.112 1.794.112 2.143-1.423 2.142-1.422 1.374-2.023 1.374-2.023-.321-1.96c-.177-1.079-.274-2.01-.215-2.069.06-.059.542.438 1.074 1.104l.966 1.211.242 1.524.243 1.524-.93 1.178c-.51.648-1.323 1.957-1.806 2.91l-.878 1.732.216 2.804.215 2.804-1.588.702c-.874.387-1.683.703-1.797.702-.114 0-.687-.293-1.272-.65zm-6.852-8.997c-1.788-.315-3.343-.667-3.457-.78-.113-.114.6-.606 1.584-1.094l1.79-.886 1.593-2.095c.877-1.153 2.115-3.296 2.75-4.763l1.156-2.668v-1.889c0-1.038-.16-2.216-.355-2.616l-.356-.728.606.719c.333.396 1.693 1.99 3.023 3.542l2.417 2.822.214 2.525.213 2.525-1.281 1.98-1.282 1.979-1.734 1.037-1.735 1.038-.948-.037c-.522-.02-2.41-.295-4.198-.61zm8.083-2.146c0-.254-.896-.996-1.992-1.648l-1.992-1.187-.208.337c-.114.185-.156.385-.091.446.17.16 4.102 2.51 4.2 2.512.046 0 .083-.207.083-.46zm1-1.529c0-.178-.84-.943-1.865-1.701l-1.866-1.378-.325.324-.324.325 1.94 1.376c1.067.757 2.053 1.377 2.19 1.377.138 0 .25-.145.25-.323zm.988-1.76c-.008-.23-.846-.996-1.865-1.703l-1.851-1.286-.312.312-.312.312 1.926 1.377c1.06.758 2.039 1.384 2.176 1.391.138.008.245-.174.238-.404zM36.2 33.044c-1.281-.28-2.245-1.64-2.554-3.607l-.253-1.604.465-2.254c.256-1.239.832-2.964 1.28-3.833 1.261-2.443 3.579-5.015 5.632-6.252l1.866-1.124 2.076.231 2.077.232.902 1.5.902 1.5-.182 2.666-.183 2.667-1.074 2.334c-1.295 2.81-3.688 5.67-5.784 6.91l-1.539.912-1.333-.034c-.734-.018-1.768-.128-2.298-.244zm4.229-2.261l1.064-.55-.664-.288-.665-.288.915.125.915.125.333-.402.333-.401-3.427-1.052C37.348 27.474 35.65 27 35.46 27h-.347l.134 1.083c.073.596.381 1.571.684 2.167l.552 1.083h1.44c.793 0 1.92-.248 2.506-.55zm-1.181-.337c.229-.093.604-.093.833 0 .23.092.042.168-.417.168-.458 0-.645-.076-.416-.168zm-2.494-.344c.324-.084.774-.079 1 .013.226.091-.04.16-.59.153l-1-.012.59-.154zm2.16-.656c.23-.093.605-.093.834 0 .229.092.041.168-.417.168-.458 0-.646-.076-.417-.168zm-1.312-.34c.24-.097.528-.085.639.026.11.11-.086.19-.438.175l-.639-.027zm-1.688-.327c.23-.093.605-.093.834 0 .229.092.041.168-.417.168-.458 0-.646-.076-.417-.168zm8.192-1.292c1.32-1.656 2.237-3.878 2.57-6.236l.285-2.017-.632-1.239-.632-1.239-1.587-.179-1.588-.178-1.399.962c-2.67 1.837-5.007 5.236-5.607 8.154l-.208 1.016 3.428 1.034c1.886.568 3.654 1.049 3.929 1.067.275.02.923-.496 1.44-1.145zm-17.59 1.43c-.07-.23-.29-.927-.49-1.55-.199-.624-.362-1.247-.362-1.386 0-.259 2.814-1.315 3.505-1.315.212 0 .61.806.884 1.79l.498 1.791-1.723.543c-.947.299-1.827.543-1.954.543s-.288-.187-.358-.417zm4.47-2.3c-.214-.798-.458-1.563-.542-1.7-.084-.138-.019-.25.144-.25.292 0 1.133 3.053.904 3.283-.064.064-.292-.536-.506-1.333zm-6.014-3.83c-1.557-4.007-2.547-6.761-3.487-9.7l-1.092-3.414 2.17-.67c1.194-.369 2.224-.67 2.29-.67.24 0 1.505 4.528 2.498 8.946.563 2.504 1.093 4.797 1.177 5.094l.153.54-.925.202a33.58 33.58 0 0 0-1.67.414l-.743.212zm4.585-.454c-.101-.275-.663-2.673-1.248-5.329-.585-2.656-1.27-5.412-1.52-6.125-.578-1.637-.575-1.904.02-1.675l.479.183.825 3.556c1.3 5.61 1.946 9.044 1.78 9.484l-.151.406zm1.774-3.648v-1.352h3.04l-.103 1.25-.104 1.25-1.416.102-1.417.103zm1.25-2.924l-.915-.14-.147-.727c-.274-1.354-.466-7.167-.283-8.536L31.42 5h3.346l-.226 3.75c-.287 4.766-.578 7.264-.837 7.2a23.792 23.792 0 0 0-1.12-.188zm2.083-.095c0-.244.1-.344.223-.222a.315.315 0 0 1 0 .444c-.123.122-.223.022-.223-.222zm.567-4.167c.096-2.017.3-4.192.456-4.833l.281-1.167-.186 2.833c-.102 1.559-.307 3.734-.455 4.834l-.27 2z"/></svg>