<svg xmlns="http://www.w3.org/2000/svg" width="80mm" height="50mm" viewBox="0 0 80 50"><path d="M38.416 43.24v-1.76h-4.179l-4.53-3.807-4.53-3.808-.536-3.085c-.788-4.54-.563-4.195-2.744-4.195H20l.096-1.664.096-1.664 1.506-.097c1.08-.07 1.505-.23 1.505-.57 0-.26 1.302-2.735 2.893-5.499l2.893-5.025 4.713-1.691 4.714-1.69V5l1.664.096 1.664.096.094 1.805.095 1.805 1.648.612c.907.337 2.94 1.077 4.518 1.646l2.868 1.033 2.836 4.948c1.56 2.722 2.881 5.19 2.936 5.486.073.398.485.563 1.584.634l1.486.096.095 1.648.096 1.649-1.984.094-1.984.095-.647 3.57-.647 3.572-4.506 3.798-4.506 3.798h-3.791l-.095 1.664-.096 1.663-1.664.096-1.664.096zm0-6.989v-1.743h3.486v3.486h1.44c1.355 0 1.645-.173 4.906-2.93 3.767-3.184 3.51-2.747 4.295-7.29l.205-1.19h-3.24V23.099h1.902c1.046 0 1.898-.107 1.893-.237-.005-.131-1.038-2.003-2.297-4.16l-2.29-3.92-3.328-1.226c-1.83-.673-3.363-1.227-3.407-1.229-.043-.001-.079.71-.079 1.581v1.585h-3.486v-1.585c0-.871-.121-1.584-.27-1.584-.147 0-1.752.545-3.565 1.212l-3.296 1.213-2.298 3.922c-1.264 2.157-2.298 4.036-2.298 4.175 0 .14.856.253 1.902.253h1.901v3.487h-1.584c-1.81 0-1.762-.137-1.17 3.282l.377 2.173 3.487 2.967c3.427 2.918 3.514 2.968 5.15 2.978l1.664.01zm.475-8.067c-.835-.346-1.932-1.578-2.205-2.476-.12-.395-.054-1.213.145-1.817 1.213-3.675 6.656-2.935 6.656.904 0 1.61-.675 2.657-2.092 3.25-1.185.495-1.589.517-2.504.139z"/></svg>