<svg xmlns="http://www.w3.org/2000/svg" width="80mm" height="50mm" viewBox="0 0 80 50"><path d="M26.04 44.817c-.696-.29-1.412-1.21-5.342-6.867-3.971-5.718-3.894-5.388-2.483-10.53 1.738-6.335 1.914-6.84 2.679-7.692.652-.727 1.1-.93 6.401-2.9 3.136-1.165 6.135-2.176 6.667-2.247 1.813-.243 1.904-.16 6.753 6.178 4.062 5.311 4.372 5.773 4.383 6.526.014.912-1.99 9.081-2.523 10.288-.844 1.912-2.391 2.892-8.227 5.209-5.2 2.065-7.112 2.533-8.308 2.035zm3.045-6.278c.937-2.777 1.865-5.196 2.079-5.424.25-.267 2.618-1.184 6.761-2.619 4.782-1.655 6.404-2.296 6.49-2.56.062-.194.06-.405-.005-.47-.065-.064-3.007.857-6.54 2.046-3.531 1.19-6.639 2.159-6.904 2.154-.266-.005-.662-.158-.88-.34-.218-.183-2.073-2.767-4.123-5.742-2.05-2.976-3.845-5.533-3.99-5.684-.224-.233-.294-.201-.487.22-.257.565-.64-.059 4.687 7.652 2.451 3.548 3.247 4.844 3.247 5.286 0 .322-.696 2.719-1.546 5.327-1.21 3.708-1.497 4.8-1.322 5.011.567.684.832.176 2.532-4.857zm2.435 4.136c1.197-.674 2.013-2.346 1.282-2.627-1.09-.418-3.15 1.642-2.732 2.732.153.398.617.364 1.45-.105zm7.777-3.272c.32-.385.558-.9.558-1.207 0-.446-.083-.536-.493-.536-.75 0-1.568.505-2.11 1.303-1.316 1.937.48 2.324 2.045.44zm-6.473-.21c.863-.534 1.428-1.362 1.428-2.094 0-.734-.465-.796-1.522-.202-.817.459-1.377 1.326-1.377 2.131 0 .7.513.756 1.471.164zm7.949-3.464c.239-.35.435-.843.435-1.092 0-.374-.101-.455-.564-.455-1.143 0-2.528 1.314-2.528 2.4 0 1.03 1.76.465 2.657-.853zm-6.635-.21c1.288-.76 1.913-2.366.989-2.542-1.007-.193-2.61 1.288-2.613 2.413-.001.435.084.531.47.531.26 0 .78-.18 1.154-.402zm-10.134-.938c.328-.613.23-1.407-.3-2.43-.595-1.148-1.117-1.64-1.74-1.64-.983 0-.796 1.95.341 3.564.68.963 1.348 1.162 1.699.506zm16.95-1.45c.864-.586 1.41-1.395 1.412-2.089 0-.435-.085-.531-.471-.531-.703 0-1.77.707-2.221 1.472-.885 1.5-.175 2.138 1.28 1.149zm-8.94-3.828c.139-.395.105-.697-.137-1.204-.238-.499-.274-.803-.138-1.16.106-.28.11-.486.011-.486-.095 0-.423-.21-.728-.467-.578-.486-.798-.481-2.76.054-1.113.303-.522 1.871.785 2.08.59.094.846.255 1.058.666.33.639 1.034 1.177 1.438 1.1.157-.03.37-.293.471-.583zm9.353-3.005c.034-.242-.105-.725-.31-1.073-.365-.618-.365-.644-.014-1.076.463-.573.454-1-.035-1.524-.497-.533-1.463-.55-2.118-.036-.266.208-.635.38-.821.382-.27.005-.339.175-.339.855 0 .767.056.87.568 1.048.32.112.704.463.882.806.313.607 1.284 1.19 1.835 1.104.16-.025.318-.243.353-.486zm-6.4.058c1.169-.347 1.573-.73 1.219-1.156-.32-.385-.108-.872.378-.872.483 0 .546-.792.094-1.167-.165-.137-.52-.713-.788-1.281-.843-1.782-2.482-2.578-4.373-2.123-.78.187-1.884 1.257-1.882 1.824.003.715.408 1.734.858 2.157.26.245.532.717.603 1.049.201.943.438 1.126 1.273.985.661-.112.76-.074.964.375.266.583.356.594 1.653.209zm-.909-.967c-.229-.601-.25-1.064-.048-1.055.312.014 1.223.972 1.105 1.163-.084.136-.227.12-.435-.049-.198-.16-.26-.168-.172-.023.075.126.048.283-.06.35s-.284-.107-.39-.386zm-2.31-.711c-.474-.508-.496-.801-.091-1.206.467-.467 1.006-.366 1.324.247.251.487.25.6-.007.966-.37.529-.73.526-1.228-.007zm2.591-1.018c-.537-.537-.613-1.03-.184-1.195.846-.324 2.148.77 1.642 1.38-.353.425-.92.353-1.458-.185zm-6.973-.009c.304-.159.814-.288 1.133-.288h.58l-.135-.918c-.1-.692-.273-1.03-.702-1.37-.312-.248-.7-.709-.863-1.023-.349-.674-1.107-1.027-1.62-.753-.602.323-.63.785-.089 1.494l.507.665-.407.434c-.628.669-.525 1.369.27 1.82.51.289.67.281 1.326-.06zm10.011-3.38c.507 0 1.283-.402 1.41-.73.16-.42-.403-1.18-.963-1.296l-.949-.196c-.327-.068-.537-.304-.695-.786-.281-.85-.941-1.21-1.639-.892-.589.269-.603.566-.076 1.577.224.429.353.919.288 1.089-.08.208.15.546.704 1.039.742.658.86.704 1.204.462.21-.147.532-.267.716-.267zM48.84 31.812c-1.382-.542-2.535-1-2.564-1.017-.028-.019.13-.795.352-1.727.52-2.193.4-2.89-.808-4.68-.517-.767-.941-1.493-.941-1.614s.725-1.495 1.612-3.052a673.13 673.13 0 0 0 2.657-4.712c1.524-2.743 1.14-2.784 7.359.79 2.787 1.6 5.097 2.882 5.132 2.846.036-.035-.038-.289-.163-.563-.338-.742-10.23-6.402-10.897-6.234-.384.096-.496.034-.586-.327-.17-.673-7.64-5.414-8.689-5.515-.497-.048-.704-.009-.58.111.107.102 1.802 1.214 3.768 2.47 1.966 1.257 3.72 2.406 3.896 2.554.8.672.678 1.019-2.081 5.853-1.453 2.546-2.695 4.625-2.76 4.621-.064-.005-.465-.501-.89-1.106a649.322 649.322 0 0 0-1.416-2.003c-.624-.88-.634-.92-.338-1.493.457-.883.387-1.778-.186-2.397-.563-.607-1.328-.692-1.865-.206-.335.304-.387.293-.884-.181-.646-.616-2.323-1.357-2.793-1.234-.19.05-.344.053-.344.009 0-.367 3.388-6.684 3.834-7.148.52-.54.726-.612 2.122-.728L42.334 5l3.157 1.373c5.066 2.203 10.202 5.235 14.091 8.317 1.534 1.216 1.715 1.435 2.373 2.874l.712 1.557-.66 1.315c-.746 1.485-2.825 5.236-4.704 8.485-.907 1.567-1.543 2.419-2.273 3.043-.996.85-1.04.866-2.346.85-1.123-.013-1.727-.17-3.844-1.002zm5.635-1.326c.904-.75 1.324-2.752.693-3.298-.89-.77-2.145-.389-2.937.893-.608.983-.411 2.472.355 2.698.48.141 1.57-.028 1.889-.293zm-1.716-12.06c1.354-1.159 1.3-2.721-.116-3.313-.578-.242-.7-.23-1.255.115-1.983 1.236-1.71 3.523.46 3.866.061.01.47-.29.911-.668zm-6.198-3.146c.814-1.069.847-1.89.105-2.58-.818-.76-1.625-.831-2.231-.196-.97 1.015-1.177 2.35-.5 3.21.343.437.534.51 1.2.46.675-.049.883-.18 1.426-.894zm7.264-3.4c-.442-.786-3.67-2.643-4.546-2.615-.505.016 1.167 1.221 2.832 2.041.948.467 1.757.85 1.797.85.04 0 .002-.124-.083-.275zm-13.198-1.3c.713-.984.773-1.962.16-2.615-.793-.844-2.278-.41-2.65.777-.324 1.032-.31 1.555.058 2.11.283.427.498.53 1.101.53.657 0 .822-.099 1.33-.801z"/></svg>