<svg xmlns="http://www.w3.org/2000/svg" width="80mm" height="50mm" viewBox="0 0 80 50"><path d="M33.585 38.874l-6.326-6.127.116-.537.115-.537 6.224 6 6.223 6 6.365-6.047 6.365-6.047.116.591.117.592-.788.743-6.495 6.12L39.91 45zm-.388-3.807L26.819 29.1l-.553-7.696c-.305-4.233-.636-8.716-.736-9.962l-.183-2.266h2.014c4.68 0 9.44-1.365 11.47-3.29L39.768 5l.453.326c.25.18 1.004.764 1.677 1.298l1.224.97 2.255.65c1.24.356 3.811.77 5.713.92 1.902.148 3.503.326 3.558.394.056.067-.327 4.499-.85 9.847l-.953 9.725-1.096 1.06c-3.123 3.024-11.766 10.875-11.955 10.86-.12-.01-3.088-2.702-6.596-5.983zm12.685-1.04l5.825-5.363.756-7.813c.416-4.297.836-8.356.934-9.02l.178-1.206-3.308-.22c-3.917-.263-6.864-1.092-8.93-2.513l-1.503-1.034-1.305.938c-.717.516-1.92 1.177-2.673 1.47-1.478.573-5.756 1.254-7.887 1.254-.725 0-1.318.072-1.318.16 0 .087.309 4.183.686 9.101l.686 8.942 1.896 1.725c1.042.948 3.641 3.34 5.775 5.314 2.135 1.975 3.99 3.599 4.122 3.609.133.01 2.862-2.395 6.066-5.345zm-1.272-2.005l1.679-1.765-2.144 1.069-2.143 1.069 1.22-1.49c.671-.818 1.22-1.582 1.22-1.697 0-.115-.377-.065-.839.11-.461.176-.84.233-.84.128 0-.106.313-.63.695-1.167.382-.536.63-.975.55-.975-.08 0-.717.455-1.417 1.012-.7.556-1.322.962-1.382.902-.06-.06-.283-1.308-.495-2.774-.213-1.465-.5-2.878-.639-3.139l-.252-.474-.244 3.076-.243 3.076h-.416c-.229 0-.69-.302-1.024-.672-.334-.369-.74-.671-.903-.671h-.295l.347.65c.192.356.348.813.348 1.015v.366l-1.058-.547-1.059-.547 1.31 1.624 1.31 1.625-.91-.583c-1.121-.715-1.49-.747-.936-.078.522.628.092.628-1.007 0-1.38-.79-1.405-.573-.079.691l1.254 1.195-3.427-2.44c-1.885-1.342-3.394-2.472-3.354-2.512.04-.04.978.14 2.084.4s2.238.475 2.515.476l.504.003-1.007-.677-1.008-.677 1.47.225 1.468.225-1.166-1.822c-.641-1.003-1.359-2.183-1.594-2.622l-.427-.8 2.139 1.495c1.176.822 2.334 1.614 2.572 1.761l.433.267-.205-.951-.205-.952.66.75.66.75.174-.75c.096-.412.444-3.804.773-7.536.33-3.733.634-6.753.675-6.712.041.042.315 2.718.607 5.948.293 3.23.62 6.589.729 7.465l.196 1.593.663-.754.664-.754-.205.952-.205.95.433-.253c.239-.14 1.412-.945 2.608-1.79l2.174-1.537-1.444 2.632c-.795 1.448-1.372 2.705-1.283 2.794.09.09.667-.082 1.284-.381l1.123-.544-1.007.853-1.007.853.67-.003c.37-.001 1.492-.22 2.495-.487l1.822-.485-.647.6c-.357.331-2.007 1.632-3.67 2.892l-3.02 2.29zm-12.6-5.937c-.824-.468-1.574-.932-1.666-1.03-.093-.098.36-.071 1.007.06 1.126.23 2.655 1.325 2.319 1.66-.089.089-.836-.222-1.66-.69zm14.424.255l.336-.629 1.503-.378c.826-.208 1.624-.371 1.773-.363.315.019-3.292 1.96-3.685 1.983-.145.009-.112-.267.073-.613zm-2.965-3.4c-.01-.461.28-1.217.647-1.678l.666-.84-.462 1.176c-.254.646-.545 1.401-.647 1.678l-.185.504zm-8.032-1.124c-.21-.558-.345-1.05-.3-1.095.045-.046.405.41.8 1.013l.717 1.094h-.417c-.23 0-.59-.455-.8-1.012z"/></svg>