<svg xmlns="http://www.w3.org/2000/svg" width="80mm" height="50mm" viewBox="0 0 80 50"><path d="M33.235 38.949l-6.196-6.035.115-.534.115-.534 6.267 6.042 6.267 6.041 6.403-6.103 6.402-6.103.11.565.109.565L49 36.483a2115.145 2115.145 0 0 0-6.384 6.082c-1.407 1.349-2.7 2.444-2.872 2.435-.172-.01-3.102-2.733-6.51-6.051zm.452-3.256a1161.093 1161.093 0 0 1-6.544-6.04l-.463-.452-.623-8.394c-.342-4.616-.628-9.115-.635-9.998l-.011-1.605h1.665c4.687 0 9.59-1.398 11.608-3.312L39.625 5l.457.328c.25.181 1.017.774 1.702 1.318l1.247.988 2.93.784 2.931.784 2.365.006c1.3.004 2.583.144 2.849.313l.483.306-.938 9.74c-.516 5.357-.962 9.75-.99 9.762-.092.038-9.79 8.994-11.372 10.502l-1.522 1.45zm13.009-2.51c2.508-2.306 4.664-4.501 4.79-4.879.127-.377.547-4.031.934-8.12.387-4.087.78-7.903.874-8.48l.17-1.046-3.3-.22c-3.915-.263-6.884-1.1-8.959-2.527L39.692 6.87l-1.313.944c-2.042 1.469-3.875 2.03-8.084 2.477l-3.89.413.175 1.362c.097.749.418 4.782.714 8.963l.538 7.602.9.9c.496.495 3.177 2.965 5.957 5.489l5.055 4.588 1.196-1.116c.657-.614 3.247-3.003 5.756-5.309zm-12.128-.633c-.577-.54-1.049-1.178-1.049-1.42v-.438l.256.321c.141.177.702.815 1.246 1.419 1.228 1.363.956 1.434-.453.118zm1.59-.625c-.667-.697-1.476-1.79-1.798-2.428l-.585-1.16.18-1.88c.192-1.98 1.495-5.527 1.933-5.257.14.088.365.882.497 1.766l.241 1.608.81-1.012c1.347-1.682 1.907-3.21 2.126-5.798l.208-2.464 2.41 3.144 2.41 3.145.226 1.832c.124 1.007.308 2.258.408 2.78l.182.947.814-.533.813-.533v1.183c0 1.749-.907 3.581-2.42 4.887l-1.338 1.157.262-.988c.336-1.26.26-2.437-.238-3.702l-.394-1.001-.48 1.351c-.265.743-.768 1.639-1.118 1.99l-.637.638-.196-1.483a55.957 55.957 0 0 1-.28-2.665l-.087-1.183-.929 1.647c-.51.907-.929 1.92-.929 2.253 0 .333-.094.85-.208 1.149l-.209.543-.452-.375-.452-.375.3 1.042c.164.573.264 1.042.221 1.042-.042 0-.623-.57-1.29-1.267zm.627-2.674c-.124-.124-.225-.023-.225.225s.101.349.225.225a.32.32 0 0 0 0-.45zm8.109-1.014a.32.32 0 0 0-.45 0c-.125.124-.023.225.224.225.248 0 .35-.101.226-.225zm-2.027-3.379c-.124-.124-.226-.022-.226.226 0 .247.102.349.226.225a.32.32 0 0 0 0-.45zm-2.253-2.795c0-.175-.152-.412-.338-.527l-.338-.209v.527c0 .29.152.527.338.527.186 0 .338-.143.338-.318zm-7.863 1.692c-.257-.986.148-2.038 1.116-2.895l.764-.675-.446.844c-.245.465-.623 1.442-.839 2.17l-.393 1.326zm13.274-.88c-.003-.38-.301-1.27-.663-1.98l-.657-1.29.636.576c.35.317.782.996.96 1.508l.326.932-.299.471-.298.471zm-8.964-6.914l.206-1.182-.519-1.69c-.285-.928-.52-1.871-.522-2.094l-.004-.405 2.409 1.423c1.325.782 2.789 1.915 3.253 2.517.464.601.753 1.094.643 1.094-.11 0-.7-.439-1.31-.974-.61-.536-1.66-1.204-2.331-1.485l-1.222-.51.164 1.454.164 1.454-.568.79-.569.79z"/></svg>