<svg xmlns="http://www.w3.org/2000/svg" width="80mm" height="50mm" viewBox="0 0 80 50"><path d="M40.698 44.517c0-.265.133-.564.296-.665.368-.228 1.117.624.815.926-.398.398-1.111.23-1.111-.261zm-8.646-2.472l-1.793-1.25-.63-1.658c-.346-.913-.63-1.732-.63-1.82 0-.09.396.437.88 1.17.483.732 1.644 2.12 2.578 3.085.935.965 1.63 1.748 1.544 1.739-.086-.01-.962-.579-1.949-1.266zm2.249-1.308c-1.21-1.241-2.693-3.138-3.295-4.215l-1.095-1.958.228-3.025.229-3.026 1.443-3.497c.793-1.924 1.52-3.367 1.615-3.206.095.16.438 1.533.762 3.05.324 1.516.692 2.757.817 2.757.126 0 .939-1.122 1.808-2.494l1.58-2.495.625-2.252.625-2.253-.189-3.024-.188-3.024 4.29 5.515 4.291 5.515.57 4.45c.312 2.447.66 4.543.774 4.657.114.113.7-.272 1.304-.857.604-.585 1.207-1.064 1.342-1.064.416 0-.141 4.422-.782 6.205l-.608 1.691-2.284 2.223c-1.257 1.223-2.321 2.041-2.366 1.818-.045-.223.117-1.157.36-2.076l.44-1.672-.678-2.59c-.373-1.425-.778-2.59-.9-2.59s-.467.872-.766 1.938l-.544 1.939-1.167 1.13c-.641.622-1.265 1.032-1.386.91-.12-.12-.294-2.036-.386-4.258l-.166-4.04-.268.271c-.148.15-.888 1.4-1.645 2.778l-1.377 2.506-.2 2.145-.2 2.144-.823-.957-.824-.957.249 1.153c.136.634.46 1.566.718 2.072.258.505.424.919.369.919-.056 0-1.092-1.015-2.302-2.256zm1.049-4.373c0-.436-.398-.725-.721-.525-.346.213-.048.803.406.803.173 0 .315-.125.315-.278zm12.255-.279c-.122-.123-.222-.022-.222.223s.1.345.222.223a.316.316 0 0 0 0-.446zm.697-1.978c-.319-.318-.957.198-.72.582l.21.34.358-.358c.197-.197.265-.45.152-.564zm-3.009-5.348c-.318-.318-.957.198-.72.582l.211.34.358-.358c.197-.197.265-.45.151-.564zm-4.325-5.07c-.135-.704-.729-.66-.88.067l-.108.519h1.1zm1.4-5.598c0-.276-.15-.501-.333-.501-.184 0-.335.225-.335.501s.15.502.335.502c.183 0 .334-.226.334-.502zm-.166 23.23c-.114-.183-.048-.334.147-.334s.354.15.354.335c0 .183-.066.334-.147.334-.081 0-.24-.15-.354-.334zm-2.73-2.896a.316.316 0 0 1 .446 0c.122.122.022.223-.223.223s-.346-.1-.223-.223zm5.57-1.114c0-.246.101-.346.224-.223a.316.316 0 0 1 0 .445c-.123.123-.223.023-.223-.222zm-16.825-9.402c-.625-2.338.273-4.994 2.14-6.323l1.04-.74-.761 1.464c-.419.805-1.086 2.572-1.484 3.928l-.722 2.464zm21.868-2.992c-.228-1.18-.629-2.485-.89-2.898a83.874 83.874 0 0 1-1.02-1.672l-.545-.919 1.52 1.539 1.52 1.539.217 1.47c.12.807.082 1.833-.084 2.278l-.303.81zm-15.068-9.339c.001-.272.159-1.06.35-1.75l.349-1.253-1.009-3.742c-.555-2.058-.968-3.782-.92-3.831.05-.05 1.931.975 4.182 2.275l4.091 2.365 1.324 1.95c.729 1.073 1.325 2.05 1.325 2.172 0 .121-.905-.616-2.01-1.64-1.86-1.722-3.986-2.955-5.942-3.446l-.802-.201.564 1.09.565 1.092-.229 1.521c-.216 1.442-1.842 4.448-1.838 3.398z"/></svg>