 <svg xmlns="http://www.w3.org/2000/svg" width="80mm" height="50mm" viewBox="0 0 80 50"><path d="M27.754 39.476l-3.384-.902-3.293-2.734-3.293-2.734-1.957-4.063-1.958-4.063-.16 1.396-.161 1.397h-1.744c-.96 0-1.744-.194-1.744-.432s.217-1.095.483-1.905c.265-.81 1.088-3.502 1.828-5.982l1.346-4.51 4.52 4.5 4.52 4.499v3.322h-1.015c-.559 0-1.016.204-1.016.453 0 1.16 2 4.702 4.013 7.106l2.223 2.654 2.85 1.472c1.568.81 2.507 1.463 2.088 1.45-.419-.011-2.284-.427-4.146-.924zm6.94-.548L30.63 37.37l-2.667-2.622-2.667-2.623.036-1.541.036-1.541.345.867c.19.476 1.628 2.01 3.195 3.406l2.85 2.54 3.5 1.349 3.498 1.349 4.825-.084 4.826-.085 3.301-1.781c1.816-.98 3.701-2.25 4.19-2.823 1.03-1.207 1.075-1.102.373.9l-.516 1.472-3.53 1.925-3.53 1.925-4.97.242-4.969.24zm.92-3.508l-3.65-1.436-2.791-2.979-2.792-2.978-.604-3.32-.604-3.32 1.564-3.097 1.563-3.097 3.276-1.8 3.276-1.801 4.492-.103 4.492-.103 3.601 1.366 3.602 1.365 2.73 2.765 2.73 2.765h-2.044l-1.989-2.037-1.988-2.036-3.829-1.456-3.829-1.456-4.063.328-4.063.329-2.67 1.513-2.668 1.513L28 18.93l-1.354 2.583.653 3.079.654 3.078 2.614 2.582 2.615 2.582 3.264 1.28 3.265 1.279h8.09l3.121-1.746 3.122-1.745 1.245-2.663c.684-1.465 1.174-2.98 1.087-3.368l-.157-.704 1.046.56c.575.307 1.04.723 1.032.922-.007.2-.751 1.727-1.651 3.395l-1.637 3.03-3.301 1.894-3.301 1.893-4.572-.002h-4.57l-3.652-1.437zm9.027-2.695c-.238-.628-.36-1.223-.271-1.32.335-.37 1.132.456 1.39 1.44.365 1.4-.582 1.3-1.119-.12zm17.861-1.45c-1.466-.855-2.666-1.894-2.666-2.309v-.754l1.396 1.044c2.16 1.615 4.473 3.592 4.19 3.583-.14-.004-1.453-.709-2.92-1.564zm-1.07-3.838c-3.392-2.978-6.168-5.606-6.168-5.84 0-.235 1.029-.427 2.286-.427 1.257 0 2.286-.194 2.286-.431 0-.758-2.849-4.317-5.401-6.748l-2.472-2.354-2.794-1.061-2.793-1.062 2.286.303c1.257.167 3.224.469 4.371.67l2.087.367 3.778 2.706 3.779 2.706 2.001 3.34 2.002 3.342.168-1.143.17-1.143h2.976l.006.635c.013 1.607-1.764 11.555-2.063 11.555-.186 0-3.113-2.436-6.505-5.415zm-25.104 4.086c-.358-.357.718-2.226 1.282-2.226.212 0 .385.315.385.7 0 .832-1.233 1.96-1.667 1.526zm14.365-1.718c-.698-.547-1.109-.999-.913-1.005.722-.023 2.945 1.18 2.945 1.594 0 .675-.66.483-2.032-.59zm-40.38 0L10 29.297l1.935.036 1.934.035-1.016.437c-1.396.6-2.168.6-2.54 0zm14.517-2.328l.04-.974.266.667c.147.367.13.805-.04.973-.168.17-.288-.13-.266-.666zm19.768-1.058c-2.864-.451-3.555-.733-3.555-1.45v-.751l1.143.02c.628.012 2.4.574 3.936 1.25l2.793 1.228-1.523-.048a27.506 27.506 0 0 1-2.794-.25zm-14.221-1.693c0-.28.742-.492 1.65-.473l1.651.036-1.016.437c-1.403.603-2.285.603-2.285 0zm19.85-1.199c.117-.1.84-.333 1.609-.517l1.397-.335v.517c0 .285-.724.518-1.609.518-.884 0-1.513-.082-1.396-.183zm-9.865-1.214A56.306 56.306 0 0 1 39.8 19.9l-.322-1.523 1.247 2.022c1.19 1.93 1.29 2.803.322 2.803-.244 0-.552-.4-.685-.889zm-8.462-4.19c-.698-.547-1.01-.999-.69-1.005.317-.006 1.117.438 1.777.988 1.56 1.3.573 1.315-1.087.017zm13.73.127c.01-.21.33-.795.713-1.3l.697-.92.347.56c.19.31.07.894-.268 1.3-.652.787-1.516.995-1.489.36zm-7.301-2.772c-.162-.616-.176-1.238-.032-1.382.329-.328 1.204 1.018 1.214 1.868.014 1.068-.87.705-1.182-.486z"/></svg> 