<svg xmlns="http://www.w3.org/2000/svg" width="80mm" height="50mm" viewBox="0 0 80 50"><path d="M32.772 39.01c-3.665-3.606-6.487-6.734-6.27-6.952.217-.217 3.295 2.3 6.84 5.595 3.544 3.294 6.5 5.989 6.568 5.989.069 0 3.018-2.697 6.556-5.993 3.538-3.296 6.602-5.824 6.808-5.617.446.446-10.602 11.75-12.514 12.805-1.111.613-2.399-.327-7.988-5.827zm.138-3.951l-6.265-5.971-.48-5.82a709.809 709.809 0 0 0-.89-9.914l-.41-4.093 4.631-.496c2.645-.283 5.872-1.198 7.52-2.13L39.903 5l3.334 1.715c1.834.944 5.2 1.908 7.48 2.144 2.28.235 4.255.626 4.388.87.133.242-.177 4.668-.69 9.835l-.932 9.393-6.426 6.033c-3.535 3.319-6.754 6.035-7.154 6.037-.4 0-3.547-2.684-6.992-5.968zm3.049-1.13c-.432-.809-.786-2.228-.786-3.155 0-1.612.237-1.685 5.457-1.685 4.64 0 5.457.184 5.457 1.23 0 2.21 1.57 2.267 3.671.133 1.822-1.849 2.15-2.91 2.834-9.157 1.227-11.229 1.417-10.577-3.244-11.159-2.21-.276-5.176-1.093-6.594-1.816-2.496-1.272-2.673-1.27-5.625.069-1.676.76-3.866 1.395-4.867 1.41-1 .017-2.602.235-3.56.491l-1.74.466.468 8.802.468 8.802 4.177 3.766c4.323 3.897 5.23 4.319 3.884 1.802zm-.114-6.818c-.77-.287-1.4-1.188-1.4-2 0-1.495 1.222-1.883 4.924-1.563 1.308.113 1.742-.323 2.1-2.109.4-2.005.697-2.227 2.716-2.03 2.182.212 2.274.359 2.484 3.977l.217 3.756-4.82.246c-2.652.135-5.451.008-6.222-.277zm-2.052-4.873c-2.06-1.304-.279-2.973 3.176-2.973 2.739 0 3.297.232 3.297 1.365 0 .946-.697 1.504-2.274 1.819-2.863.572-2.97.567-4.2-.21zm-.077-6.568c0-3.147 1.32-4.718 1.948-2.317.394 1.506.398 1.506 1.755-.11 1.16-1.38 1.466-1.458 2.073-.533.56.853.902.896 1.598.2.676-.676 1.129-.686 1.905-.044.786.653 1.172.607 1.69-.199.988-1.534 2.2.508 1.954 3.291-.17 1.931-.47 2.17-2.901 2.323-1.492.092-2.925-.174-3.184-.594-.308-.499-.685-.42-1.086.224-.5.804-.89.817-2.092.069-.873-.542-1.477-.615-1.477-.182 0 .404-.492.734-1.092.734-.785 0-1.091-.804-1.091-2.868z"/></svg>