<svg xmlns="http://www.w3.org/2000/svg" width="80mm" height="50mm" viewBox="0 0 80 50"><path d="M35.565 44.545c-1.739-.43-5.194-1.808-7.678-3.064s-5.228-2.494-6.098-2.751c-.87-.258-1.58-1.144-1.58-1.97 0-2.17 5.09-1.164 10.065 1.988 6.312 4 11.684 4.003 19.788.01 8-3.941 11.59-4.323 9.202-.978-1.15 1.61-13.15 6.648-16.924 7.106-1.987.241-5.036.086-6.775-.341zm-.214-10.464c-2.932-1.59-5.217-5.63-5.178-9.155.032-2.855 8.063-19.378 9.682-19.918 1.34-.447 10.164 17.025 10.164 20.128 0 5.295-5.016 10.412-10.118 10.323-1.143-.021-3.19-.64-4.55-1.378zm6.538-3.208c0-.438-.854-.798-1.896-.798-1.043 0-3.076-1.262-4.517-2.805-2.303-2.465-2.62-2.585-2.62-.984 0 2.506 4.872 6.473 7.202 5.864 1.007-.264 1.83-.838 1.83-1.277zm8.13 2.845c0-1.917 6.202-7.147 9.728-8.204 4.177-1.25 5.329-.875 4.09 1.339-.929 1.66-13.818 8.063-13.818 6.865zm-25.21-2.41c-2.19-1.175-4.716-2.136-5.614-2.136-1.401 0-3.503-2.403-3.503-4.005 0-.978 3.599-.503 7.243.956 2.283.913 4.19 2.478 5.053 4.148.763 1.476 1.255 2.793 1.095 2.927-.161.135-2.084-.715-4.274-1.89zm24.588-15.366c-1.515-2.314-1.492-2.52.728-6.497 1.261-2.26 2.696-4.242 3.188-4.406.492-.164 1.849 1.74 3.015 4.23 1.766 3.77 1.948 4.905 1.087 6.795-1.467 3.217-5.873 3.15-8.017-.122zm3.332.68c0-.444-.59-1.033-1.31-1.31-.874-.335-1.142-.063-.806.807.548 1.43 2.116 1.801 2.116.503z"/></svg>