<svg xmlns="http://www.w3.org/2000/svg" width="80mm" height="50mm" viewBox="0 0 80 50"><path d="M31.66 40.054l-4.656-1.513-4.752-4.315L17.5 29.91l.046-5.1c.047-5.214.276-4.957.904 1.013l.276 2.62 4.721 4.3c4.13 3.761 5.267 4.565 9.086 6.42 3.913 1.903 4.964 2.531 4.073 2.435-.16-.018-2.386-.713-4.946-1.545zm16.099-2.885v-3.685h-7.4l.111-3.589.112-3.588 3.588-.111 3.588-.112V18.743h7.371v7.37H62.5v7.371h-7.371v7.371h-7.371zm-13.696.463c-4.365-2.286-6.058-3.442-9.366-6.393-4.445-3.965-4.188-3.448-4.904-9.866l-.463-4.157 2.48-3.076c2.726-3.382 3.046-3.532 7.534-3.54 2.336-.004 2.343-.002 4.542 2.226 1.55 1.57 2.66 3.206 3.748 5.528l1.546 3.298.023-3.814.023-3.814 1.843-2.672 1.843-2.671 2.327-.019c1.28-.009 2.701-.118 3.157-.24.645-.173 1.446.358 3.589 2.38 2.687 2.535 2.759 2.652 2.759 4.495v1.893h-8.535v7.371h-7.371v10.474h3.298c1.813 0 3.297.131 3.297.29 0 .16-.654.805-1.455 1.433-.8.627-2.158 1.708-3.019 2.402l-1.565 1.262zm2.303-24.204c-.617-.822-.652-1.103-.236-1.88.46-.861 3.36-2.368 3.77-1.958.104.104-.355.85-1.02 1.656-.664.806-1.208 1.765-1.208 2.13 0 1.07-.527 1.091-1.306.052z"/></svg>