<svg xmlns="http://www.w3.org/2000/svg" width="80mm" height="50mm" viewBox="0 0 80 50"><path d="M39.962 40.523c-.298-1.642-1.019-2.116-4.261-2.802-2.147-.454-4.066-1.314-4.265-1.91-.252-.753.056-.925 1.003-.562.75.288 2.725.742 4.387 1.008 2.52.403 3.086.238 3.402-.992.37-1.437.382-1.437.472 0 .074 1.268.505 1.393 3.06.903 1.633-.314 3.504-.659 4.157-.767.654-.109 2.207.653 3.454 1.693 1.788 1.491 2.501 1.694 3.384.962 1.833-1.522 2.023-.293.207 1.348-1.66 1.501-1.69 1.493-3.877-1.125-1.212-1.45-2.416-2.294-2.676-1.873-.26.42-2.058 1.003-3.997 1.293-3.066.46-3.56.806-3.808 2.665L40.32 42.5zm-15.387-1.57c-.796-.88-1.057-1.6-.58-1.6s1.105.383 1.394.85c.337.546 1.208.212 2.42-.926 1.04-.978 2.068-1.602 2.283-1.387.215.215-.613 1.352-1.84 2.527-2.227 2.134-2.23 2.134-3.676.535zm.116-2.247c-1.249-1.38-1.245-1.543.056-2.63 3.111-2.592 8.225-5.462 8.941-5.02 1.213.75.889 3.252-.576 4.44-1.155.936-1.243.922-.64-.102.617-1.046.517-1.05-.837-.037-.846.63-2.456 1.975-3.578 2.985-1.98 1.785-2.078 1.795-3.37.367zm27.045.056c-.15-.327-1.502-1.663-3.005-2.97-1.503-1.306-2.251-1.743-1.662-.97.925 1.21.902 1.338-.167.928-1.73-.664-2.216-2.344-1.109-3.832.828-1.113 1.511-.892 5.958 1.93 4.193 2.66 4.864 3.378 4.06 4.347-1.012 1.22-3.612 1.581-4.076.567zM24.71 31.22c-.186-.327-.77-1.93-1.296-3.563-.827-2.565-1.299-2.983-3.469-3.073l-2.512-.105 2.724-.49c2.233-.4 2.841-.945 3.377-3.023.636-2.463 1.917-3.964 2.708-3.173.214.214-.139 1.654-.785 3.2-1.166 2.79-1.16 2.812.943 3.133l2.118.324-2.178.119c-2.541.138-2.533.108-.99 3.803.653 1.564 1.188 2.977 1.188 3.142 0 .548-1.484.308-1.828-.295zm29.184-2.152c1.46-3.495 1.473-3.416-.634-3.821-1.764-.34-1.763-.345.093-.451 1.96-.113 1.988-.48.429-5.65-.538-1.783-.466-1.872.731-.89.73.599 1.615 2.202 1.966 3.562.52 2.013 1.146 2.565 3.362 2.964l2.724.49-2.97.103c-2.278.085-2.968.432-2.968 1.512 0 1.623-2.127 4.927-3.172 4.927-.388 0-.19-1.236.44-2.746zm-16.202-3.109c-.707-.853-.62-1.4.391-2.41 1.503-1.503 2.63-1.322 3.838.615 1.45 2.327-2.422 3.972-4.228 1.796zm-6.02-5.21c.59-.955-5.1-4.318-7.055-4.17-1.163.084-1.32-.066-.557-.537.778-.48.818-.81.15-1.223-.69-.426-.688-.84.01-1.682 1.384-1.67 2.13-1.42 6.363 2.123 4.074 3.411 4.986 5.84 2.27 6.044-.88.066-1.413-.184-1.183-.555zm13.4-.136c-.288-.467 1.255-2.631 3.432-4.808 3.2-3.199 4.294-3.85 5.715-3.399 1.216.387 1.64 1.012 1.374 2.028-.21.808-.155 1.606.126 1.773.28.167.047.187-.529.047-.57-.143-2.962.972-5.315 2.476-2.73 1.747-4.467 2.429-4.803 1.886zm2.118.62c.181-.16 1.22-.713 2.309-1.232 1.866-.89 1.892-.872.442.289-1.26 1.01-3.838 1.893-2.751.943zm-18.719-1.735c-1.476-1.182-1.466-1.197.244-.369.98.476 1.782 1.03 1.782 1.232 0 .606-.41.43-2.026-.863zm10.827-5.4c-.095-1.54-.768-1.54-6.927-.006-1.991.497-2.145.415-1.255-.667.559-.678 2.608-1.472 4.553-1.764 3.141-.47 3.55-.768 3.645-2.659.098-1.935.14-1.963.457-.3.375 1.958.435 1.994 5.595 3.315 4.141 1.06 3.751 2.49-.415 1.522-4.21-.977-4.79-.904-5.199.658-.323 1.239-.372 1.228-.453-.1z"/></svg>