<svg xmlns="http://www.w3.org/2000/svg" width="80mm" height="50mm" viewBox="0 0 80 50"><path d="M20.413 43.729c-.12-.7-.333-2.265-.474-3.48l-.257-2.208 1.507-.225a134.54 134.54 0 0 1 3.845-.488l2.339-.264-.808-.299c-.445-.164-1.805-.423-3.023-.575-1.218-.152-2.215-.445-2.215-.65v-.373l3.227.273c3.548.3 4.002-.03.697-.505-1.149-.166-2.09-.47-2.09-.677 0-.207.423-.693.943-1.08l.944-.706 13.851.103 13.852.103-10.233 1.548c-5.628.851-10.103 1.659-9.943 1.795.16.137 2.72 1.266 5.688 2.51 2.969 1.243 5.337 2.32 5.265 2.393-.073.073-3.887-.045-8.475-.262-4.589-.216-8.418-.318-8.51-.225-.093.092.726.49 1.819.883l1.988.715.23.914c.126.503.16.983.075 1.068-.17.17-7.719.983-9.13.983h-.893zm25.557-5.942l-4.498-.798 3.325-.251c6.152-.464 12.718-.722 12.126-.476-.323.134-1.907.711-3.52 1.283l-2.934 1.04zm-19.302-8.095c-.397-.23-1.053-1.15-1.458-2.041l-.737-1.623-.009-2.287-.009-2.288.627-1.32.626-1.32 1.359-.255 1.359-.255.44.44.44.44h-.656c-.36 0-.949.447-1.307.993l-.65.994.032 2.315c.034 2.409.422 3.52 1.733 4.96l.775.852.643-.2.643-.199-.76.619c-.874.712-2.053.779-3.091.175zm4.088-1.267l-.501-.604.914-.195c.503-.107 4.247-.557 8.32-1 4.072-.442 7.475-.874 7.561-.96.087-.087-.04-.524-.28-.973l-.436-.816-1.062.017c-.584.009-4.433.413-8.554.899l-7.493.882-.223-1.395c-.279-1.743.056-3.906.752-4.858l.53-.726 10.268-1.15 10.268-1.151.802.39.803.39-.85.026-.85.026-.445 1.349-.445 1.349.414 2.237c.431 2.335 1.273 3.663 2.334 3.683l.624.012-.592.346c-.325.191-4.55.803-9.388 1.36-4.838.558-9.51 1.116-10.383 1.24l-1.587.225zm22.88-4.114c-1.367-1.512-1.847-4.768-.894-6.07l.513-.702 1.83-.206 1.83-.207 2.732.879c1.503.483 2.916 1.1 3.14 1.37.616.741.137 1.536-1.736 2.88-1.918 1.378-3.282 1.985-5.388 2.4l-1.456.286zm-29.772-8.267c-.103-.166 1.136-.786 2.754-1.376 1.618-.59 2.876-1.139 2.796-1.22-.08-.08-1.854.31-3.941.865-2.088.555-4.001.941-4.253.858-.251-.084.641-.738 1.983-1.454 1.343-.715 2.377-1.364 2.3-1.441-.078-.078-1.869.214-3.98.648-2.112.435-3.879.745-3.927.689-.048-.056-.21-1.794-.362-3.861l-.275-3.76 1.89-.232c1.04-.128 3.343-.351 5.118-.496L27.194 5v2.046l-1.466 1.4-1.467 1.398.782-.21c1.816-.488 14.386-2.99 14.492-2.885.063.064-1.544.98-3.573 2.034-2.029 1.056-3.612 1.995-3.518 2.09.094.093 3.553-.027 7.688-.267 4.134-.24 7.57-.384 7.634-.32.064.065-5.246 1.455-11.8 3.09-6.553 1.634-11.999 2.835-12.102 2.669zm24.062-9.202c2.044-.508 3.892-.923 4.108-.923.215 0-.401.424-1.37.942l-1.76.943-2.347-.02-2.347-.02z"/></svg>