<svg xmlns="http://www.w3.org/2000/svg" width="80mm" height="50mm" viewBox="0 0 80 50"><path d="M33.444 43.985c-2.013-1.767-3.465-5.576-2.612-6.852.352-.527 1.6-1.135 2.306-1.123.57.01.572.03.022.35-.811.473-.756 2.49.115 4.145 1.104 2.1 2.94 3.36 4.051 2.777.605-.317.754-.052.329.585-.362.54-1.604 1.133-2.378 1.133-.373 0-1.198-.457-1.833-1.015zm3.985-1.62c-.103-.166 2.364-1.854 5.481-3.75 3.117-1.897 5.679-3.598 5.693-3.782.014-.183-.192-.47-.457-.637-.349-.22-2.112.683-6.372 3.262-3.24 1.96-6.05 3.467-6.245 3.346-.616-.38-1.604-2.922-1.609-4.137-.004-1.165.01-1.175 7.31-5.584 4.023-2.429 7.65-4.416 8.061-4.416.705 0 .713.024.135.446-.83.607-.485 2.37.814 4.164 1.268 1.75 2.094 2.204 3.086 1.698.703-.359.697-.328-.099.496-1.078 1.116-14.293 9.189-15.048 9.193-.31 0-.647-.133-.75-.3zm-3.212-11.123c-2.32-1.563-3.317-4.193-2.031-5.357.834-.755.961-.699.82.365-.255 1.903 2.417 4.575 4.32 4.321 1.07-.142 1.157.109.308.877-.845.765-2.088.69-3.417-.206zm18.28.1c-1.007-.791-1.92-2.613-1.92-3.828 0-.75.283-1.014 1.87-1.74 2.008-.92 5.62-1.375 6.448-.813.776.527-1.43 4.547-3.261 5.94-1.68 1.28-2.012 1.327-3.137.441zm-26.923-.32c-1.545-.47-2.912-1.325-3.791-2.369-1.003-1.192-1.086-1.868-.354-2.912.645-.922 1.143-.962.91-.075-.25.96.702 2.217 2.294 3.03 1.474.752 3.675.943 3.877.337.184-.551.733-.44.733.149 0 .72-1.513 2.157-2.235 2.123-.329-.016-.974-.143-1.434-.283zm15.924-5.444c2.243-2.248 4.078-4.182 4.078-4.297 0-.115-.254-.307-.564-.426-.418-.16-1.655.871-4.765 3.975l-4.201 4.191-.763-.812c-.42-.447-.966-1.39-1.214-2.094l-.45-1.282 5.033-5.058c2.769-2.783 5.318-5.133 5.665-5.224.504-.132.554-.073.25.293-1.175 1.417 2.759 5.332 4.176 4.156.275-.228.5-.295.5-.148s-2.356 2.64-5.236 5.541c-3.327 3.35-5.483 5.274-5.912 5.274-.493 0 .425-1.103 3.403-4.089zm-13.251 2.196c.002-.15 1.269-2.599 2.815-5.44 2.392-4.398 2.726-5.199 2.246-5.38-.31-.116-.693-.094-.848.05-.156.145-1.522 2.566-3.034 5.38-1.513 2.814-2.968 5.159-3.233 5.211-.72.142-2.721-1.324-3.219-2.358-.41-.854-.259-1.235 2.645-6.655 3.66-6.83 4.517-8.249 4.981-8.249.192 0 .256.152.141.337-.656 1.06 1.59 3.066 3.925 3.504.94.177 1.248.097 1.533-.393.34-.584.357-.582.363.052.01 1.075-7.066 13.977-7.736 14.104-.32.062-.581-.012-.579-.163zM46.71 16.867c-1.502-1.502-1.493-2.559.032-3.722 1.277-.974 3.244-1.774 4.418-1.797.6-.011.75.169.748.902-.005 2.403-1.978 5.75-3.39 5.75-.37 0-1.185-.51-1.808-1.133zM33.148 11.92c-1.703-.987-1.888-1.928-.711-3.625C33.489 6.775 35.863 5 36.84 5c.53 0 .68.315.852 1.769.2 1.701-.019 3.026-.821 4.981-.477 1.16-1.902 1.226-3.724.17z"/></svg>