<svg xmlns="http://www.w3.org/2000/svg" width="80mm" height="50mm" viewBox="0 0 80 50"><path d="M43.941 38.974l-.273-.442h.677c.94 0 2.026-2.278 2.026-4.25v-1.645l-.734-.81c-.403-.447-.63-.915-.503-1.042s.745-.035 1.373.204l1.142.434.297 1.584.298 1.584-.557 1.989-.557 1.988-.792.424c-1.025.548-2.052.54-2.397-.018zm5.311-1.367c.165-.751.3-2.044.3-2.872 0-.827.13-1.508.288-1.511.158-.003 3.633.635 7.723 1.418L65 36.066l-.809.318c-.445.176-2.3.35-4.123.387l-3.313.068 2.209 1.04 2.21 1.041-6.111.027-6.11.027zm-15.694.02a899.861 899.861 0 0 1-6.628-.847c-.122-.023.121-.241.54-.485.417-.243.977-1.25 1.243-2.238l.483-1.795-.472-1.355c-.26-.745-.422-1.395-.36-1.444.062-.048 3.492.295 7.624.763 4.131.468 7.7 1.038 7.93 1.265l.42.414h-1.381c-1.196 0-4.25-.338-9.73-1.077l-1.437-.193v1.613l1.436.245c.79.135 3.673.49 6.407.788l4.97.544v1.05c0 .578-.303 1.637-.673 2.354l-.674 1.304-1.646-.05c-.905-.028-4.529-.413-8.052-.856zm-9.46-2.266c-2.18-.478-4.68-2.001-4.68-2.85v-.65l1.878-.852c1.033-.468 2.617-.856 3.52-.862l1.641-.01.498.93.498.93-.273 1.456c-.15.8-.517 1.643-.814 1.872l-.54.415zm13.968-8.638l-1.456-.18.337-.964c.186-.53.325-1.484.308-2.12l-.03-1.154 6.1 2.022c3.354 1.112 6.04 2.081 5.967 2.154-.073.072-1.704-.042-3.625-.255-1.921-.212-3.572-.318-3.668-.235-.096.083.302.341.884.574l1.058.424-2.21-.043c-1.214-.024-2.864-.124-3.665-.223zm-5.22-.95c.412-.455.866-1.547 1.009-2.426l.259-1.597-.61-.75-.61-.749.81.304c.445.167.893.304.994.304.102 0 .185.85.185 1.89v1.89l-.688.982c-.378.54-1.005.982-1.394.982h-.706zm-8.032-1.095l-4.546-.947.74-.74.74-.738v-1.802c0-.99.045-1.802.1-1.802.323 0 9.388 1.855 9.895 2.024.339.114.52.303.402.42-.118.118-2.036-.159-4.261-.615l-4.047-.83v.597c0 .633.147.681 5.277 1.732 1.81.37 3.377.76 3.484.868.107.107-.055.798-.36 1.534l-.555 1.34-1.161-.047c-.64-.026-3.208-.473-5.708-.994zm-7.163-2.414C16.257 21.632 15 20.626 15 20.142c0-.608 3.643-1.593 4.573-1.236.94.36 1.213 1.343.728 2.62l-.419 1.1-.784-.03c-.431-.018-1.082-.167-1.447-.332zm39.987-.746c-.243-.085-2.375-.49-4.738-.899l-4.297-.744.473-.884c.26-.486.397-1.536.304-2.333l-.17-1.45 4.877 1.767c2.682.97 5.871 2.128 7.086 2.571 2.678.977 1.886 1.06-1.988.208-1.58-.347-3.27-.63-3.756-.626l-.884.005 2.43 1.284c1.337.706 2.132 1.277 1.768 1.27-.365-.01-.862-.084-1.105-.17zm-13.323-1.38l-.51-.208 1.105-1.105 1.105-1.104-.158-1.978-.157-1.978.667.127.667.126.12 1.763.12 1.764-.886 1.436c-.884 1.43-1.105 1.554-2.073 1.158zm-2.141-.865c-.243-.072-2.884-.766-5.869-1.542l-5.426-1.412.776-.857.777-.858.01-1.953c.007-1.073.13-1.953.277-1.953.653-.003 10.848 2.779 11.442 3.123l.663.383-.663.012c-.364.007-2.516-.484-4.781-1.091-2.266-.607-4.204-1.104-4.308-1.104-.104 0-.19.29-.19.646v.646l1.878.496c1.033.274 3.071.812 4.53 1.197 1.457.385 2.828.854 3.046 1.042l.395.342-.546 1.319c-.546 1.317-1.179 1.809-2.012 1.563zM27.593 14.31c-.73-.45-1.606-1.158-1.948-1.573l-.622-.753.486-.485c.267-.267 1.449-.578 2.627-.691l2.142-.206.597.719.596.718-.407 1.428-.408 1.427-.869.118c-.478.065-1.465-.25-2.194-.702z"/></svg>