<svg xmlns="http://www.w3.org/2000/svg" width="80mm" height="50mm" viewBox="0 0 80 50"><path d="M20.821 44.275c-2.114-1.29-2.776-3.808-1.75-6.662.273-.76 1.26-2.952 2.193-4.869l1.695-3.486 1.764 2.935c2.409 4.006 3.352 5.953 3.599 7.428l.21 1.249-.608 1.236c-.333.68-1.152 1.604-1.82 2.053l-1.212.816-1.464-.001-1.464-.001zm6.229-2.608c.84-.657.445-2.298-1.492-6.186l-1.939-3.89-.009 1.248c-.02 2.794.625 8.613 1.006 9.072l.408.491.79-.193c.434-.106.99-.35 1.236-.542zm12.692 2.339l-1.137-.995-3.803-8.565c-2.091-4.712-3.882-8.76-3.98-8.997l-.178-.43 1.19.34c.654.189 1.767.342 2.473.342h1.283l1.294-.981 1.294-.982.013-2.522.014-2.522-1.388-.78c-.762-.428-1.79-.779-2.283-.779h-.896l-.394-2.26c-.455-2.616-.489-3.831-.12-4.367.144-.21 1.732-1.535 3.529-2.945L39.92 5h2.425L44.4 6.832l2.055 1.831 2.21-.218 2.21-.218.789.617.789.617 4.475 10.086 4.476 10.086v2.382l-5.413 5.855c-2.977 3.22-5.828 6.09-6.335 6.377l-.923.522-3.926.116-3.926.115zm9.307-.194l1.03-.392-.842-.311c-.462-.171-2.923-.28-5.467-.24l-4.626.07 1.047.838 1.046.838 3.391-.206c1.865-.113 3.854-.382 4.42-.597zm-2.558-2.014l.613-.036-.197-.513-.197-.514-3.807.202c-3.68.195-4.627.432-4.239 1.062l.185.299 3.514-.232c1.933-.128 3.79-.248 4.128-.268zm-1.595-1.673c.638-.099 1.16-.357 1.16-.575v-.395l-3.98.228c-2.19.125-4.053.3-4.14.387-.089.088-.07.308.042.488l.202.328 2.778-.141c1.528-.078 3.3-.222 3.938-.32zm-.714-1.573l1.16-.003v-.975l-2.588.144c-4.016.225-5.621.484-5.621.906v.388l2.944-.23c1.62-.125 3.467-.23 4.105-.23zm7.941-5.368V27.46l3.334 1.797c1.833.988 3.45 1.797 3.594 1.797.143 0 .209-.341.146-.758l-.114-.759-3.472-1.83-3.473-1.828-.007-5.788-.007-5.787-.69-.37c-.38-.203-.782-.369-.893-.369-.11 0-.202 2.49-.202 5.532 0 3.043-.09 5.532-.201 5.532-.111 0-1.713-.815-3.561-1.81-1.847-.996-3.523-1.71-3.724-1.586-.201.125-.366.448-.366.718v.492l3.926 2.04 3.926 2.04v12.383H52.124zm-8.717-3.404l-2.996-7.83.175-1.069.175-1.069 4.522-4.4 4.521-4.4-4.997 3.998-4.996 3.999-.3 1.524-.3 1.525 3.491 7.88c1.92 4.335 3.538 7.834 3.595 7.777.058-.058-1.243-3.628-2.89-7.935zm-.295 6.771c.834-.102 1.517-.335 1.517-.517v-.331l-3.301.197c-3.849.23-4.908.408-4.908.825 0 .295 3.65.2 6.692-.174zm.417-2.155c.081-.07.05-.227-.07-.348-.34-.34-8.11.256-8.11.621v.325l4.016-.234c2.208-.13 4.082-.293 4.164-.364zm-.063-23.685c.443 0 .806-.113.806-.251s-.513-.78-1.14-1.428L41.99 7.855h-1.722l-2.324 1.85-2.323 1.848.205 1.729c.112.95.297 1.878.41 2.06.112.183 1.603-.785 3.313-2.15l3.11-2.481zm-21.68 17.217c-.294-.098-.8-.408-1.123-.69l-.588-.51.255-.96.254-.96.989-.115.988-.116.494.651c.271.358.498.908.505 1.22.015.766-1.108 1.702-1.774 1.48zm2.32-3.034l-.713-1.112-1.05-.277-1.05-.277-.51.424c-.282.234.229-1.05 1.134-2.853.906-1.803 1.93-3.427 2.275-3.61l.628-.332 5.16.832c2.837.457 5.527 1.029 5.978 1.27l.819.438v3.391l-1.29.797-1.291.798-3.486-.823c-1.917-.453-3.735-.727-4.04-.61-.306.117-.847.853-1.203 1.634l-.647 1.421z"/></svg>