<svg xmlns="http://www.w3.org/2000/svg" width="80mm" height="50mm" viewBox="0 0 80 50"><path d="M33.283 38.678c-3.46-3.478-6.293-6.636-6.293-7.019s2.861 2.152 6.358 5.632l6.357 6.328 6.52-6.083c3.585-3.346 6.663-5.947 6.84-5.78.397.375-7.372 8.337-10.895 11.163L39.577 45zm-.618-3.972l-6.295-5.95-.71-9.428c-.391-5.185-.559-9.674-.373-9.974.186-.301 1.38-.555 2.652-.564 3.597-.026 7.801-1.194 9.905-2.75 1.843-1.362 1.982-1.367 3.691-.129 2.215 1.604 6.749 2.886 10.223 2.892 1.454.002 2.792.412 2.974.91.181.5-.086 4.988-.592 9.975l-.923 9.068-6.312 5.985c-3.47 3.292-6.678 5.969-7.128 5.95-.45-.018-3.65-2.714-7.112-5.986zm13.408-.896l5.514-5.103.765-6.867c.421-3.776.898-7.885 1.061-9.129.294-2.248.272-2.265-3.578-2.662-2.13-.22-5.286-1.007-7.012-1.75-2.972-1.278-3.265-1.284-5.55-.122-1.326.674-4.357 1.452-6.735 1.728-3.535.41-4.263.72-3.992 1.697.183.657.552 4.708.821 9l.49 7.805 5.908 5.436c3.25 2.99 6.108 5.355 6.351 5.254.243-.101 2.924-2.48 5.957-5.287zm-6.924-1.65c-.293-1.12-.971-1.59-2.298-1.59-1.034 0-1.881-.326-1.881-.725 0-.4-.48-.726-1.066-.726-.648 0-.902-.425-.647-1.088.23-.6 1.233-1.088 2.23-1.088 1.177 0 1.69.326 1.458.929-.196.51.43 1.3 1.39 1.753 1.49.703 2.057.562 3.877-.97 1.866-1.57 2.34-1.68 3.793-.878 1.426.786 1.481.953.39 1.182-.698.147-1.27.569-1.27.938 0 .37-.775.673-1.724.673-.971 0-2.187.696-2.781 1.59l-1.056 1.59zm-1.95-6.24c-1.205-1.453.254-2.152 2.094-1.003.814.508 1.48 1.172 1.48 1.475 0 .953-2.685.598-3.573-.473zm-1.355-4.643c-2.339-2.161-3.776-4.094-3.776-5.078 0-.873-.009-1.815-.017-2.093-.009-.278.79-.614 1.777-.745 1.225-.164 2.047.227 2.584 1.23.433.809 1.265 1.47 1.85 1.47.584 0 1.085.572 1.113 1.27.043 1.04.14 1.072.544.182 1.274-2.81 3.33-5.078 4.602-5.078 1.674 0 4.96 3.342 4.96 5.045 0 .663-1.328 2.166-2.95 3.34-1.623 1.173-3.395 2.542-3.938 3.04-1.643 1.507-2.801 1.064-6.747-2.582zm12.75-3.845c.112-.577-.5-1.804-1.359-2.726-1.42-1.525-1.667-1.574-2.702-.539-1.035 1.036-.981 1.308.592 2.982 1.82 1.936 3.128 2.043 3.47.283zm-15.913 3.677c-1.683-1.77-2.79-3.639-2.79-4.715 0-2.511 1.183-2.222 1.71.418.246 1.226 1.652 3.314 3.174 4.712 1.504 1.38 2.275 2.512 1.715 2.514-.56.002-2.275-1.316-3.809-2.929zm17.58-2.569c.035-.845.207-1.017.438-.438.21.523.184 1.149-.06 1.39-.24.24-.413-.188-.381-.952z"/></svg>