<svg xmlns="http://www.w3.org/2000/svg" width="80mm" height="50mm" viewBox="0 0 80 50"><path d="M18.392 41.413v-3.564l7.478-6.287c4.113-3.457 7.478-6.337 7.478-6.4 0-.062-3.365-2.936-7.478-6.385l-7.478-6.27V5l1.336 1.06c4.747 3.766 22.718 18.664 22.8 18.902.057.16-5.14 4.6-11.547 9.867-6.407 5.268-11.86 9.706-12.119 9.862l-.47.285zm18.872.05v-3.536l7.455-6.196c4.1-3.408 7.455-6.357 7.456-6.553.001-.196-3.353-3.149-7.454-6.562l-7.457-6.207V5.018l.445.273c.688.422 23.735 19.365 23.898 19.642.13.222-23.295 19.667-24.032 19.948l-.31.119z"/></svg>